<svg xmlns="http://www.w3.org/2000/svg" fill="none" viewBox="0 0 392 434"><mask id="a" width="97" height="97" x="213" y="75" maskUnits="userSpaceOnUse" style="mask-type:luminance"><path fill="#fff" d="m213 101.59 71.213-26.2215 25.755 69.9465-71.213 26.221L213 101.59Z"/></mask><g mask="url(#a)"><path fill="url(#b)" d="M269.401 144.642c-11.501 4.235-24.268-1.682-28.515-13.217-4.247-11.534 1.634-24.317 13.135-28.552 11.501-4.235 24.265 1.683 28.512 13.217 4.247 11.535-1.631 24.317-13.132 28.552Zm19.91-28.063 6.864-7.666c-1.023-2.387-2.273-4.62-3.707-6.682l-9.813 2.143c-1.446-1.567-3.052-2.956-4.785-4.15l.331-10.233c-2.202-1.0821-4.506-1.9492-6.881-2.586l-6.14 7.9741c-2.222-.2795-4.491-.2963-6.766-.0332l-6.257-7.9924c-1.154.305-2.306.6667-3.45 1.0879-1.144.4211-2.255.8931-3.334 1.4101l.423 10.1407c-1.903 1.2748-3.619 2.7598-5.131 4.4138l-9.843-2.089c-1.395 2.025-2.587 4.179-3.561 6.431l6.888 7.575c-.545 2.033-.867 4.131-.951 6.262l-8.859 4.732c.245 2.5.742 5.01 1.511 7.491l10.194 1.385c.835 1.729 1.826 3.342 2.95 4.826l-3.756 9.375c1.892 1.885 3.972 3.554 6.193 4.986l8.701-5.516c1.535.687 3.131 1.241 4.768 1.648l3.168 9.691c2.677.267 5.402.249 8.132-.078l3.105-9.792c.765-.214 1.528-.457 2.288-.736.758-.28 1.499-.59 2.22-.924l8.713 5.441c2.291-1.522 4.377-3.276 6.242-5.215l-3.873-9.431c.981-1.372 1.837-2.828 2.56-4.347l10.2-1.444c.763-2.53 1.261-5.148 1.479-7.81l-8.937-4.702c-.107-1.859-.398-3.728-.886-5.586Z"/></g><mask id="c" width="68" height="68" x="267" y="137" maskUnits="userSpaceOnUse" style="mask-type:luminance"><path fill="#fff" d="m267.385 155.949 49.196-18.114 17.923 48.675-49.196 18.115-17.923-48.676Z"/></mask><g mask="url(#c)"><path fill="url(#d)" d="M306.393 186.187c-8.026 2.955-16.935-1.177-19.899-9.225-2.964-8.05 1.139-16.97 9.166-19.926 8.024-2.954 16.935 1.174 19.899 9.225 2.963 8.047-1.142 16.971-9.166 19.926Zm13.894-19.584 4.789-5.35c-.715-1.668-1.585-3.224-2.586-4.663l-6.848 1.495c-1.01-1.093-2.13-2.064-3.34-2.896l.232-7.141c-1.536-.755-3.145-1.361-4.803-1.804l-4.283 5.563c-1.55-.194-3.137-.206-4.725-.022l-4.363-5.577c-.807.21-1.61.462-2.409.756-.798.294-1.576.624-2.327.988l.296 7.075c-1.328.889-2.528 1.927-3.582 3.081l-6.868-1.458c-.975 1.413-1.807 2.917-2.484 4.487l4.805 5.287c-.379 1.416-.605 2.883-.662 4.369l-6.185 3.304c.172 1.745.519 3.494 1.056 5.226l7.115.967c.581 1.208 1.272 2.331 2.057 3.368l-2.621 6.542c1.321 1.317 2.771 2.482 4.323 3.479l6.072-3.848c1.071.477 2.184.866 3.326 1.15l2.209 6.763c1.87.188 3.773.173 5.678-.054l2.167-6.835c.534-.148 1.068-.317 1.598-.512.527-.195 1.044-.412 1.546-.646l6.082 3.798c1.599-1.063 3.055-2.285 4.356-3.641l-2.703-6.58c.685-.958 1.282-1.976 1.786-3.033l7.117-1.008c.535-1.766.883-3.593 1.035-5.452l-6.238-3.28c-.075-1.299-.277-2.602-.618-3.898Z"/></g><mask id="e" width="38" height="39" x="309" y="122" maskUnits="userSpaceOnUse" style="mask-type:luminance"><path fill="#fff" d="m309.092 133.189 27.712-10.203 10.14 27.539-27.712 10.204-10.14-27.54Z"/></mask><g mask="url(#e)"><path fill="url(#f)" d="M331.132 150.298c-4.53 1.668-9.56-.662-11.233-5.204-1.673-4.544.645-9.581 5.175-11.249 4.53-1.668 9.557.664 11.231 5.208 1.672 4.542-.643 9.577-5.173 11.245Zm7.842-11.051 2.705-3.022c-.404-.941-.896-1.819-1.462-2.632l-3.864.843c-.57-.615-1.202-1.164-1.885-1.634l.131-4.03c-.867-.427-1.775-.768-2.711-1.019l-2.419 3.142c-.874-.111-1.769-.116-2.666-.015l-2.463-3.147c-.454.12-.909.261-1.36.427-.451.166-.888.354-1.312.556l.166 3.994c-.75.505-1.426 1.089-2.022 1.741l-3.876-.825c-.55.799-1.02 1.647-1.404 2.535l2.713 2.982c-.214.801-.339 1.629-.374 2.467l-3.488 1.864c.096.986.291 1.973.594 2.951l4.016.547c.329.68.719 1.315 1.163 1.9l-1.481 3.694c.747.74 1.564 1.398 2.439 1.964l3.429-2.175c.603.271 1.231.489 1.875.649l1.248 3.819c1.055.104 2.13.098 3.205-.031l1.224-3.858c.301-.083.601-.18.9-.29.3-.111.591-.231.874-.363l3.434 2.143c.901-.599 1.722-1.291 2.457-2.054l-1.527-3.716c.387-.54.726-1.114 1.01-1.712l4.017-.567c.302-.999.497-2.029.583-3.077l-3.52-1.852c-.043-.732-.157-1.469-.349-2.199Z"/></g><path fill="url(#g)" d="m332.612 191.816-19.522 45.288 37.039 32.56-49.104-4.571-19.521 45.288-10.826-48.113-49.104-4.571 42.412-25.164-10.826-48.113 37.039 32.56 42.413-25.164Z"/><path fill="url(#h)" d="m101.821 27.2836 41.712 64.2311 73.977-19.8221-48.198 59.5194 41.713 64.231-71.5-27.447-48.1979 59.52 4.0082-76.482-71.4999-27.446 73.9771-19.823 4.0085-76.4814Z"/><path fill="url(#i)" d="m141.36 277.206 2.675 51.039 49.367 13.227-47.714 18.316 2.675 51.038-32.163-39.718-47.714 18.315 27.8355-42.863-32.1634-39.718 49.3669 13.227 27.835-42.863Z"/><mask id="j" width="194" height="263" x="98" y="168" maskUnits="userSpaceOnUse" style="mask-type:alpha"><path fill="#D9D9D9" d="M168.793 204.5V175l67.5-7c-.167 11.667 0 28.5 0 34.5 4.5 6.5 27 40 27.5 44s1 42 1 47.5c4.207 0 26.707.695 26.707 24.5 0 15-3 16-14.5 49-9.109 26.139-19.041 53-24.207 63h-82.789c-12.004 0-20.245.162-27.004-1.5-23.95-5.887-21.5-13.5-28.707-12-1.959.408-3-2.5-6.5-6.5-3.501-4-5-4.5-8.5005-8.5-3.5-4 1.0005-11.5 3.0005-16s1.21-15 2.71-18.5 31.29-58 33.79-63.5 7-21 6-36.5c-.473-7.326 1.166-29.167 0-38 1.833-2.833 5.51-6.7 8.71-9.5 3.2-2.8 11.79-13.333 15.29-15.5Z"/></mask><g mask="url(#j)"><g filter="url(#k)"><path fill="#F75D21" d="M289 290.5c0 49.429-40.071 89.5-89.5 89.5S110 339.929 110 290.5s40.071-89.5 89.5-89.5 89.5 40.071 89.5 89.5Z"/></g><g filter="url(#l)"><path fill="#F96A89" d="M374 172.5c0 49.429-40.071 89.5-89.5 89.5S195 221.929 195 172.5 235.071 83 284.5 83s89.5 40.071 89.5 89.5Z"/></g><g filter="url(#m)"><path fill="#F96A89" d="M374 396.5c0 49.429-40.071 89.5-89.5 89.5S195 445.929 195 396.5s40.071-89.5 89.5-89.5 89.5 40.071 89.5 89.5Z"/></g><g filter="url(#n)"><path fill="#FFD848" d="M195 255.5c0 49.429-40.071 89.5-89.5 89.5-49.4295 0-89.5-40.071-89.5-89.5S56.0705 166 105.5 166c49.429 0 89.5 40.071 89.5 89.5Z"/></g><g filter="url(#o)"><path fill="#60C6FF" d="M174 375c0 49.706-40.071 90-89.5 90C35.0705 465-5 424.706-5 375s40.0705-90 89.5-90c49.429 0 89.5 40.294 89.5 90Z"/></g></g><path fill="url(#p)" d="M168.809 176.203v28.1l13 31 5.3 37.4 15.4 34.7 14.1-32.9 7.6-39.2 12-31V168"/><mask id="q" width="153" height="151" x="124" y="48" maskUnits="userSpaceOnUse" style="mask-type:alpha"><path fill="#D9D9D9" fill-rule="evenodd" d="M190.695 83.7855c-4.736.371-9.196.7204-11.659.7204-2.674 0-5.443-1.3461-8.37-2.7693-2.119-1.0301-4.321-2.1006-6.63-2.7304-3.342-.9116-16.473-12.3495-26.484-21.0703-6.461-5.6289-11.624-10.1259-12.016-9.9297-1 .5-2.889 10.2455 0 22.4997.914 3.8768 1.737 8.6663 2.601 13.6979 1.923 11.1919 4.052 23.5812 7.846 29.7902 3.846 6.294 8.387 13.512 10.553 16.512 0 0 2.947 12.488 4.947 16.988 1.269 2.856 3.949 7.082 6.249 10.709 1.323 2.087 2.52 3.976 3.251 5.291.709 1.276 1.583 3.156 2.562 5.263 2.475 5.324 5.625 12.099 8.491 14.249 2.53 1.897 14 9.5 16 10.5 1.491.745 8.885 4.008 11.91 4.45l.001.055c.099 0 .208-.005.326-.017.094.008.182.012.263.012l.001-.044c3.024-.442 10.419-3.705 11.91-4.451 2-1 13.47-8.602 16-10.5 2.866-2.149 6.016-8.924 8.491-14.249.979-2.107 1.853-3.986 2.562-5.262.73-1.315 1.928-3.204 3.251-5.291 2.3-3.627 4.979-7.853 6.249-10.709 2-4.5 4.947-16.989 4.947-16.989 2.166-3 6.707-10.218 10.553-16.511 3.794-6.209 5.923-18.5987 7.846-29.7906.864-5.0316 1.687-9.8211 2.601-13.698 2.888-12.2541 1-21.9996 0-22.4996-.392-.1962-5.555 4.3008-12.017 9.9297-10.011 8.7208-23.141 20.1587-26.483 21.0703-2.31.6298-4.511 1.7003-6.63 2.7303-2.927 1.4233-5.696 2.7693-8.37 2.7693-2.463 0-6.923-.3493-11.659-.7203-2.596-.2034-5.276-.4134-7.755-.5757l.003-.2092c-.591.0269-1.208.0592-1.843.0958-.602-.0343-1.185-.0647-1.746-.0902l.002.198c-2.478.1624-5.158.3723-7.754.5757Z" clip-rule="evenodd"/></mask><g mask="url(#q)"><g filter="url(#r)"><path fill="#F75D21" d="M313.014 118.905c31.387 59.933 22.127 126.694-20.682 149.113-42.81 22.42-102.958-7.991-134.346-67.925-31.387-59.933-22.127-126.6934 20.682-149.113 42.81-22.4195 102.958 7.9915 134.346 67.925Z"/></g><g filter="url(#s)"><path fill="#F96A89" d="M290 71c0 22.6437-18.58 41-41.5 41S207 93.6437 207 71s18.58-41 41.5-41S290 48.3563 290 71Z"/></g><g filter="url(#t)"><path fill="#FFD848" d="M196 79c0 53.572-35.37 97-79 97-43.6305 0-79-43.428-79-97 0-53.5716 35.3695-97 79-97 43.63 0 79 43.4284 79 97Z"/></g><g filter="url(#u)"><path fill="#60C6FF" d="M218.177 248.028c-11.523 14.475-45.559 6.55-76.021-17.7-30.462-24.251-45.8144-55.644-34.291-70.119 11.523-14.475 45.559-6.55 76.021 17.701 30.462 24.251 45.814 55.644 34.291 70.118Z"/></g></g><path fill="#fff" stroke="url(#v)" stroke-miterlimit="10" d="M156.009 138.603s7.491-4.246 13.1-2c6.89 2.758 11.5 9.4 14.4 13.9 2.9 4.5 3.4 6.5 3.4 6.5s-9.1.6-13.7-1C166.5 153.669 161.1 147.5 159 145.5c-1.8-2.2-2.991-6.897-2.991-6.897Z"/><path fill="url(#w)" d="M192.5 167.803h16.109s-3.8 2.6-5 4.2c-1.1 1.7-3.009 4.497-3.109 5.497-.1 1-.5-3-3.5-5.497-1-2.003-4.5-4.2-4.5-4.2Z"/><path fill="url(#x)" d="m253.109 271.402-5.4 32.9-16.3 99.8s-1.3 6.4-1.3 7.4 9.7-2 13.3-1.3c3.6.8 7.5 3.1 7.5 7.7s-2.6 13.3-2.6 13.3-1.8-.1-4.6-.3c-8.5-.5-26.509.4-28.709 0-2.8-.5-4.791-7.6-6.091-14.5-1.3-6.9 3.6-90.9 3.6-90.9"/><path stroke="url(#y)" stroke-miterlimit="10" d="m253.109 271.402-5.4 32.9-16.3 99.8s-1.3 6.4-1.3 7.4 9.7-2 13.3-1.3c3.6.8 7.5 3.1 7.5 7.7s-2.6 13.3-2.6 13.3-1.8-.1-4.6-.3c-8.5-.5-26.509.4-28.709 0-2.8-.5-4.791-7.6-6.091-14.5-1.3-6.9 3.6-90.9 3.6-90.9"/><path stroke="url(#z)" stroke-miterlimit="10" d="M248.8 305.22s2-.9 9.1-7.3c7.1-6.4 18.4-4.8 27.3 3.6 8.9 8.5 6.1 18.2 6.1 22C291.3 327.42 253 431 253 431h-5"/><path stroke="url(#A)" stroke-miterlimit="10" d="M168.809 204.303s-22.8 22.7-24 25.3c-1.2 2.6-.8 39.3 0 44.2.8 4.9-2.3 25.8-11.2 39.8-8.9 14-27.8 51.1-29.4 58-1.5 6.9.5 8.9-3.3 17.1-3.8001 8.2-2.109 10.299-1.909 11.799.3 1.5 1.409 4.001 7.309 8.901 5.9 4.9 3.3 7.7 10 7.7 6.6 0 10.2-6.1 10.2-6.1l11-37.5s-6.9-5.1-3.8-13.3c3.1-8.2 24-29.6 27.1-31.9 3.1-2.3 17.4-39.3 17.4-39.3"/><path fill="url(#B)" d="M157.523 95.5961c6 11.9999-1.167 25.6669-5.5 30.9999-1.167 0-3.9-.5-5.5-2.5-2-2.501-5.5-10-7.5-14s-8-35.4999-10.5-43.9999-1.5-11.5 0-9.5 21.5 24 29 39Z"/><path fill="url(#C)" d="M244.296 95.5961c-6 11.9999 1.166 25.6669 5.5 30.9999 1.166 0 3.9-.5 5.5-2.5 2-2.501 5.5-10 7.5-14s8-35.4999 10.5-43.9999 1.5-11.5 0-9.5-21.5 24-29 39Z"/><circle cx="143" cy="402" r="31" fill="url(#D)" transform="rotate(-12.086 143 402)"/><g clip-path="url(#E)"><path fill="#B5B1B4" d="M141.752 137.977c0 .981.091 1.698.273 2.159.182.461.464.69.847.69.367 0 .636-.217.809-.649.178-.433.266-1.1.266-2.006 0-.692-.044-1.253-.135-1.68-.09-.432-.216-.739-.376-.927-.163-.182-.357-.279-.586-.279-.207 0-.38.062-.521.188-.141.122-.254.301-.338.529-.088.232-.148.514-.185.847-.038.335-.054.711-.054 1.128Zm1.048 3.231c-.653 0-1.132-.254-1.449-.768-.32-.511-.48-1.288-.48-2.328 0-.552.051-1.031.148-1.433.097-.407.235-.739.414-1.003.172-.266.385-.46.63-.586.251-.125.517-.188.809-.188.658 0 1.151.254 1.473.762.32.508.483 1.279.483 2.31 0 1.062-.172 1.868-.517 2.416-.345.545-.847.818-1.511.818Zm.74 14.396c0 .201.012.358.034.458.022.103.063.188.122.254.054.066.138.113.245.15.11.038.248.063.411.085.163.016.379.031.649.037v.383h-3.866v-.383c.385-.015.661-.04.831-.072.163-.028.288-.072.376-.131.088-.06.15-.144.191-.251.038-.11.06-.282.06-.53v-4.24c0-.138-.025-.238-.072-.304-.05-.063-.119-.097-.217-.097-.109 0-.269.056-.473.172-.204.116-.461.273-.765.477l-.229-.405 2.446-1.457h.291c-.025.335-.034.799-.034 1.392v4.462Zm-1.91 13.095c0 1.094.097 1.896.304 2.407.201.508.514.765.941.765.407 0 .709-.239.903-.721.197-.48.295-1.226.295-2.235 0-.768-.051-1.394-.151-1.871-.1-.479-.241-.821-.42-1.028-.179-.21-.398-.313-.652-.313-.229 0-.423.069-.583.207-.154.138-.279.335-.374.595-.097.254-.166.567-.206.94-.041.37-.057.79-.057 1.254Zm1.163 3.598c-.724 0-1.263-.282-1.614-.853-.355-.57-.53-1.435-.53-2.595 0-.614.053-1.147.16-1.598.109-.451.263-.818.457-1.113.201-.294.436-.51.709-.651.276-.141.577-.214.9-.214.734 0 1.282.286 1.64.853.357.564.536 1.423.536 2.57 0 1.184-.191 2.081-.574 2.689-.386.608-.947.912-1.684.912Zm-1.564 11.74c0 1.445.138 2.51.404 3.187.27.68.687 1.019 1.251 1.019.54 0 .935-.323 1.198-.956.26-.639.389-1.627.389-2.965 0-1.022-.069-1.846-.201-2.482-.135-.63-.32-1.084-.558-1.363-.235-.273-.527-.411-.862-.411-.304 0-.561.091-.768.273-.21.185-.373.442-.499.786-.128.342-.219.759-.27 1.251-.056.489-.084 1.04-.084 1.661Zm1.549 4.767c-.96 0-1.675-.373-2.142-1.128-.47-.756-.702-1.903-.702-3.439 0-.821.069-1.523.213-2.121.144-.593.348-1.085.608-1.473.261-.389.571-.677.935-.865.367-.185.762-.276 1.194-.276.972 0 1.697.373 2.17 1.122.477.752.715 1.887.715 3.404 0 1.576-.254 2.764-.762 3.569-.508.806-1.254 1.207-2.229 1.207Zm-1.151 10.627c0 1.093.1 1.896.304 2.41.204.511.517.768.944.768.407 0 .708-.245.903-.724.197-.483.298-1.226.298-2.238 0-.771-.054-1.395-.154-1.874-.1-.48-.241-.821-.42-1.031-.179-.207-.398-.311-.652-.311-.229 0-.424.069-.583.204-.157.138-.28.339-.374.595-.097.261-.166.574-.207.947-.04.367-.059.787-.059 1.254Zm1.166 3.604c-.724 0-1.263-.285-1.618-.856-.354-.57-.529-1.435-.529-2.595 0-.62.056-1.15.163-1.601.109-.452.26-.825.457-1.119.195-.292.433-.508.709-.652.273-.138.577-.21.9-.21.734 0 1.282.285 1.64.852.363.568.539 1.423.539 2.573 0 1.188-.191 2.085-.577 2.693-.382.611-.947.915-1.684.915Zm-1.89 11.712c0 1.74.163 3.018.486 3.83.323.815.824 1.222 1.502 1.222.646 0 1.125-.382 1.436-1.15.313-.764.467-1.952.467-3.557 0-1.232-.078-2.225-.238-2.983-.16-.762-.383-1.311-.668-1.64-.289-.332-.634-.495-1.038-.495-.367 0-.677.11-.928.326-.245.22-.445.533-.596.947-.154.41-.263.912-.326 1.501-.063.589-.097 1.253-.097 1.999Zm1.859 5.733c-1.154 0-2.01-.452-2.574-1.361-.568-.908-.847-2.287-.847-4.133 0-.985.085-1.831.261-2.548.172-.712.417-1.307.73-1.771.311-.467.687-.812 1.123-1.038.442-.225.918-.338 1.436-.338 1.169 0 2.038.454 2.612 1.354.57.903.856 2.269.856 4.09 0 1.893-.308 3.322-.919 4.293-.612.969-1.502 1.452-2.678 1.452Zm.916 12.46c0 .251.018.436.043.564.029.126.076.229.148.307.069.079.172.138.304.185.135.044.298.079.499.101.2.025.464.04.796.05v.467h-4.735v-.467c.474-.022.812-.053 1.016-.088.201-.038.358-.091.464-.163.107-.072.185-.175.232-.307.05-.135.076-.348.076-.649v-5.19c0-.169-.032-.297-.088-.376-.063-.078-.148-.119-.264-.119-.138 0-.332.072-.583.213-.254.138-.564.332-.937.583l-.279-.495 2.997-1.786h.351c-.025.41-.04.977-.04 1.704v5.466Zm-20.776 74.033c0 1.347.128 2.331.376 2.961.251.627.637.941 1.16.941.499 0 .869-.292 1.11-.884.242-.593.364-1.508.364-2.752 0-.95-.063-1.717-.185-2.303-.126-.587-.298-1.006-.521-1.263-.216-.257-.486-.383-.796-.383-.289 0-.527.082-.718.251-.191.172-.345.414-.464.733-.116.317-.198.702-.251 1.157-.047.457-.075.968-.075 1.542Zm1.439 4.431c-.891 0-1.555-.351-1.991-1.05-.433-.705-.652-1.764-.652-3.193 0-.762.069-1.417.2-1.965.135-.555.323-1.013.565-1.373.241-.364.53-.63.865-.799.339-.176.712-.26 1.11-.26.903 0 1.574.348 2.016 1.043.439.699.662 1.749.662 3.163 0 1.457-.235 2.56-.706 3.312-.476.749-1.166 1.122-2.069 1.122Zm.912 13.787c0 .254.013.445.041.571.028.131.079.235.151.313.069.085.175.144.31.191.135.047.304.082.508.104.204.025.474.041.809.05v.476h-4.826v-.476c.486-.022.831-.05 1.035-.088.21-.037.367-.091.477-.166.106-.075.185-.179.238-.313.047-.135.075-.358.075-.662v-5.29c0-.175-.031-.301-.094-.382-.059-.079-.15-.119-.266-.119-.138 0-.336.069-.593.213-.257.144-.574.341-.953.595l-.285-.501 3.05-1.824h.361c-.025.42-.038.996-.038 1.736v5.572Zm-18.348-184.043c0 .282.015.499.047.64.034.144.091.26.172.354.078.088.194.16.348.21.151.053.342.094.571.119.232.028.536.044.909.056v.536h-5.421v-.536c.542-.025.928-.059 1.16-.1.232-.041.411-.107.533-.188.122-.082.213-.201.27-.351.056-.15.081-.398.081-.74v-5.951c0-.195-.034-.339-.1-.43-.069-.09-.17-.134-.301-.134-.157 0-.38.078-.668.238-.289.166-.643.385-1.072.671l-.323-.568 3.436-2.046h.401c-.028.47-.043 1.122-.043 1.955v6.265Zm-1.988 12.197c0 .937.088 1.626.26 2.062.172.436.442.658.809.658.348 0 .608-.207.774-.62.17-.411.254-1.047.254-1.915 0-.658-.044-1.194-.131-1.605-.088-.41-.207-.705-.361-.881-.154-.178-.339-.266-.558-.266-.198 0-.364.056-.499.172-.131.123-.241.292-.323.511-.081.223-.141.492-.175.809-.031.316-.05.677-.05 1.075Zm1 3.087c-.621 0-1.082-.245-1.386-.734-.304-.488-.455-1.231-.455-2.225 0-.526.044-.984.142-1.366.09-.389.222-.708.391-.956.167-.254.37-.439.606-.561.235-.119.492-.182.771-.182.627 0 1.1.245 1.408.73.307.486.461 1.22.461 2.204 0 1.018-.166 1.786-.496 2.306-.329.524-.809.784-1.442.784Zm.592 14.012c0 .154.007.273.025.351.019.079.051.141.091.191.044.047.11.085.192.116.081.029.188.047.31.066.126.013.292.022.499.025v.295h-2.957v-.295c.295-.012.508-.028.633-.053.126-.022.223-.053.292-.103.063-.044.116-.11.147-.192.028-.081.044-.213.044-.401v-3.24c0-.11-.019-.188-.056-.235-.038-.051-.091-.076-.163-.076-.085 0-.207.044-.364.132-.16.091-.354.21-.586.367l-.173-.311 1.872-1.112h.216c-.015.254-.022.611-.022 1.059v3.416Zm-2.505 13.568c0 1.755.163 3.037.489 3.858.326.818.831 1.229 1.515 1.229.646 0 1.132-.382 1.445-1.153.317-.771.474-1.969.474-3.586 0-1.235-.085-2.241-.245-3.005-.16-.765-.386-1.314-.671-1.649-.291-.335-.636-.498-1.047-.498-.37 0-.681.11-.931.329-.248.222-.452.539-.606.953-.153.413-.26.918-.326 1.51-.065.596-.097 1.263-.097 2.012Zm1.872 5.773c-1.16 0-2.025-.457-2.596-1.369-.564-.915-.85-2.301-.85-4.162 0-.991.091-1.843.264-2.564.175-.721.42-1.313.733-1.786.314-.471.693-.818 1.135-1.044.439-.226.922-.339 1.446-.339 1.172 0 2.05.455 2.627 1.364.574.909.863 2.281.863 4.121 0 1.902-.308 3.341-.922 4.319-.615.971-1.518 1.46-2.7 1.46Zm.847 12.166c0 .223.012.395.037.508.025.116.069.207.135.279.063.072.157.128.276.169.119.041.27.069.451.091.182.025.424.038.719.044v.423h-4.287v-.423c.43-.019.737-.044.919-.079.182-.034.323-.081.423-.147.094-.066.166-.16.21-.279.044-.119.066-.313.066-.586v-4.707c0-.154-.028-.267-.081-.335-.054-.073-.135-.11-.235-.11-.126 0-.301.062-.53.191-.229.128-.511.304-.847.53l-.257-.449 2.718-1.62h.317c-.022.373-.034.89-.034 1.545v4.955Zm-1.543 12.877c0 .702.066 1.219.194 1.548.129.33.333.492.609.492.26 0 .454-.153.58-.463.125-.307.188-.79.188-1.439 0-.495-.031-.896-.097-1.203-.063-.307-.157-.527-.27-.662-.116-.134-.254-.2-.42-.2-.147 0-.273.047-.373.135-.101.084-.182.213-.245.379-.059.166-.1.366-.128.608-.029.238-.038.507-.038.805Zm.749 2.316c-.467 0-.812-.181-1.041-.551-.228-.367-.338-.922-.338-1.668 0-.395.031-.739.103-1.031.069-.285.17-.523.295-.711.125-.191.276-.329.455-.42.175-.091.367-.138.58-.138.47 0 .821.182 1.05.545.232.367.348.919.348 1.655 0 .765-.122 1.341-.37 1.733-.248.389-.608.586-1.082.586Zm1.038 16.417c0 .304.016.533.05.687.035.153.094.282.182.376.085.1.21.175.37.229.166.053.367.097.612.125.247.028.57.05.975.059v.574h-5.801v-.574c.583-.028.994-.062 1.245-.106.248-.044.436-.11.571-.201.128-.091.225-.213.285-.376.06-.16.091-.426.091-.793v-6.362c0-.21-.038-.363-.11-.457-.075-.101-.182-.148-.323-.148-.166 0-.404.088-.712.26-.31.173-.693.408-1.147.712l-.345-.605 3.672-2.188h.432c-.031.502-.047 1.201-.047 2.088v6.7Zm-2.097 11.979c0 .978.091 1.699.272 2.156.182.461.464.69.844.69.367 0 .636-.216.809-.649.179-.429.266-1.097.266-2.003 0-.689-.044-1.253-.135-1.679-.09-.427-.216-.737-.376-.922-.16-.188-.357-.282-.586-.282-.207 0-.38.063-.521.185-.141.125-.254.301-.338.533-.085.232-.148.514-.182.846-.038.332-.053.708-.053 1.125Zm1.044 3.228c-.649 0-1.129-.254-1.449-.768-.317-.507-.476-1.285-.476-2.325 0-.552.05-1.031.147-1.432.097-.405.235-.737.408-1 .178-.263.391-.458.636-.586.245-.126.514-.188.806-.188.658 0 1.151.254 1.47.761.323.511.483 1.279.483 2.307 0 1.066-.169 1.868-.514 2.413-.345.546-.85.818-1.511.818Zm.724 14.345c0 .197.009.345.034.445.019.1.063.182.116.244.054.063.138.113.242.148.107.037.235.059.398.081.16.016.37.032.63.038v.373h-3.762v-.373c.379-.016.646-.038.806-.069.163-.028.285-.072.373-.129.081-.059.144-.141.182-.244.037-.104.059-.279.059-.514v-4.131c0-.134-.025-.232-.072-.297-.047-.063-.116-.091-.207-.091-.11 0-.263.053-.464.166-.201.113-.448.266-.743.464l-.226-.392 2.386-1.42h.279c-.022.323-.031.774-.031 1.351v4.35Z"/><mask id="F" width="7" height="12" x="84" y="163" maskUnits="userSpaceOnUse" style="mask-type:luminance"><path fill="#fff" d="M84.4011 163.785h6.3118v10.43h-6.3118v-10.43Z"/></mask><g mask="url(#F)"><path fill="#B5B1B4" d="M85.7901 168.662c0 1.551.1443 2.686.4296 3.41.2885.724.7369 1.087 1.3357 1.087.577 0 1.0003-.341 1.2824-1.021.276-.684.4171-1.737.4171-3.169 0-1.094-.0721-1.977-.2164-2.651-.1411-.677-.3386-1.166-.5957-1.461-.2509-.291-.5581-.438-.9219-.438-.3261 0-.5988.094-.8215.291-.2226.194-.4013.476-.5361.843-.1349.364-.2289.809-.2885 1.335-.0564.524-.0847 1.116-.0847 1.774Zm1.6525 5.102c-1.0254 0-1.7873-.404-2.289-1.209-.5048-.809-.7525-2.034-.7525-3.677 0-.874.0784-1.629.232-2.269.1537-.633.37-1.159.6491-1.576.2759-.414.6114-.721 1.0002-.922.3888-.197.8121-.3 1.273-.3 1.041 0 1.8186.404 2.3266 1.206.5048.802.7619 2.012.7619 3.639 0 1.683-.2728 2.952-.8184 3.817-.5455.859-1.3357 1.291-2.3829 1.291Z"/></g><path fill="#B5B1B4" d="M88.1322 186.061c0 .176.0126.314.0314.401.0219.088.0564.163.1066.22.0502.056.1223.103.2195.131.0909.035.2101.06.3543.076.1442.015.3355.028.5706.034v.336h-3.3894v-.336c.3386-.016.58-.037.7274-.059.1442-.029.2571-.069.3324-.123.0752-.05.1317-.122.1662-.216.0344-.097.0533-.251.0533-.464v-3.717c0-.122-.022-.21-.0628-.266-.0438-.056-.1066-.085-.1881-.085-.0972 0-.2383.047-.4201.151-.1756.1-.4014.238-.6648.417l-.2006-.351 2.1446-1.282h.2477c-.0156.294-.0282.702-.0282 1.219v3.914Zm-1.6303 13.386c0 .912.0847 1.58.2509 2.012.1724.427.4358.637.7901.637.3386 0 .5895-.201.7557-.599.163-.404.2445-1.025.2445-1.871 0-.643-.0407-1.166-.1254-1.564-.0878-.401-.2038-.683-.3512-.859-.1505-.172-.3323-.263-.5455-.263-.1944 0-.3544.06-.4829.176-.1317.112-.2352.279-.3198.495-.0784.216-.1349.476-.1662.79-.0345.307-.0502.658-.0502 1.046Zm.972 3.009c-.6051 0-1.0535-.238-1.3482-.718-.2979-.473-.4453-1.194-.4453-2.165 0-.514.0471-.962.138-1.339.0909-.376.2195-.686.3825-.927.1631-.245.3575-.426.5895-.546.2289-.116.4797-.175.7525-.175.6146 0 1.0692.235 1.3702.711.2979.47.4484 1.188.4484 2.144 0 .994-.1599 1.739-.4797 2.25-.323.508-.7902.765-1.4079.765Zm-1.1038 12.349c0 1.024.0972 1.78.2884 2.259.1913.483.4892.721.8874.721.3794 0 .6616-.226.8466-.68.185-.448.2759-1.15.2759-2.1 0-.724-.047-1.31-.138-1.761-.0972-.445-.2289-.768-.3982-.965-.1662-.195-.37-.292-.6114-.292-.2163 0-.3982.066-.5456.191-.1473.132-.2665.32-.3543.561-.0878.242-.1536.536-.1912.884-.0377.348-.0596.743-.0596 1.182Zm1.1005 3.384c-.6835 0-1.1883-.266-1.5238-.802-.3292-.536-.4986-1.351-.4986-2.441 0-.58.0565-1.078.1537-1.505.1035-.423.2477-.771.4327-1.046.1818-.276.4045-.477.6647-.612.2603-.131.5393-.197.8466-.197.6898 0 1.2009.266 1.5395.799.3387.533.5048 1.338.5048 2.413 0 1.116-.1787 1.959-.5393 2.533-.3606.57-.8873.858-1.5803.858Z"/><mask id="G" width="7" height="12" x="84" y="224" maskUnits="userSpaceOnUse" style="mask-type:luminance"><path fill="#fff" d="M84.4011 224.762h6.3118v10.43h-6.3118v-10.43Z"/></mask><g mask="url(#G)"><path fill="#B5B1B4" d="M85.8341 230.131c0 1.511.1411 2.617.4201 3.319.2822.708.7149 1.059 1.3013 1.059.5612 0 .9782-.332 1.2479-.993.2696-.664.4045-1.692.4045-3.087 0-1.062-.069-1.924-.207-2.583-.1411-.661-.3323-1.131-.5801-1.419-.2508-.285-.5455-.43-.8998-.43-.3199 0-.5864.098-.8027.286-.2132.191-.3888.463-.5174.818-.1348.354-.2257.789-.2822 1.3-.0564.514-.0846 1.091-.0846 1.73Zm1.6085 4.968c-.9971 0-1.7402-.392-2.2294-1.176-.4891-.789-.7305-1.98-.7305-3.582 0-.849.0752-1.589.2257-2.206.1505-.621.3575-1.135.6303-1.536.2696-.407.5957-.708.9751-.902.3794-.192.7964-.289 1.2417-.289 1.0159 0 1.7684.392 2.2638 1.172.4923.781.7431 1.965.7431 3.545 0 1.639-.2665 2.877-.7964 3.714-.5299.84-1.3013 1.26-2.3234 1.26Z"/></g><path fill="#B5B1B4" d="M86.3232 245.533c0 1.069.1004 1.855.301 2.354.1976.501.5049.752.9219.752.395 0 .6929-.235.8842-.708.1912-.47.2884-1.198.2884-2.188 0-.755-.0501-1.366-.1473-1.833-.1004-.467-.2352-.806-.4108-1.006-.1787-.207-.3888-.307-.6396-.307-.2258 0-.4139.068-.5707.203-.1536.135-.2728.329-.3668.58-.0941.254-.1599.561-.1976.921-.0407.364-.0627.775-.0627 1.232Zm1.1445 3.526c-.7118 0-1.2354-.279-1.5834-.837-.3449-.561-.5205-1.407-.5205-2.545 0-.601.0533-1.125.1599-1.56.1066-.442.2571-.809.4484-1.094.1944-.289.4232-.499.6929-.64.2697-.134.5644-.203.8811-.203.7211 0 1.2542.275 1.6053.833.3512.552.5299 1.392.5299 2.517 0 1.16-.1881 2.04-.5643 2.636-.3794.595-.9281.893-1.6493.893Zm.8121 14.354c0 .226.0094.392.0376.508.0251.113.069.204.1348.276.0596.072.1537.128.2728.169.1191.041.2697.072.4484.091.185.022.4264.038.7211.044v.423h-4.2799v-.423c.4296-.019.7337-.044.9187-.079.1818-.031.3229-.081.417-.147.0972-.063.1693-.16.2132-.279.0439-.119.0659-.313.0659-.583v-4.698c0-.153-.0251-.266-.0784-.338-.0565-.072-.1348-.107-.2415-.107-.1222 0-.2947.063-.5236.191-.2289.126-.5111.301-.8466.527l-.2571-.448 2.7122-1.614h.3199c-.0251.373-.0345.884-.0345 1.539v4.948Zm-1.7059 12.871c0 .846.0784 1.47.2352 1.868.1568.395.4013.592.7337.592.3136 0 .5456-.185.6992-.558.1537-.373.2289-.953.2289-1.736 0-.596-.0407-1.084-.1191-1.454-.0753-.373-.185-.64-.323-.799-.1411-.16-.3073-.242-.5079-.242-.1788 0-.3293.054-.4484.16-.1254.107-.2195.26-.2948.461-.0752.2-.1254.445-.1567.73-.0345.288-.0471.614-.0471.978Zm.9031 2.795c-.5582 0-.9783-.222-1.2511-.664-.2791-.442-.4139-1.116-.4139-2.015 0-.48.0408-.897.1254-1.244.0847-.348.2007-.633.3543-.862.1537-.229.3355-.398.5519-.508.2101-.107.4452-.163.6992-.163.5707 0 .994.219 1.2699.658.279.442.4201 1.107.4201 1.997 0 .924-.1505 1.617-.4483 2.09-.2948.473-.7337.711-1.3075.711Z"/><mask id="H" width="8" height="13" x="84" y="285" maskUnits="userSpaceOnUse" style="mask-type:luminance"><path fill="#fff" d="M84.4011 285.736h7.1145v12.035h-7.1145v-12.035Z"/></mask><g mask="url(#H)"><path fill="#B5B1B4" d="M88.5399 295.082c0 .311.0157.543.0502.699.0344.157.0972.286.1849.383.0847.1.2133.175.3794.232.1631.056.3732.1.6209.128.2508.025.58.047.9877.056v.583h-5.8948v-.583c.5926-.021 1.0128-.059 1.2636-.106.254-.044.4484-.113.5801-.204.1348-.088.2289-.219.2916-.382.0596-.163.0909-.433.0909-.806v-6.465c0-.216-.0376-.37-.1129-.47-.0752-.097-.1849-.144-.326-.144-.1725 0-.4108.084-.7243.26-.3136.175-.7024.417-1.1665.724l-.3511-.615 3.7343-2.222h.439c-.0345.508-.047 1.216-.047 2.122v6.81Z"/></g><mask id="I" width="7" height="12" x="84" y="301" maskUnits="userSpaceOnUse" style="mask-type:luminance"><path fill="#fff" d="M84.4011 301.783h6.3118v10.43h-6.3118v-10.43Z"/></mask><g mask="url(#I)"><path fill="#B5B1B4" d="M85.8373 306.964c0 1.501.1411 2.604.4201 3.312.2822.702.7118 1.05 1.2981 1.05.5613 0 .9752-.326 1.2448-.99.2697-.661.4014-1.689.4014-3.075 0-1.062-.069-1.924-.2038-2.579-.1411-.658-.3324-1.128-.5801-1.417-.2477-.285-.5425-.426-.8968-.426-.3166 0-.5832.091-.7964.282-.2163.188-.3919.464-.5205.818-.1317.354-.2257.784-.279 1.298-.0596.507-.0878 1.084-.0878 1.727Zm1.6085 4.955c-.9971 0-1.7402-.395-2.2262-1.179-.486-.783-.7306-1.974-.7306-3.573 0-.846.0753-1.579.2258-2.197.1505-.617.3574-1.131.6302-1.532.2697-.404.5926-.705.972-.9.3794-.191.7933-.288 1.2385-.288 1.0128 0 1.7622.389 2.2576 1.169.4923.78.74 1.956.74 3.535 0 1.636-.2634 2.871-.7902 3.708-.5299.837-1.3012 1.257-2.3171 1.257Z"/></g><path fill="#B5B1B4" d="M124.887 139.483c0 .134.006.232.025.301.012.069.04.125.078.166.038.047.091.075.163.103.072.025.163.041.27.053.109.013.254.022.429.025v.254h-2.561v-.254c.257-.009.442-.028.551-.043.11-.022.195-.051.251-.088.06-.041.101-.097.129-.169.025-.073.037-.188.037-.348v-2.808c0-.094-.015-.163-.05-.207-.028-.041-.078-.06-.138-.06-.075 0-.182.038-.319.113-.135.078-.301.179-.505.313l-.151-.266 1.621-.968h.192c-.016.222-.022.529-.022.924v2.959Zm.031 15.48c0 .144.009.254.028.329.013.072.044.132.085.179.041.043.097.081.176.106.075.025.175.047.291.06.116.012.27.025.461.028v.273h-2.756v-.273c.276-.013.47-.028.593-.05.119-.022.207-.054.269-.094.06-.044.107-.104.135-.182.028-.075.044-.201.044-.376v-3.025c0-.1-.019-.172-.053-.219-.035-.047-.085-.069-.151-.069-.081 0-.194.041-.342.122-.147.085-.326.198-.542.342l-.166-.288 1.746-1.041h.204c-.013.238-.022.571-.022.994v3.184Zm-1.966 13.72c0 1.304.122 2.256.364 2.864.238.612.614.916 1.119.916.486 0 .844-.289 1.076-.862.238-.574.354-1.458.354-2.661 0-.918-.063-1.661-.182-2.232-.119-.57-.288-.977-.499-1.225-.216-.248-.476-.37-.774-.37-.279 0-.511.082-.693.245-.185.163-.335.398-.448.708-.116.307-.198.68-.248 1.125-.047.439-.069.937-.069 1.492Zm1.389 4.287c-.862 0-1.502-.338-1.925-1.018-.42-.68-.634-1.712-.634-3.09 0-.734.066-1.37.195-1.906.132-.536.313-.975.545-1.326.232-.348.518-.608.841-.777.329-.166.686-.248 1.072-.248.875 0 1.527.336 1.954 1.01.426.677.642 1.695.642 3.058 0 1.414-.229 2.486-.686 3.21-.458.724-1.123 1.087-2.004 1.087Zm-1.245 11.09c0 1.172.11 2.031.326 2.582.22.549.555.821 1.01.821.439 0 .759-.257.972-.774.21-.514.317-1.313.317-2.397 0-.825-.057-1.498-.163-2.009-.107-.514-.257-.881-.452-1.103-.191-.223-.423-.336-.696-.336-.251 0-.458.076-.627.223-.166.147-.301.357-.401.633-.104.282-.179.617-.22 1.015-.044.395-.066.843-.066 1.345Zm1.251 3.861c-.774 0-1.354-.304-1.734-.915-.379-.614-.567-1.539-.567-2.786 0-.662.056-1.232.175-1.712.117-.482.28-.883.49-1.197.21-.313.461-.548.758-.699.295-.15.615-.225.963-.225.79 0 1.376.304 1.762.912.383.608.577 1.526.577 2.755 0 1.272-.207 2.237-.618 2.889-.413.655-1.012.978-1.806.978Zm.574 13.15c0 .142.006.251.025.326.016.073.044.135.085.179.041.047.1.082.175.11.079.025.179.044.295.059.116.016.273.022.464.029v.272H123.2v-.272c.276-.013.47-.032.589-.051.123-.022.21-.053.276-.097.06-.041.104-.103.135-.182.028-.075.041-.2.041-.373v-3.04c0-.1-.016-.172-.05-.219-.035-.044-.085-.069-.154-.069-.078 0-.194.044-.342.125-.147.082-.329.198-.545.342l-.167-.288 1.753-1.047h.21c-.019.241-.025.574-.025.997v3.199Zm-1.448 13.748c0 .834.078 1.448.232 1.84.156.392.398.586.721.586.31 0 .542-.185.693-.552.147-.366.222-.937.222-1.708 0-.592-.037-1.068-.113-1.435-.078-.364-.185-.627-.319-.784-.142-.159-.305-.238-.499-.238-.179 0-.329.05-.445.157-.119.103-.22.254-.292.454-.069.198-.125.436-.157.718-.028.285-.043.605-.043.962Zm.89 2.755c-.552 0-.966-.219-1.235-.658-.27-.436-.405-1.094-.405-1.981 0-.473.044-.877.126-1.222.081-.345.197-.63.348-.856.15-.222.332-.388.542-.498.21-.107.439-.16.687-.16.564 0 .981.22 1.254.652.276.429.414 1.084.414 1.962 0 .909-.148 1.595-.442 2.059-.295.47-.725.702-1.289.702Zm-1.593 12.561c0 1.464.135 2.536.411 3.222.27.683.693 1.028 1.257 1.028.549 0 .95-.326 1.214-.969.26-.642.392-1.642.392-2.993 0-1.031-.069-1.867-.201-2.51-.138-.636-.323-1.097-.564-1.376-.239-.279-.527-.42-.869-.42-.314 0-.571.094-.781.279-.207.182-.379.448-.505.793-.128.345-.219.771-.272 1.266-.054.492-.082 1.053-.082 1.68Zm1.565 4.823c-.972 0-1.697-.382-2.167-1.147-.473-.761-.709-1.924-.709-3.475 0-.828.073-1.542.217-2.141.144-.602.348-1.1.611-1.492.264-.395.58-.683.947-.871.37-.191.771-.285 1.204-.285.985 0 1.718.379 2.201 1.138.477.758.721 1.905.721 3.441 0 1.592-.26 2.792-.774 3.607-.514.815-1.267 1.225-2.251 1.225Zm1.044 13.867c0 .294.016.514.05.664.031.147.091.27.176.364.081.094.204.166.36.222.157.05.355.091.593.122.238.025.552.044.941.054v.557h-5.616v-.557c.561-.022.966-.057 1.204-.101.241-.044.423-.106.555-.197.125-.085.216-.204.276-.364.056-.153.084-.41.084-.764v-6.165c0-.204-.034-.351-.106-.445-.072-.094-.173-.141-.311-.141-.159 0-.391.084-.692.254-.298.163-.665.395-1.11.689l-.333-.586 3.556-2.119h.42c-.031.486-.047 1.157-.047 2.022v6.491Zm-.066 15.131c0 .272.019.479.047.617.031.138.088.251.163.338.079.085.191.154.333.204.147.05.332.088.551.113.223.025.515.041.878.053v.514h-5.214v-.514c.52-.025.894-.056 1.116-.097.226-.037.395-.097.511-.175.119-.085.204-.198.257-.342.054-.144.082-.382.082-.711v-5.723c0-.188-.031-.323-.1-.414-.063-.084-.16-.128-.286-.128-.15 0-.367.078-.643.232-.279.156-.62.369-1.031.642l-.31-.542 3.301-1.968h.389c-.028.451-.044 1.075-.044 1.874v6.027Zm-.326 14.175c0 .163.006.291.025.373.019.085.053.154.1.207.044.053.113.094.201.125.091.028.201.053.336.066.131.019.31.028.53.031v.314h-3.164v-.314c.32-.012.542-.031.68-.056.132-.025.239-.06.308-.11.072-.047.125-.116.156-.207.035-.084.05-.232.05-.429v-3.472c0-.116-.018-.198-.059-.251-.041-.053-.1-.079-.176-.079-.091 0-.222.047-.389.141-.169.094-.379.223-.627.392l-.188-.332 2.004-1.194h.235c-.016.273-.022.655-.022 1.138v3.657Zm-2.386 13.454c0 1.62.147 2.805.448 3.56.301.752.765 1.132 1.392 1.132.602 0 1.048-.355 1.336-1.066.292-.711.439-1.811.439-3.303 0-1.141-.075-2.062-.226-2.771-.147-.705-.354-1.21-.617-1.523-.267-.301-.59-.457-.963-.457-.345 0-.63.1-.862.304-.229.203-.417.495-.555.877-.144.382-.245.849-.301 1.395-.063.548-.091 1.162-.091 1.852Zm1.724 5.325c-1.072 0-1.865-.42-2.389-1.263-.523-.843-.784-2.122-.784-3.836 0-.916.082-1.699.242-2.367.16-.661.385-1.209.677-1.645.289-.433.637-.752 1.044-.962.405-.207.85-.314 1.326-.314 1.088 0 1.897.42 2.427 1.257.533.84.794 2.106.794 3.799 0 1.755-.283 3.084-.85 3.98-.564.899-1.395 1.351-2.487 1.351ZM86.5332 137.986c0 .884.0816 1.532.2446 1.946.163.417.4202.621.7651.621.3261 0 .5706-.195.7305-.583.1568-.389.2383-.994.2383-1.812 0-.624-.0407-1.128-.1223-1.514-.0815-.388-.1944-.667-.3417-.833-.1443-.173-.3198-.254-.5268-.254-.1881 0-.3449.056-.4703.169-.1254.11-.2289.27-.3042.476-.0783.214-.1316.464-.1661.765-.0314.301-.0471.64-.0471 1.019Zm.9438 2.914c-.5863 0-1.0253-.232-1.3106-.692-.2854-.461-.4296-1.163-.4296-2.103 0-.498.0439-.928.1317-1.295.0909-.36.2132-.664.3731-.899.1568-.241.3481-.414.5707-.53.2226-.112.4672-.172.7306-.172.5926 0 1.0378.232 1.3294.689.2885.458.4327 1.151.4327 2.081 0 .963-.1536 1.69-.464 2.182-.3105.492-.7651.739-1.364.739Zm-.8966 12.451c0 .843.0783 1.457.2351 1.855.1568.392.3982.589.7275.589.3104 0 .5424-.188.6929-.555.1505-.373.2258-.943.2258-1.72 0-.596-.0377-1.072-.1161-1.442-.0752-.37-.1849-.633-.3229-.793-.138-.16-.3073-.238-.5017-.238-.1756 0-.3261.05-.4452.157-.1192.106-.2164.26-.2916.457-.0753.198-.1255.439-.1568.724-.0314.285-.047.608-.047.966Zm.8967 2.773c-.555 0-.9689-.219-1.2416-.658-.2728-.439-.4108-1.103-.4108-1.999 0-.474.0439-.884.1254-1.229.0878-.345.2038-.63.3543-.856.1537-.225.3324-.394.5456-.504.2101-.107.439-.163.693-.163.5643 0 .9845.219 1.2604.655.276.439.4139 1.097.4139 1.977 0 .916-.1474 1.605-.4452 2.072-.2948.47-.7243.705-1.295.705Z"/></g><path stroke="url(#J)" stroke-linecap="round" stroke-width="16" d="M253 422.001c22 2.5 70.6-4.8 89-54C355.838 331 342 296 315 261c-18.577-24.081-64.5-68-37.5-116.5 27-48.4996 90-14.499 79.5 12.501"/><defs><linearGradient id="b" x1="248.707" x2="274.363" y1="88.4414" y2="158.119" gradientUnits="userSpaceOnUse"><stop stop-color="#60C6FF"/><stop offset="1" stop-color="#4F4C4C" stop-opacity="0"/></linearGradient><linearGradient id="d" x1="291.95" x2="309.855" y1="146.965" y2="195.593" gradientUnits="userSpaceOnUse"><stop stop-color="#60C6FF"/><stop offset="1" stop-color="#4F4C4C" stop-opacity="0"/></linearGradient><linearGradient id="f" x1="322.98" x2="333.087" y1="128.16" y2="155.608" gradientUnits="userSpaceOnUse"><stop stop-color="#60C6FF"/><stop offset="1" stop-color="#4F4C4C" stop-opacity="0"/></linearGradient><linearGradient id="g" x1="332.612" x2="241.5" y1="191.816" y2="322.5" gradientUnits="userSpaceOnUse"><stop stop-color="#FF72CF"/><stop offset="1" stop-color="#D9D9D9" stop-opacity="0"/><stop offset="1" stop-color="#C0F"/></linearGradient><linearGradient id="h" x1="89.5" x2="167" y1="-15.5" y2="193" gradientUnits="userSpaceOnUse"><stop stop-color="#60C6FF"/><stop offset="1" stop-color="#60C6FF" stop-opacity="0"/></linearGradient><linearGradient id="i" x1="141.36" x2="104.947" y1="277.206" y2="413.101" gradientUnits="userSpaceOnUse"><stop stop-color="#FFC700"/><stop offset="1" stop-color="#FFC700" stop-opacity="0"/></linearGradient><linearGradient id="p" x1="203" x2="203" y1="307" y2="152" gradientUnits="userSpaceOnUse"><stop offset=".463161" stop-color="#fff"/><stop offset="1" stop-color="#fff" stop-opacity="0"/></linearGradient><linearGradient id="v" x1="144.5" x2="193" y1="130.5" y2="164.5" gradientUnits="userSpaceOnUse"><stop stop-color="#541800"/><stop offset="1" stop-color="#D83C00" stop-opacity="0"/></linearGradient><linearGradient id="w" x1="201" x2="200.554" y1="168" y2="177.657" gradientUnits="userSpaceOnUse"><stop stop-color="#C34214"/><stop offset="1" stop-color="#C34214" stop-opacity="0"/></linearGradient><linearGradient id="x" x1="257" x2="226.5" y1="453.5" y2="330" gradientUnits="userSpaceOnUse"><stop stop-color="#64C6FB"/><stop offset="1" stop-color="#D9D9D9" stop-opacity="0"/></linearGradient><linearGradient id="y" x1="242" x2="201" y1="454.5" y2="381.5" gradientUnits="userSpaceOnUse"><stop stop-color="#fff"/><stop offset="1" stop-color="#fff" stop-opacity="0"/></linearGradient><linearGradient id="z" x1="270.5" x2="292" y1="430" y2="302" gradientUnits="userSpaceOnUse"><stop stop-color="#fff"/><stop offset="1" stop-color="#fff" stop-opacity="0"/></linearGradient><linearGradient id="A" x1="116" x2="178" y1="433" y2="280" gradientUnits="userSpaceOnUse"><stop stop-color="#fff"/><stop offset="1" stop-color="#fff" stop-opacity="0"/></linearGradient><linearGradient id="B" x1="143.409" x2="157" y1="56" y2="134.5" gradientUnits="userSpaceOnUse"><stop stop-color="#C23E12"/><stop offset="1" stop-color="#C23E12" stop-opacity="0"/></linearGradient><linearGradient id="C" x1="263" x2="258" y1="60.5" y2="136.5" gradientUnits="userSpaceOnUse"><stop stop-color="#BC3400"/><stop offset="1" stop-color="#CA6559" stop-opacity="0"/></linearGradient><linearGradient id="J" x1="305.584" x2="305.584" y1="120.014" y2="422.428" gradientUnits="userSpaceOnUse"><stop stop-color="#FFC700"/><stop offset=".555208" stop-color="#FF5C00"/><stop offset="1" stop-color="#FA6C8B"/></linearGradient><filter id="k" width="304" height="304" x="47.5" y="138.5" color-interpolation-filters="sRGB" filterUnits="userSpaceOnUse"><feFlood flood-opacity="0" result="BackgroundImageFix"/><feBlend in="SourceGraphic" in2="BackgroundImageFix" result="shape"/><feGaussianBlur result="effect1_foregroundBlur_619_5162" stdDeviation="31.25"/></filter><filter id="l" width="304" height="304" x="132.5" y="20.5" color-interpolation-filters="sRGB" filterUnits="userSpaceOnUse"><feFlood flood-opacity="0" result="BackgroundImageFix"/><feBlend in="SourceGraphic" in2="BackgroundImageFix" result="shape"/><feGaussianBlur result="effect1_foregroundBlur_619_5162" stdDeviation="31.25"/></filter><filter id="m" width="304" height="304" x="132.5" y="244.5" color-interpolation-filters="sRGB" filterUnits="userSpaceOnUse"><feFlood flood-opacity="0" result="BackgroundImageFix"/><feBlend in="SourceGraphic" in2="BackgroundImageFix" result="shape"/><feGaussianBlur result="effect1_foregroundBlur_619_5162" stdDeviation="31.25"/></filter><filter id="n" width="304" height="304" x="-46.5" y="103.5" color-interpolation-filters="sRGB" filterUnits="userSpaceOnUse"><feFlood flood-opacity="0" result="BackgroundImageFix"/><feBlend in="SourceGraphic" in2="BackgroundImageFix" result="shape"/><feGaussianBlur result="effect1_foregroundBlur_619_5162" stdDeviation="31.25"/></filter><filter id="o" width="304" height="305" x="-67.5" y="222.5" color-interpolation-filters="sRGB" filterUnits="userSpaceOnUse"><feFlood flood-opacity="0" result="BackgroundImageFix"/><feBlend in="SourceGraphic" in2="BackgroundImageFix" result="shape"/><feGaussianBlur result="effect1_foregroundBlur_619_5162" stdDeviation="31.25"/></filter><filter id="r" width="317.244" height="356.789" x="76.8779" y="-18.8945" color-interpolation-filters="sRGB" filterUnits="userSpaceOnUse"><feFlood flood-opacity="0" result="BackgroundImageFix"/><feBlend in="SourceGraphic" in2="BackgroundImageFix" result="shape"/><feGaussianBlur result="effect1_foregroundBlur_619_5162" stdDeviation="31.25"/></filter><filter id="s" width="208" height="207" x="144.5" y="-32.5" color-interpolation-filters="sRGB" filterUnits="userSpaceOnUse"><feFlood flood-opacity="0" result="BackgroundImageFix"/><feBlend in="SourceGraphic" in2="BackgroundImageFix" result="shape"/><feGaussianBlur result="effect1_foregroundBlur_619_5162" stdDeviation="31.25"/></filter><filter id="t" width="283" height="319" x="-24.5" y="-80.5" color-interpolation-filters="sRGB" filterUnits="userSpaceOnUse"><feFlood flood-opacity="0" result="BackgroundImageFix"/><feBlend in="SourceGraphic" in2="BackgroundImageFix" result="shape"/><feGaussianBlur result="effect1_foregroundBlur_619_5162" stdDeviation="31.25"/></filter><filter id="u" width="242.973" height="227.289" x="41.5344" y="90.4746" color-interpolation-filters="sRGB" filterUnits="userSpaceOnUse"><feFlood flood-opacity="0" result="BackgroundImageFix"/><feBlend in="SourceGraphic" in2="BackgroundImageFix" result="shape"/><feGaussianBlur result="effect1_foregroundBlur_619_5162" stdDeviation="31.25"/></filter><radialGradient id="D" cx="0" cy="0" r="1" gradientTransform="matrix(0 54 -45.1585 0 143 402)" gradientUnits="userSpaceOnUse"><stop stop-color="#fff"/><stop offset=".263542" stop-color="#fff"/><stop offset=".475581" stop-color="#fff"/><stop offset="1" stop-color="#fff" stop-opacity="0"/></radialGradient><clipPath id="E"><path fill="#fff" d="M84 129h72v206H84z"/></clipPath></defs></svg>