<svg width="2584" height="629" viewBox="0 0 2584 629" fill="none" xmlns="http://www.w3.org/2000/svg">
<g clip-path="url(#clip0_207_4174)">
<path d="M699.364 471H613.107V216.455H701.104C726.376 216.455 748.085 221.55 766.232 231.742C784.461 241.851 798.464 256.393 808.241 275.368C818.019 294.343 822.908 317.046 822.908 343.479C822.908 369.994 817.978 392.78 808.117 411.838C798.34 430.896 784.212 445.521 765.734 455.712C747.339 465.904 725.216 471 699.364 471ZM659.218 431.103H697.126C714.858 431.103 729.649 427.871 741.498 421.408C753.347 414.862 762.254 405.126 768.22 392.2C774.186 379.191 777.169 362.951 777.169 343.479C777.169 324.007 774.186 307.849 768.22 295.006C762.254 282.08 753.43 272.426 741.746 266.046C730.146 259.583 715.728 256.352 698.494 256.352H659.218V431.103ZM948.005 474.729C929.362 474.729 913.204 470.627 899.532 462.424C885.86 454.221 875.254 442.745 867.714 427.996C860.257 413.247 856.528 396.012 856.528 376.291C856.528 356.571 860.257 339.294 867.714 324.462C875.254 309.63 885.86 298.113 899.532 289.91C913.204 281.707 929.362 277.605 948.005 277.605C966.649 277.605 982.806 281.707 996.478 289.91C1010.15 298.113 1020.71 309.63 1028.17 324.462C1035.71 339.294 1039.48 356.571 1039.48 376.291C1039.48 396.012 1035.71 413.247 1028.17 427.996C1020.71 442.745 1010.15 454.221 996.478 462.424C982.806 470.627 966.649 474.729 948.005 474.729ZM948.254 438.685C958.363 438.685 966.815 435.909 973.609 430.357C980.404 424.723 985.458 417.183 988.772 407.737C992.17 398.29 993.868 387.767 993.868 376.167C993.868 364.484 992.17 353.919 988.772 344.473C985.458 334.944 980.404 327.362 973.609 321.728C966.815 316.094 958.363 313.276 948.254 313.276C937.896 313.276 929.279 316.094 922.402 321.728C915.607 327.362 910.511 334.944 907.114 344.473C903.8 353.919 902.142 364.484 902.142 376.167C902.142 387.767 903.8 398.29 907.114 407.737C910.511 417.183 915.607 424.723 922.402 430.357C929.279 435.909 937.896 438.685 948.254 438.685ZM1148.52 474.356C1133.52 474.356 1120.09 470.503 1108.25 462.797C1096.4 455.091 1087.03 443.905 1080.16 429.239C1073.28 414.572 1069.84 396.758 1069.84 375.794C1069.84 354.582 1073.32 336.684 1080.28 322.101C1087.32 307.435 1096.81 296.373 1108.74 288.915C1120.67 281.375 1133.97 277.605 1148.64 277.605C1159.83 277.605 1169.02 279.511 1176.23 283.322C1183.44 287.051 1189.16 291.567 1193.38 296.87C1197.61 302.09 1200.88 307.02 1203.2 311.661H1205.07V216.455H1250.18V471H1205.94V440.922H1203.2C1200.88 445.562 1197.53 450.492 1193.14 455.712C1188.74 460.85 1182.94 465.241 1175.74 468.887C1168.53 472.533 1159.45 474.356 1148.52 474.356ZM1161.07 437.442C1170.6 437.442 1178.72 434.873 1185.43 429.736C1192.14 424.516 1197.24 417.265 1200.72 407.985C1204.2 398.705 1205.94 387.892 1205.94 375.545C1205.94 363.199 1204.2 352.469 1200.72 343.354C1197.32 334.24 1192.27 327.155 1185.55 322.101C1178.93 317.046 1170.76 314.519 1161.07 314.519C1151.04 314.519 1142.67 317.129 1135.96 322.349C1129.25 327.57 1124.2 334.778 1120.8 343.976C1117.4 353.173 1115.7 363.696 1115.7 375.545C1115.7 387.477 1117.4 398.125 1120.8 407.488C1124.28 416.768 1129.38 424.101 1136.09 429.487C1142.88 434.79 1151.21 437.442 1161.07 437.442ZM1353.07 474.853C1340.97 474.853 1330.07 472.699 1320.38 468.39C1310.77 463.998 1303.14 457.535 1297.51 449.001C1291.96 440.466 1289.18 429.943 1289.18 417.431C1289.18 406.659 1291.17 397.752 1295.15 390.709C1299.12 383.666 1304.55 378.031 1311.43 373.805C1318.31 369.58 1326.05 366.389 1334.67 364.235C1343.37 361.998 1352.36 360.382 1361.64 359.388C1372.83 358.228 1381.9 357.192 1388.86 356.281C1395.82 355.286 1400.88 353.795 1404.02 351.806C1407.26 349.735 1408.87 346.544 1408.87 342.236V341.49C1408.87 332.127 1406.1 324.877 1400.54 319.739C1394.99 314.602 1387 312.033 1376.56 312.033C1365.54 312.033 1356.79 314.436 1350.33 319.242C1343.95 324.048 1339.64 329.724 1337.41 336.27L1295.4 330.304C1298.71 318.704 1304.18 309.009 1311.8 301.22C1319.42 293.348 1328.75 287.465 1339.77 283.571C1350.79 279.594 1362.97 277.605 1376.31 277.605C1385.51 277.605 1394.66 278.682 1403.78 280.837C1412.89 282.991 1421.22 286.554 1428.76 291.526C1436.3 296.414 1442.35 303.085 1446.9 311.536C1451.54 319.988 1453.86 330.553 1453.86 343.23V471H1410.61V444.775H1409.12C1406.39 450.078 1402.53 455.049 1397.56 459.69C1392.67 464.247 1386.5 467.934 1379.04 470.751C1371.67 473.486 1363.01 474.853 1353.07 474.853ZM1364.75 441.792C1373.78 441.792 1381.61 440.01 1388.24 436.447C1394.87 432.802 1399.96 427.996 1403.53 422.03C1407.17 416.064 1409 409.559 1409 402.516V380.02C1407.59 381.18 1405.18 382.257 1401.79 383.251C1398.47 384.246 1394.74 385.116 1390.6 385.862C1386.46 386.607 1382.36 387.27 1378.3 387.85C1374.24 388.43 1370.71 388.927 1367.73 389.342C1361.02 390.253 1355.01 391.745 1349.71 393.816C1344.41 395.888 1340.22 398.788 1337.16 402.516C1334.09 406.162 1332.56 410.885 1332.56 416.685C1332.56 424.971 1335.58 431.227 1341.63 435.453C1347.68 439.679 1355.39 441.792 1364.75 441.792ZM1582.38 474.729C1563.74 474.729 1547.58 470.627 1533.91 462.424C1520.24 454.221 1509.63 442.745 1502.09 427.996C1494.63 413.247 1490.9 396.012 1490.9 376.291C1490.9 356.571 1494.63 339.294 1502.09 324.462C1509.63 309.63 1520.24 298.113 1533.91 289.91C1547.58 281.707 1563.74 277.605 1582.38 277.605C1601.02 277.605 1617.18 281.707 1630.85 289.91C1644.53 298.113 1655.09 309.63 1662.55 324.462C1670.09 339.294 1673.86 356.571 1673.86 376.291C1673.86 396.012 1670.09 413.247 1662.55 427.996C1655.09 442.745 1644.53 454.221 1630.85 462.424C1617.18 470.627 1601.02 474.729 1582.38 474.729ZM1582.63 438.685C1592.74 438.685 1601.19 435.909 1607.98 430.357C1614.78 424.723 1619.83 417.183 1623.15 407.737C1626.54 398.29 1628.24 387.767 1628.24 376.167C1628.24 364.484 1626.54 353.919 1623.15 344.473C1619.83 334.944 1614.78 327.362 1607.98 321.728C1601.19 316.094 1592.74 313.276 1582.63 313.276C1572.27 313.276 1563.65 316.094 1556.78 321.728C1549.98 327.362 1544.89 334.944 1541.49 344.473C1538.17 353.919 1536.52 364.484 1536.52 376.167C1536.52 387.767 1538.17 398.29 1541.49 407.737C1544.89 417.183 1549.98 424.723 1556.78 430.357C1563.65 435.909 1572.27 438.685 1582.63 438.685ZM1739.76 473.734C1732.22 473.734 1725.76 471.083 1720.37 465.78C1714.99 460.477 1712.34 454.014 1712.42 446.391C1712.34 438.933 1714.99 432.553 1720.37 427.25C1725.76 421.947 1732.22 419.295 1739.76 419.295C1747.05 419.295 1753.39 421.947 1758.78 427.25C1764.25 432.553 1767.02 438.933 1767.11 446.391C1767.02 451.445 1765.7 456.044 1763.13 460.187C1760.64 464.33 1757.33 467.644 1753.19 470.13C1749.13 472.533 1744.65 473.734 1739.76 473.734ZM1884.4 474.356C1869.41 474.356 1855.98 470.503 1844.13 462.797C1832.29 455.091 1822.92 443.905 1816.05 429.239C1809.17 414.572 1805.73 396.758 1805.73 375.794C1805.73 354.582 1809.21 336.684 1816.17 322.101C1823.21 307.435 1832.7 296.373 1844.63 288.915C1856.56 281.375 1869.86 277.605 1884.53 277.605C1895.71 277.605 1904.91 279.511 1912.12 283.322C1919.33 287.051 1925.05 291.567 1929.27 296.87C1933.5 302.09 1936.77 307.02 1939.09 311.661H1940.96V216.455H1986.07V471H1941.83V440.922H1939.09C1936.77 445.562 1933.42 450.492 1929.02 455.712C1924.63 460.85 1918.83 465.241 1911.62 468.887C1904.42 472.533 1895.34 474.356 1884.4 474.356ZM1896.96 437.442C1906.49 437.442 1914.61 434.873 1921.32 429.736C1928.03 424.516 1933.13 417.265 1936.61 407.985C1940.09 398.705 1941.83 387.892 1941.83 375.545C1941.83 363.199 1940.09 352.469 1936.61 343.354C1933.21 334.24 1928.15 327.155 1921.44 322.101C1914.81 317.046 1906.65 314.519 1896.96 314.519C1886.93 314.519 1878.56 317.129 1871.85 322.349C1865.14 327.57 1860.09 334.778 1856.69 343.976C1853.29 353.173 1851.59 363.696 1851.59 375.545C1851.59 387.477 1853.29 398.125 1856.69 407.488C1860.17 416.768 1865.26 424.101 1871.98 429.487C1878.77 434.79 1887.1 437.442 1896.96 437.442ZM2118.54 474.729C2099.39 474.729 2082.86 470.751 2068.94 462.797C2055.11 454.759 2044.46 443.408 2037 428.741C2029.54 413.992 2025.82 396.633 2025.82 376.664C2025.82 357.026 2029.54 339.791 2037 324.96C2044.54 310.045 2055.06 298.444 2068.57 290.158C2082.08 281.79 2097.94 277.605 2116.17 277.605C2127.94 277.605 2139.04 279.511 2149.48 283.322C2160.01 287.051 2169.29 292.851 2177.32 300.723C2185.44 308.595 2191.82 318.621 2196.47 330.801C2201.11 342.899 2203.43 357.316 2203.43 374.054V387.85H2046.94V357.523H2160.3C2160.21 348.906 2158.35 341.241 2154.7 334.53C2151.06 327.735 2145.96 322.391 2139.42 318.496C2132.95 314.602 2125.41 312.655 2116.8 312.655C2107.6 312.655 2099.52 314.892 2092.56 319.366C2085.6 323.758 2080.17 329.558 2076.28 336.767C2072.47 343.893 2070.52 351.723 2070.44 360.258V386.732C2070.44 397.835 2072.47 407.364 2076.53 415.318C2080.59 423.19 2086.26 429.239 2093.55 433.464C2100.84 437.607 2109.38 439.679 2119.16 439.679C2125.7 439.679 2131.63 438.768 2136.93 436.945C2142.23 435.039 2146.83 432.263 2150.73 428.617C2154.62 424.971 2157.56 420.455 2159.55 415.07L2201.56 419.793C2198.91 430.896 2193.85 440.59 2186.4 448.876C2179.02 457.08 2169.58 463.46 2158.06 468.017C2146.54 472.491 2133.37 474.729 2118.54 474.729ZM2406.55 280.091L2338.56 471H2288.84L2220.86 280.091H2268.83L2312.71 421.906H2314.7L2358.69 280.091H2406.55Z" fill="url(#paint0_linear_207_4174)"/>
<mask id="mask0_207_4174" style="mask-type:alpha" maskUnits="userSpaceOnUse" x="90" y="84" width="400" height="472">
<path d="M490 84L371.124 168.44H290.073H289.927H208.875L90 84C101.683 128.746 107.963 175.657 107.963 223.868C107.963 252.736 105.772 281.172 101.391 308.886L153.965 376.871C161.997 384.81 166.962 395.924 166.962 408.049C166.962 423.205 159.222 436.484 147.393 444.423L175.871 498.119L289.781 555.856V556H289.927H290.073V555.856L403.983 498.119L432.461 444.423C420.632 436.484 412.892 423.205 412.892 408.049C412.892 395.924 417.857 384.81 425.889 376.871L478.463 308.886C474.228 281.172 471.891 252.736 471.891 223.868C472.037 175.513 478.317 128.746 490 84ZM228.007 363.158C226.692 364.024 225.378 364.602 223.917 364.746C223.041 365.035 222.311 365.179 221.289 365.324C200.551 368.932 186.532 360.127 180.544 356.086C180.106 355.797 179.522 355.364 179.084 355.075C178.938 354.931 178.792 354.787 178.645 354.787C172.22 350.456 154.695 327.794 154.695 327.794C154.549 327.506 154.257 327.361 154.111 327.073C152.797 325.196 152.212 323.031 152.358 321.01C152.505 317.691 154.111 314.371 157.178 312.35C157.908 311.917 158.638 311.484 159.514 311.195C159.807 311.051 159.953 311.051 160.245 310.906C160.391 310.906 160.683 310.762 160.829 310.762C160.975 310.762 161.267 310.618 161.413 310.618H161.559H161.705C161.851 310.618 162.143 310.618 162.289 310.618C185.217 308.164 197.484 312.494 197.484 312.494C197.631 312.494 197.777 312.494 197.777 312.639C199.675 312.927 201.574 313.505 203.326 314.226C218.66 320.289 227.276 337.032 227.276 337.032C227.276 337.032 232.826 345.549 232.972 353.343C232.972 357.096 231.365 360.993 228.007 363.158ZM313.293 431.577C313.147 433.453 312.417 435.041 311.249 436.34L295.038 452.362C294.892 452.506 294.746 452.651 294.746 452.651L294.454 452.939V461.023C294.454 463.621 292.264 465.786 289.635 465.786C287.006 465.786 284.816 463.621 284.816 461.023V452.939L284.524 452.651C284.377 452.506 284.378 452.506 284.231 452.362L267.875 436.196C266.707 435.041 265.977 433.309 265.831 431.577V431.432C265.831 431.288 265.831 431.288 265.831 431.144C265.831 427.102 269.189 423.782 273.279 423.782H273.717H289.781H305.845H306.283C310.372 423.782 313.731 427.102 313.731 431.144C313.439 431.288 313.293 431.432 313.293 431.577Z" fill="#D9D9D9"/>
</mask>
<g mask="url(#mask0_207_4174)">
<g filter="url(#filter0_f_207_4174)">
<path d="M729.651 438.36C729.651 558.336 631.248 655.596 509.862 655.596C388.477 655.596 290.074 558.336 290.074 438.36C290.074 318.385 388.477 221.125 509.862 221.125C631.248 221.125 729.651 318.385 729.651 438.36Z" fill="#F75D21"/>
</g>
<g filter="url(#filter1_f_207_4174)">
<path d="M509.131 311.339C509.131 431.315 410.729 528.574 289.343 528.574C167.957 528.574 69.5547 431.315 69.5547 311.339C69.5547 191.363 167.957 94.1035 289.343 94.1035C410.729 94.1035 509.131 191.363 509.131 311.339Z" fill="#F75D21"/>
</g>
<g filter="url(#filter2_f_207_4174)">
<path d="M703.361 291.853C703.361 369.977 639.285 433.309 560.243 433.309C481.201 433.309 417.125 369.977 417.125 291.853C417.125 213.729 481.201 150.397 560.243 150.397C639.285 150.397 703.361 213.729 703.361 291.853Z" fill="#E44B0F"/>
</g>
<g filter="url(#filter3_f_207_4174)">
<path d="M729.651 3.88977C729.651 123.866 631.248 221.125 509.862 221.125C388.477 221.125 290.074 123.866 290.074 3.88977C290.074 -116.086 388.477 -213.346 509.862 -213.346C631.248 -213.346 729.651 -116.086 729.651 3.88977Z" fill="#F96A89"/>
</g>
<g filter="url(#filter4_f_207_4174)">
<path d="M290.073 275.254C290.073 395.23 191.67 492.49 70.2843 492.49C-51.1014 492.49 -149.504 395.23 -149.504 275.254C-149.504 155.278 -51.1014 58.0186 70.2843 58.0186C191.67 58.0186 290.073 155.278 290.073 275.254Z" fill="#FFD848"/>
</g>
<g filter="url(#filter5_f_207_4174)">
<path d="M316.362 -147.67C316.362 -27.694 217.959 69.5657 96.5734 69.5657C-24.8123 69.5657 -123.215 -27.694 -123.215 -147.67C-123.215 -267.646 -24.8123 -364.905 96.5734 -364.905C217.959 -364.905 316.362 -267.646 316.362 -147.67Z" fill="#FFC700"/>
</g>
<g filter="url(#filter6_f_207_4174)">
<path d="M352.869 696.734C352.869 816.709 254.467 913.969 133.081 913.969C11.6955 913.969 -86.707 816.709 -86.707 696.734C-86.707 576.758 11.6955 479.498 133.081 479.498C254.467 479.498 352.869 576.758 352.869 696.734Z" fill="#60C6FF"/>
</g>
</g>
</g>
<defs>
<filter id="filter0_f_207_4174" x="190.074" y="121.125" width="639.578" height="634.471" filterUnits="userSpaceOnUse" color-interpolation-filters="sRGB">
<feFlood flood-opacity="0" result="BackgroundImageFix"/>
<feBlend mode="normal" in="SourceGraphic" in2="BackgroundImageFix" result="shape"/>
<feGaussianBlur stdDeviation="50" result="effect1_foregroundBlur_207_4174"/>
</filter>
<filter id="filter1_f_207_4174" x="-30.4453" y="-5.89648" width="639.578" height="634.471" filterUnits="userSpaceOnUse" color-interpolation-filters="sRGB">
<feFlood flood-opacity="0" result="BackgroundImageFix"/>
<feBlend mode="normal" in="SourceGraphic" in2="BackgroundImageFix" result="shape"/>
<feGaussianBlur stdDeviation="50" result="effect1_foregroundBlur_207_4174"/>
</filter>
<filter id="filter2_f_207_4174" x="317.125" y="50.3975" width="486.234" height="482.911" filterUnits="userSpaceOnUse" color-interpolation-filters="sRGB">
<feFlood flood-opacity="0" result="BackgroundImageFix"/>
<feBlend mode="normal" in="SourceGraphic" in2="BackgroundImageFix" result="shape"/>
<feGaussianBlur stdDeviation="50" result="effect1_foregroundBlur_207_4174"/>
</filter>
<filter id="filter3_f_207_4174" x="190.074" y="-313.346" width="639.578" height="634.471" filterUnits="userSpaceOnUse" color-interpolation-filters="sRGB">
<feFlood flood-opacity="0" result="BackgroundImageFix"/>
<feBlend mode="normal" in="SourceGraphic" in2="BackgroundImageFix" result="shape"/>
<feGaussianBlur stdDeviation="50" result="effect1_foregroundBlur_207_4174"/>
</filter>
<filter id="filter4_f_207_4174" x="-249.504" y="-41.9814" width="639.578" height="634.471" filterUnits="userSpaceOnUse" color-interpolation-filters="sRGB">
<feFlood flood-opacity="0" result="BackgroundImageFix"/>
<feBlend mode="normal" in="SourceGraphic" in2="BackgroundImageFix" result="shape"/>
<feGaussianBlur stdDeviation="50" result="effect1_foregroundBlur_207_4174"/>
</filter>
<filter id="filter5_f_207_4174" x="-223.215" y="-464.905" width="639.578" height="634.471" filterUnits="userSpaceOnUse" color-interpolation-filters="sRGB">
<feFlood flood-opacity="0" result="BackgroundImageFix"/>
<feBlend mode="normal" in="SourceGraphic" in2="BackgroundImageFix" result="shape"/>
<feGaussianBlur stdDeviation="50" result="effect1_foregroundBlur_207_4174"/>
</filter>
<filter id="filter6_f_207_4174" x="-186.707" y="379.498" width="639.578" height="634.471" filterUnits="userSpaceOnUse" color-interpolation-filters="sRGB">
<feFlood flood-opacity="0" result="BackgroundImageFix"/>
<feBlend mode="normal" in="SourceGraphic" in2="BackgroundImageFix" result="shape"/>
<feGaussianBlur stdDeviation="50" result="effect1_foregroundBlur_207_4174"/>
</filter>
<linearGradient id="paint0_linear_207_4174" x1="740.25" y1="132" x2="2210.54" y2="441.296" gradientUnits="userSpaceOnUse">
<stop stop-color="#FFC700"/>
<stop offset="0.482292" stop-color="#FF5C00"/>
<stop offset="1" stop-color="#F62BAD"/>
</linearGradient>
<clipPath id="clip0_207_4174">
<rect width="2584" height="629" fill="white"/>
</clipPath>
</defs>
</svg>
