<svg width="2584" height="629" viewBox="0 0 2584 629" fill="none" xmlns="http://www.w3.org/2000/svg">
<g clip-path="url(#clip0_210_4223)">
<path d="M699.364 471H613.107V216.455H701.104C726.376 216.455 748.085 221.55 766.232 231.742C784.461 241.851 798.464 256.393 808.241 275.368C818.019 294.343 822.908 317.046 822.908 343.479C822.908 369.994 817.978 392.78 808.117 411.838C798.34 430.896 784.212 445.521 765.734 455.712C747.339 465.904 725.216 471 699.364 471ZM659.218 431.103H697.126C714.858 431.103 729.649 427.871 741.498 421.408C753.347 414.862 762.254 405.126 768.22 392.2C774.186 379.191 777.169 362.951 777.169 343.479C777.169 324.007 774.186 307.849 768.22 295.006C762.254 282.08 753.43 272.426 741.746 266.046C730.146 259.583 715.728 256.352 698.494 256.352H659.218V431.103ZM948.005 474.729C929.362 474.729 913.204 470.627 899.532 462.424C885.86 454.221 875.254 442.745 867.714 427.996C860.257 413.247 856.528 396.012 856.528 376.291C856.528 356.571 860.257 339.294 867.714 324.462C875.254 309.63 885.86 298.113 899.532 289.91C913.204 281.707 929.362 277.605 948.005 277.605C966.649 277.605 982.806 281.707 996.478 289.91C1010.15 298.113 1020.71 309.63 1028.17 324.462C1035.71 339.294 1039.48 356.571 1039.48 376.291C1039.48 396.012 1035.71 413.247 1028.17 427.996C1020.71 442.745 1010.15 454.221 996.478 462.424C982.806 470.627 966.649 474.729 948.005 474.729ZM948.254 438.685C958.363 438.685 966.815 435.909 973.609 430.357C980.404 424.723 985.458 417.183 988.772 407.737C992.17 398.29 993.868 387.767 993.868 376.167C993.868 364.484 992.17 353.919 988.772 344.473C985.458 334.944 980.404 327.362 973.609 321.728C966.815 316.094 958.363 313.276 948.254 313.276C937.896 313.276 929.279 316.094 922.402 321.728C915.607 327.362 910.511 334.944 907.114 344.473C903.8 353.919 902.142 364.484 902.142 376.167C902.142 387.767 903.8 398.29 907.114 407.737C910.511 417.183 915.607 424.723 922.402 430.357C929.279 435.909 937.896 438.685 948.254 438.685ZM1148.52 474.356C1133.52 474.356 1120.09 470.503 1108.25 462.797C1096.4 455.091 1087.03 443.905 1080.16 429.239C1073.28 414.572 1069.84 396.758 1069.84 375.794C1069.84 354.582 1073.32 336.684 1080.28 322.101C1087.32 307.435 1096.81 296.373 1108.74 288.915C1120.67 281.375 1133.97 277.605 1148.64 277.605C1159.83 277.605 1169.02 279.511 1176.23 283.322C1183.44 287.051 1189.16 291.567 1193.38 296.87C1197.61 302.09 1200.88 307.02 1203.2 311.661H1205.07V216.455H1250.18V471H1205.94V440.922H1203.2C1200.88 445.562 1197.53 450.492 1193.14 455.712C1188.74 460.85 1182.94 465.241 1175.74 468.887C1168.53 472.533 1159.45 474.356 1148.52 474.356ZM1161.07 437.442C1170.6 437.442 1178.72 434.873 1185.43 429.736C1192.14 424.516 1197.24 417.265 1200.72 407.985C1204.2 398.705 1205.94 387.892 1205.94 375.545C1205.94 363.199 1204.2 352.469 1200.72 343.354C1197.32 334.24 1192.27 327.155 1185.55 322.101C1178.93 317.046 1170.76 314.519 1161.07 314.519C1151.04 314.519 1142.67 317.129 1135.96 322.349C1129.25 327.57 1124.2 334.778 1120.8 343.976C1117.4 353.173 1115.7 363.696 1115.7 375.545C1115.7 387.477 1117.4 398.125 1120.8 407.488C1124.28 416.768 1129.38 424.101 1136.09 429.487C1142.88 434.79 1151.21 437.442 1161.07 437.442ZM1353.07 474.853C1340.97 474.853 1330.07 472.699 1320.38 468.39C1310.77 463.998 1303.14 457.535 1297.51 449.001C1291.96 440.466 1289.18 429.943 1289.18 417.431C1289.18 406.659 1291.17 397.752 1295.15 390.709C1299.12 383.666 1304.55 378.031 1311.43 373.805C1318.31 369.58 1326.05 366.389 1334.67 364.235C1343.37 361.998 1352.36 360.382 1361.64 359.388C1372.83 358.228 1381.9 357.192 1388.86 356.281C1395.82 355.286 1400.88 353.795 1404.02 351.806C1407.26 349.735 1408.87 346.544 1408.87 342.236V341.49C1408.87 332.127 1406.1 324.877 1400.54 319.739C1394.99 314.602 1387 312.033 1376.56 312.033C1365.54 312.033 1356.79 314.436 1350.33 319.242C1343.95 324.048 1339.64 329.724 1337.41 336.27L1295.4 330.304C1298.71 318.704 1304.18 309.009 1311.8 301.22C1319.42 293.348 1328.75 287.465 1339.77 283.571C1350.79 279.594 1362.97 277.605 1376.31 277.605C1385.51 277.605 1394.66 278.682 1403.78 280.837C1412.89 282.991 1421.22 286.554 1428.76 291.526C1436.3 296.414 1442.35 303.085 1446.9 311.536C1451.54 319.988 1453.86 330.553 1453.86 343.23V471H1410.61V444.775H1409.12C1406.39 450.078 1402.53 455.049 1397.56 459.69C1392.67 464.247 1386.5 467.934 1379.04 470.751C1371.67 473.486 1363.01 474.853 1353.07 474.853ZM1364.75 441.792C1373.78 441.792 1381.61 440.01 1388.24 436.447C1394.87 432.802 1399.96 427.996 1403.53 422.03C1407.17 416.064 1409 409.559 1409 402.516V380.02C1407.59 381.18 1405.18 382.257 1401.79 383.251C1398.47 384.246 1394.74 385.116 1390.6 385.862C1386.46 386.607 1382.36 387.27 1378.3 387.85C1374.24 388.43 1370.71 388.927 1367.73 389.342C1361.02 390.253 1355.01 391.745 1349.71 393.816C1344.41 395.888 1340.22 398.788 1337.16 402.516C1334.09 406.162 1332.56 410.885 1332.56 416.685C1332.56 424.971 1335.58 431.227 1341.63 435.453C1347.68 439.679 1355.39 441.792 1364.75 441.792ZM1582.38 474.729C1563.74 474.729 1547.58 470.627 1533.91 462.424C1520.24 454.221 1509.63 442.745 1502.09 427.996C1494.63 413.247 1490.9 396.012 1490.9 376.291C1490.9 356.571 1494.63 339.294 1502.09 324.462C1509.63 309.63 1520.24 298.113 1533.91 289.91C1547.58 281.707 1563.74 277.605 1582.38 277.605C1601.02 277.605 1617.18 281.707 1630.85 289.91C1644.53 298.113 1655.09 309.63 1662.55 324.462C1670.09 339.294 1673.86 356.571 1673.86 376.291C1673.86 396.012 1670.09 413.247 1662.55 427.996C1655.09 442.745 1644.53 454.221 1630.85 462.424C1617.18 470.627 1601.02 474.729 1582.38 474.729ZM1582.63 438.685C1592.74 438.685 1601.19 435.909 1607.98 430.357C1614.78 424.723 1619.83 417.183 1623.15 407.737C1626.54 398.29 1628.24 387.767 1628.24 376.167C1628.24 364.484 1626.54 353.919 1623.15 344.473C1619.83 334.944 1614.78 327.362 1607.98 321.728C1601.19 316.094 1592.74 313.276 1582.63 313.276C1572.27 313.276 1563.65 316.094 1556.78 321.728C1549.98 327.362 1544.89 334.944 1541.49 344.473C1538.17 353.919 1536.52 364.484 1536.52 376.167C1536.52 387.767 1538.17 398.29 1541.49 407.737C1544.89 417.183 1549.98 424.723 1556.78 430.357C1563.65 435.909 1572.27 438.685 1582.63 438.685ZM1739.76 473.734C1732.22 473.734 1725.76 471.083 1720.37 465.78C1714.99 460.477 1712.34 454.014 1712.42 446.391C1712.34 438.933 1714.99 432.553 1720.37 427.25C1725.76 421.947 1732.22 419.295 1739.76 419.295C1747.05 419.295 1753.39 421.947 1758.78 427.25C1764.25 432.553 1767.02 438.933 1767.11 446.391C1767.02 451.445 1765.7 456.044 1763.13 460.187C1760.64 464.33 1757.33 467.644 1753.19 470.13C1749.13 472.533 1744.65 473.734 1739.76 473.734ZM1884.4 474.356C1869.41 474.356 1855.98 470.503 1844.13 462.797C1832.29 455.091 1822.92 443.905 1816.05 429.239C1809.17 414.572 1805.73 396.758 1805.73 375.794C1805.73 354.582 1809.21 336.684 1816.17 322.101C1823.21 307.435 1832.7 296.373 1844.63 288.915C1856.56 281.375 1869.86 277.605 1884.53 277.605C1895.71 277.605 1904.91 279.511 1912.12 283.322C1919.33 287.051 1925.05 291.567 1929.27 296.87C1933.5 302.09 1936.77 307.02 1939.09 311.661H1940.96V216.455H1986.07V471H1941.83V440.922H1939.09C1936.77 445.562 1933.42 450.492 1929.02 455.712C1924.63 460.85 1918.83 465.241 1911.62 468.887C1904.42 472.533 1895.34 474.356 1884.4 474.356ZM1896.96 437.442C1906.49 437.442 1914.61 434.873 1921.32 429.736C1928.03 424.516 1933.13 417.265 1936.61 407.985C1940.09 398.705 1941.83 387.892 1941.83 375.545C1941.83 363.199 1940.09 352.469 1936.61 343.354C1933.21 334.24 1928.15 327.155 1921.44 322.101C1914.81 317.046 1906.65 314.519 1896.96 314.519C1886.93 314.519 1878.56 317.129 1871.85 322.349C1865.14 327.57 1860.09 334.778 1856.69 343.976C1853.29 353.173 1851.59 363.696 1851.59 375.545C1851.59 387.477 1853.29 398.125 1856.69 407.488C1860.17 416.768 1865.26 424.101 1871.98 429.487C1878.77 434.79 1887.1 437.442 1896.96 437.442ZM2118.54 474.729C2099.39 474.729 2082.86 470.751 2068.94 462.797C2055.11 454.759 2044.46 443.408 2037 428.741C2029.54 413.992 2025.82 396.633 2025.82 376.664C2025.82 357.026 2029.54 339.791 2037 324.96C2044.54 310.045 2055.06 298.444 2068.57 290.158C2082.08 281.79 2097.94 277.605 2116.17 277.605C2127.94 277.605 2139.04 279.511 2149.48 283.322C2160.01 287.051 2169.29 292.851 2177.32 300.723C2185.44 308.595 2191.82 318.621 2196.47 330.801C2201.11 342.899 2203.43 357.316 2203.43 374.054V387.85H2046.94V357.523H2160.3C2160.21 348.906 2158.35 341.241 2154.7 334.53C2151.06 327.735 2145.96 322.391 2139.42 318.496C2132.95 314.602 2125.41 312.655 2116.8 312.655C2107.6 312.655 2099.52 314.892 2092.56 319.366C2085.6 323.758 2080.17 329.558 2076.28 336.767C2072.47 343.893 2070.52 351.723 2070.44 360.258V386.732C2070.44 397.835 2072.47 407.364 2076.53 415.318C2080.59 423.19 2086.26 429.239 2093.55 433.464C2100.84 437.607 2109.38 439.679 2119.16 439.679C2125.7 439.679 2131.63 438.768 2136.93 436.945C2142.23 435.039 2146.83 432.263 2150.73 428.617C2154.62 424.971 2157.56 420.455 2159.55 415.07L2201.56 419.793C2198.91 430.896 2193.85 440.59 2186.4 448.876C2179.02 457.08 2169.58 463.46 2158.06 468.017C2146.54 472.491 2133.37 474.729 2118.54 474.729ZM2406.55 280.091L2338.56 471H2288.84L2220.86 280.091H2268.83L2312.71 421.906H2314.7L2358.69 280.091H2406.55Z" fill="white"/>
<path d="M490 84L372.61 168.44H292.572H292.428H212.39L95 84C106.537 128.746 112.738 175.657 112.738 223.868C112.738 252.736 110.575 281.172 106.249 308.886L158.165 376.871C166.097 384.81 171 395.924 171 408.049C171 423.205 163.357 436.484 151.676 444.423L179.797 498.119L292.284 555.856V556H292.428H292.572V555.856L405.058 498.119L433.18 444.423C421.499 436.484 413.855 423.205 413.855 408.049C413.855 395.924 418.759 384.81 426.69 376.871L478.607 308.886C474.425 281.172 472.118 252.736 472.118 223.868C472.262 175.513 478.463 128.746 490 84ZM231.281 363.158C229.984 364.024 228.686 364.602 227.243 364.746C226.378 365.035 225.657 365.179 224.648 365.324C204.169 368.932 190.325 360.127 184.412 356.086C183.98 355.797 183.403 355.364 182.97 355.075C182.826 354.931 182.682 354.787 182.537 354.787C176.192 350.456 158.886 327.794 158.886 327.794C158.742 327.506 158.454 327.361 158.31 327.073C157.012 325.196 156.435 323.031 156.579 321.01C156.723 317.691 158.31 314.371 161.338 312.35C162.059 311.917 162.78 311.484 163.646 311.195C163.934 311.051 164.078 311.051 164.367 310.906C164.511 310.906 164.799 310.762 164.943 310.762C165.088 310.762 165.376 310.618 165.52 310.618H165.664H165.809C165.953 310.618 166.241 310.618 166.386 310.618C189.027 308.164 201.141 312.494 201.141 312.494C201.285 312.494 201.429 312.494 201.429 312.639C203.304 312.927 205.179 313.505 206.909 314.226C222.052 320.289 230.56 337.032 230.56 337.032C230.56 337.032 236.041 345.549 236.185 353.343C236.185 357.096 234.598 360.993 231.281 363.158ZM315.502 431.577C315.358 433.453 314.637 435.041 313.483 436.34L297.475 452.362C297.331 452.506 297.187 452.651 297.187 452.651L296.899 452.939V461.023C296.899 463.621 294.735 465.786 292.139 465.786C289.544 465.786 287.38 463.621 287.38 461.023V452.939L287.092 452.651C286.948 452.506 286.948 452.506 286.804 452.362L270.652 436.196C269.498 435.041 268.777 433.309 268.633 431.577V431.432C268.633 431.288 268.633 431.288 268.633 431.144C268.633 427.102 271.95 423.782 275.988 423.782H276.42H292.284H308.147H308.58C312.618 423.782 315.935 427.102 315.935 431.144C315.646 431.288 315.502 431.432 315.502 431.577Z" fill="white"/>
</g>
<defs>
<clipPath id="clip0_210_4223">
<rect width="2584" height="629" fill="white"/>
</clipPath>
</defs>
</svg>
