<svg width="636" height="629" viewBox="0 0 636 629" fill="none" xmlns="http://www.w3.org/2000/svg">
<g clip-path="url(#clip0_207_4138)">
<path d="M455 89L372.679 148.216H316.551H316.449H260.321L178 89C186.091 120.379 190.439 153.277 190.439 187.085C190.439 207.33 188.922 227.271 185.888 246.706L222.296 294.382C227.858 299.949 231.296 307.743 231.296 316.246C231.296 326.875 225.936 336.187 217.745 341.754L237.465 379.41L316.348 419.899V420H316.449H316.551V419.899L395.433 379.41L415.154 341.754C406.962 336.187 401.602 326.875 401.602 316.246C401.602 307.743 405.041 299.949 410.603 294.382L447.011 246.706C444.078 227.271 442.46 207.33 442.46 187.085C442.561 153.176 446.909 120.379 455 89ZM273.57 284.766C272.659 285.373 271.749 285.778 270.738 285.879C270.131 286.082 269.625 286.183 268.917 286.284C254.557 288.815 244.848 282.64 240.702 279.806C240.398 279.603 239.994 279.3 239.69 279.097C239.589 278.996 239.488 278.895 239.387 278.895C234.937 275.858 222.801 259.966 222.801 259.966C222.7 259.764 222.498 259.662 222.397 259.46C221.487 258.144 221.082 256.626 221.183 255.209C221.284 252.88 222.397 250.552 224.521 249.135C225.026 248.832 225.532 248.528 226.139 248.325C226.341 248.224 226.442 248.224 226.644 248.123C226.746 248.123 226.948 248.022 227.049 248.022C227.15 248.022 227.352 247.92 227.453 247.92H227.555H227.656C227.757 247.92 227.959 247.92 228.06 247.92C243.938 246.2 252.433 249.236 252.433 249.236C252.534 249.236 252.635 249.236 252.635 249.338C253.95 249.54 255.265 249.945 256.478 250.451C267.097 254.702 273.064 266.444 273.064 266.444C273.064 266.444 276.907 272.417 277.008 277.883C277.008 280.514 275.896 283.247 273.57 284.766ZM332.631 332.746C332.529 334.061 332.024 335.175 331.215 336.086L319.989 347.322C319.888 347.423 319.787 347.524 319.787 347.524L319.585 347.727V353.395C319.585 355.217 318.068 356.735 316.247 356.735C314.427 356.735 312.91 355.217 312.91 353.395V347.727L312.708 347.524C312.606 347.423 312.606 347.423 312.505 347.322L301.179 335.985C300.369 335.175 299.864 333.96 299.763 332.746V332.644C299.763 332.543 299.763 332.543 299.763 332.442C299.763 329.608 302.089 327.28 304.92 327.28H305.224H316.348H327.473H327.776C330.608 327.28 332.934 329.608 332.934 332.442C332.732 332.543 332.631 332.644 332.631 332.746Z" fill="white"/>
<path d="M81.7727 532H56.3885V457.091H82.2848C89.7221 457.091 96.1108 458.591 101.451 461.59C106.816 464.565 110.937 468.844 113.814 474.428C116.691 480.012 118.13 486.694 118.13 494.472C118.13 502.275 116.679 508.981 113.777 514.589C110.9 520.198 106.742 524.502 101.305 527.501C95.8913 530.5 89.3807 532 81.7727 532ZM69.9585 520.259H81.1143C86.3326 520.259 90.6853 519.308 94.1722 517.406C97.6592 515.48 100.281 512.614 102.036 508.81C103.792 504.982 104.67 500.203 104.67 494.472C104.67 488.742 103.792 483.987 102.036 480.207C100.281 476.403 97.6836 473.563 94.2454 471.685C90.8316 469.783 86.5887 468.832 81.5167 468.832H69.9585V520.259ZM154.944 533.097C149.458 533.097 144.703 531.89 140.68 529.476C136.656 527.062 133.535 523.685 131.316 519.344C129.121 515.004 128.024 509.932 128.024 504.129C128.024 498.325 129.121 493.241 131.316 488.876C133.535 484.511 136.656 481.122 140.68 478.708C144.703 476.294 149.458 475.087 154.944 475.087C160.431 475.087 165.186 476.294 169.209 478.708C173.233 481.122 176.342 484.511 178.536 488.876C180.755 493.241 181.865 498.325 181.865 504.129C181.865 509.932 180.755 515.004 178.536 519.344C176.342 523.685 173.233 527.062 169.209 529.476C165.186 531.89 160.431 533.097 154.944 533.097ZM155.018 522.49C157.992 522.49 160.48 521.673 162.479 520.039C164.479 518.381 165.966 516.162 166.942 513.382C167.941 510.603 168.441 507.506 168.441 504.092C168.441 500.654 167.941 497.545 166.942 494.765C165.966 491.961 164.479 489.73 162.479 488.071C160.48 486.413 157.992 485.584 155.018 485.584C151.97 485.584 149.434 486.413 147.41 488.071C145.41 489.73 143.91 491.961 142.911 494.765C141.935 497.545 141.448 500.654 141.448 504.092C141.448 507.506 141.935 510.603 142.911 513.382C143.91 516.162 145.41 518.381 147.41 520.039C149.434 521.673 151.97 522.49 155.018 522.49ZM213.952 532.988C209.538 532.988 205.588 531.854 202.101 529.586C198.614 527.318 195.859 524.026 193.835 519.71C191.811 515.394 190.799 510.152 190.799 503.982C190.799 497.74 191.823 492.473 193.871 488.181C195.944 483.865 198.736 480.61 202.247 478.415C205.759 476.196 209.672 475.087 213.988 475.087C217.28 475.087 219.987 475.647 222.108 476.769C224.23 477.866 225.912 479.195 227.156 480.756C228.4 482.292 229.363 483.743 230.046 485.109H230.594V457.091H243.872V532H230.85V523.148H230.046C229.363 524.514 228.375 525.965 227.083 527.501C225.79 529.013 224.084 530.305 221.962 531.378C219.841 532.451 217.171 532.988 213.952 532.988ZM217.646 522.124C220.45 522.124 222.84 521.368 224.815 519.857C226.79 518.32 228.29 516.187 229.314 513.456C230.338 510.725 230.85 507.542 230.85 503.909C230.85 500.276 230.338 497.118 229.314 494.436C228.314 491.753 226.827 489.669 224.852 488.181C222.901 486.694 220.499 485.95 217.646 485.95C214.696 485.95 212.233 486.718 210.258 488.254C208.282 489.79 206.795 491.912 205.795 494.619C204.795 497.325 204.296 500.422 204.296 503.909C204.296 507.42 204.795 510.554 205.795 513.309C206.819 516.04 208.319 518.198 210.294 519.783C212.294 521.344 214.744 522.124 217.646 522.124ZM274.148 533.134C270.588 533.134 267.381 532.5 264.528 531.232C261.7 529.94 259.456 528.038 257.798 525.526C256.164 523.014 255.347 519.917 255.347 516.235C255.347 513.065 255.933 510.444 257.103 508.371C258.274 506.299 259.871 504.641 261.895 503.397C263.919 502.153 266.199 501.215 268.735 500.581C271.295 499.922 273.941 499.447 276.672 499.154C279.964 498.813 282.634 498.508 284.682 498.24C286.73 497.947 288.218 497.508 289.144 496.923C290.095 496.313 290.571 495.375 290.571 494.107V493.887C290.571 491.132 289.754 488.998 288.12 487.486C286.486 485.974 284.133 485.218 281.061 485.218C277.818 485.218 275.245 485.926 273.343 487.34C271.466 488.754 270.198 490.424 269.539 492.351L257.176 490.595C258.152 487.181 259.761 484.328 262.004 482.036C264.248 479.72 266.991 477.988 270.234 476.842C273.477 475.672 277.062 475.087 280.988 475.087C283.694 475.087 286.389 475.404 289.071 476.038C291.753 476.672 294.204 477.72 296.423 479.183C298.642 480.622 300.422 482.585 301.763 485.072C303.129 487.559 303.812 490.668 303.812 494.399V532H291.083V524.282H290.644C289.839 525.843 288.705 527.306 287.242 528.672C285.804 530.013 283.987 531.098 281.792 531.927C279.622 532.732 277.074 533.134 274.148 533.134ZM277.586 523.404C280.244 523.404 282.548 522.88 284.499 521.832C286.45 520.759 287.95 519.344 288.998 517.589C290.071 515.833 290.607 513.919 290.607 511.846V505.226C290.193 505.567 289.486 505.884 288.486 506.177C287.511 506.469 286.413 506.725 285.194 506.945C283.975 507.164 282.768 507.359 281.573 507.53C280.378 507.701 279.342 507.847 278.464 507.969C276.489 508.237 274.721 508.676 273.16 509.286C271.6 509.895 270.368 510.749 269.466 511.846C268.564 512.919 268.113 514.309 268.113 516.016C268.113 518.454 269.003 520.295 270.783 521.539C272.563 522.783 274.831 523.404 277.586 523.404ZM341.632 533.097C336.145 533.097 331.39 531.89 327.367 529.476C323.344 527.062 320.222 523.685 318.003 519.344C315.809 515.004 314.711 509.932 314.711 504.129C314.711 498.325 315.809 493.241 318.003 488.876C320.222 484.511 323.344 481.122 327.367 478.708C331.39 476.294 336.145 475.087 341.632 475.087C347.118 475.087 351.873 476.294 355.897 478.708C359.92 481.122 363.029 484.511 365.224 488.876C367.443 493.241 368.552 498.325 368.552 504.129C368.552 509.932 367.443 515.004 365.224 519.344C363.029 523.685 359.92 527.062 355.897 529.476C351.873 531.89 347.118 533.097 341.632 533.097ZM341.705 522.49C344.68 522.49 347.167 521.673 349.167 520.039C351.166 518.381 352.654 516.162 353.629 513.382C354.629 510.603 355.129 507.506 355.129 504.092C355.129 500.654 354.629 497.545 353.629 494.765C352.654 491.961 351.166 489.73 349.167 488.071C347.167 486.413 344.68 485.584 341.705 485.584C338.657 485.584 336.121 486.413 334.097 488.071C332.098 489.73 330.598 491.961 329.598 494.765C328.623 497.545 328.135 500.654 328.135 504.092C328.135 507.506 328.623 510.603 329.598 513.382C330.598 516.162 332.098 518.381 334.097 520.039C336.121 521.673 338.657 522.49 341.705 522.49ZM387.947 532.805C385.728 532.805 383.826 532.024 382.241 530.464C380.656 528.903 379.876 527.001 379.9 524.758C379.876 522.563 380.656 520.686 382.241 519.125C383.826 517.564 385.728 516.784 387.947 516.784C390.093 516.784 391.958 517.564 393.543 519.125C395.153 520.686 395.97 522.563 395.994 524.758C395.97 526.245 395.58 527.599 394.824 528.818C394.092 530.037 393.117 531.012 391.897 531.744C390.703 532.451 389.386 532.805 387.947 532.805ZM430.513 532.988C426.1 532.988 422.149 531.854 418.662 529.586C415.175 527.318 412.42 524.026 410.396 519.71C408.372 515.394 407.36 510.152 407.36 503.982C407.36 497.74 408.384 492.473 410.433 488.181C412.505 483.865 415.297 480.61 418.809 478.415C422.32 476.196 426.234 475.087 430.55 475.087C433.842 475.087 436.548 475.647 438.67 476.769C440.791 477.866 442.474 479.195 443.718 480.756C444.961 482.292 445.924 483.743 446.607 485.109H447.156V457.091H460.433V532H447.412V523.148H446.607C445.924 524.514 444.937 525.965 443.644 527.501C442.352 529.013 440.645 530.305 438.524 531.378C436.402 532.451 433.732 532.988 430.513 532.988ZM434.208 522.124C437.012 522.124 439.401 521.368 441.377 519.857C443.352 518.32 444.851 516.187 445.876 513.456C446.9 510.725 447.412 507.542 447.412 503.909C447.412 500.276 446.9 497.118 445.876 494.436C444.876 491.753 443.388 489.669 441.413 488.181C439.462 486.694 437.061 485.95 434.208 485.95C431.257 485.95 428.794 486.718 426.819 488.254C424.844 489.79 423.356 491.912 422.357 494.619C421.357 497.325 420.857 500.422 420.857 503.909C420.857 507.42 421.357 510.554 422.357 513.309C423.381 516.04 424.881 518.198 426.856 519.783C428.855 521.344 431.306 522.124 434.208 522.124ZM499.415 533.097C493.782 533.097 488.917 531.927 484.821 529.586C480.748 527.221 477.615 523.88 475.42 519.564C473.226 515.223 472.128 510.115 472.128 504.238C472.128 498.459 473.226 493.387 475.42 489.022C477.639 484.633 480.736 481.219 484.711 478.781C488.686 476.318 493.355 475.087 498.72 475.087C502.182 475.087 505.45 475.647 508.522 476.769C511.619 477.866 514.35 479.573 516.715 481.89C519.105 484.206 520.983 487.157 522.348 490.741C523.714 494.302 524.397 498.545 524.397 503.47V507.53H478.347V498.605H511.704C511.68 496.069 511.131 493.814 510.059 491.839C508.986 489.839 507.486 488.266 505.56 487.12C503.658 485.974 501.439 485.401 498.903 485.401C496.196 485.401 493.818 486.06 491.77 487.376C489.722 488.669 488.125 490.376 486.979 492.497C485.857 494.594 485.284 496.899 485.259 499.41V507.201C485.259 510.469 485.857 513.273 487.052 515.614C488.247 517.93 489.917 519.71 492.063 520.954C494.209 522.173 496.72 522.783 499.598 522.783C501.524 522.783 503.267 522.514 504.828 521.978C506.389 521.417 507.742 520.6 508.888 519.527C510.034 518.454 510.9 517.125 511.485 515.54L523.848 516.93C523.068 520.198 521.58 523.051 519.386 525.489C517.215 527.903 514.436 529.781 511.046 531.122C507.657 532.439 503.78 533.097 499.415 533.097ZM584.172 475.818L564.165 532H549.534L529.526 475.818H543.645L556.557 517.552H557.142L570.09 475.818H584.172Z" fill="white"/>
</g>
<defs>
<clipPath id="clip0_207_4138">
<rect width="636" height="629" fill="white"/>
</clipPath>
</defs>
</svg>
