<svg width="636" height="629" viewBox="0 0 636 629" fill="none" xmlns="http://www.w3.org/2000/svg">
<g clip-path="url(#clip0_480_3755)">
<mask id="mask0_480_3755" style="mask-type:alpha" maskUnits="userSpaceOnUse" x="123" y="82" width="390" height="466">
<path d="M513 82L397.096 165.297H318.071H317.929H238.904L123 82C134.391 126.14 140.514 172.416 140.514 219.974C140.514 248.451 138.378 276.502 134.106 303.84L185.366 370.905C193.197 378.736 198.038 389.7 198.038 401.66C198.038 416.611 190.492 429.711 178.958 437.542L206.724 490.51L317.786 547.466V547.608H317.929H318.071V547.466L429.134 490.51L456.899 437.542C445.366 429.711 437.819 416.611 437.819 401.66C437.819 389.7 442.66 378.736 450.492 370.905L501.751 303.84C497.622 276.502 495.344 248.451 495.344 219.974C495.486 172.274 501.609 126.14 513 82ZM257.556 357.378C256.275 358.232 254.993 358.802 253.57 358.944C252.715 359.229 252.003 359.371 251.007 359.514C230.788 363.073 217.118 354.388 211.28 350.401C210.853 350.116 210.284 349.689 209.857 349.404C209.714 349.262 209.572 349.119 209.429 349.119C203.164 344.848 186.078 322.493 186.078 322.493C185.935 322.208 185.651 322.066 185.508 321.781C184.227 319.93 183.657 317.794 183.8 315.801C183.942 312.526 185.508 309.251 188.498 307.257C189.21 306.83 189.922 306.403 190.777 306.118C191.061 305.976 191.204 305.976 191.489 305.834C191.631 305.834 191.916 305.691 192.058 305.691C192.2 305.691 192.485 305.549 192.628 305.549H192.77H192.912C193.055 305.549 193.34 305.549 193.482 305.549C215.837 303.128 227.797 307.4 227.797 307.4C227.94 307.4 228.082 307.4 228.082 307.542C229.933 307.827 231.784 308.396 233.493 309.108C248.444 315.089 256.844 331.606 256.844 331.606C256.844 331.606 262.255 340.007 262.398 347.696C262.398 351.398 260.831 355.242 257.556 357.378ZM340.711 424.87C340.568 426.721 339.857 428.287 338.717 429.568L322.912 445.374C322.77 445.516 322.628 445.658 322.628 445.658L322.343 445.943V453.917C322.343 456.48 320.207 458.616 317.644 458.616C315.081 458.616 312.945 456.48 312.945 453.917V445.943L312.66 445.658C312.518 445.516 312.518 445.516 312.376 445.374L296.428 429.426C295.289 428.287 294.577 426.578 294.435 424.87V424.727C294.435 424.585 294.435 424.585 294.435 424.443C294.435 420.456 297.71 417.181 301.697 417.181H302.124H317.786H333.449H333.876C337.863 417.181 341.138 420.456 341.138 424.443C340.853 424.585 340.711 424.727 340.711 424.87Z" fill="#D9D9D9"/>
</mask>
<g mask="url(#mask0_480_3755)">
<g filter="url(#filter0_f_480_3755)">
<circle cx="532.364" cy="431.562" r="214.294" fill="#F75D21"/>
</g>
<g filter="url(#filter1_f_480_3755)">
<circle cx="317.36" cy="306.26" r="214.294" fill="#F75D21"/>
</g>
<g filter="url(#filter2_f_480_3755)">
<circle cx="581.489" cy="287.038" r="139.54" fill="#E44B0F"/>
</g>
<g filter="url(#filter3_f_480_3755)">
<circle cx="532.364" cy="2.97519" r="214.294" fill="#F96A89"/>
</g>
<g filter="url(#filter4_f_480_3755)">
<circle cx="103.778" cy="270.664" r="214.294" fill="#FFD848"/>
</g>
<g filter="url(#filter5_f_480_3755)">
<circle cx="129.407" cy="-146.533" r="214.294" fill="#FFC700"/>
</g>
<g filter="url(#filter6_f_480_3755)">
<circle cx="165.004" cy="686.436" r="214.294" fill="#60C6FF"/>
</g>
</g>
</g>
<defs>
<filter id="filter0_f_480_3755" x="218.07" y="117.269" width="628.586" height="628.587" filterUnits="userSpaceOnUse" color-interpolation-filters="sRGB">
<feFlood flood-opacity="0" result="BackgroundImageFix"/>
<feBlend mode="normal" in="SourceGraphic" in2="BackgroundImageFix" result="shape"/>
<feGaussianBlur stdDeviation="50" result="effect1_foregroundBlur_480_3755"/>
</filter>
<filter id="filter1_f_480_3755" x="3.06641" y="-8.0332" width="628.586" height="628.587" filterUnits="userSpaceOnUse" color-interpolation-filters="sRGB">
<feFlood flood-opacity="0" result="BackgroundImageFix"/>
<feBlend mode="normal" in="SourceGraphic" in2="BackgroundImageFix" result="shape"/>
<feGaussianBlur stdDeviation="50" result="effect1_foregroundBlur_480_3755"/>
</filter>
<filter id="filter2_f_480_3755" x="341.949" y="47.498" width="479.078" height="479.08" filterUnits="userSpaceOnUse" color-interpolation-filters="sRGB">
<feFlood flood-opacity="0" result="BackgroundImageFix"/>
<feBlend mode="normal" in="SourceGraphic" in2="BackgroundImageFix" result="shape"/>
<feGaussianBlur stdDeviation="50" result="effect1_foregroundBlur_480_3755"/>
</filter>
<filter id="filter3_f_480_3755" x="218.07" y="-311.318" width="628.586" height="628.587" filterUnits="userSpaceOnUse" color-interpolation-filters="sRGB">
<feFlood flood-opacity="0" result="BackgroundImageFix"/>
<feBlend mode="normal" in="SourceGraphic" in2="BackgroundImageFix" result="shape"/>
<feGaussianBlur stdDeviation="50" result="effect1_foregroundBlur_480_3755"/>
</filter>
<filter id="filter4_f_480_3755" x="-210.516" y="-43.6299" width="628.586" height="628.587" filterUnits="userSpaceOnUse" color-interpolation-filters="sRGB">
<feFlood flood-opacity="0" result="BackgroundImageFix"/>
<feBlend mode="normal" in="SourceGraphic" in2="BackgroundImageFix" result="shape"/>
<feGaussianBlur stdDeviation="50" result="effect1_foregroundBlur_480_3755"/>
</filter>
<filter id="filter5_f_480_3755" x="-184.887" y="-460.826" width="628.586" height="628.587" filterUnits="userSpaceOnUse" color-interpolation-filters="sRGB">
<feFlood flood-opacity="0" result="BackgroundImageFix"/>
<feBlend mode="normal" in="SourceGraphic" in2="BackgroundImageFix" result="shape"/>
<feGaussianBlur stdDeviation="50" result="effect1_foregroundBlur_480_3755"/>
</filter>
<filter id="filter6_f_480_3755" x="-149.289" y="372.143" width="628.586" height="628.587" filterUnits="userSpaceOnUse" color-interpolation-filters="sRGB">
<feFlood flood-opacity="0" result="BackgroundImageFix"/>
<feBlend mode="normal" in="SourceGraphic" in2="BackgroundImageFix" result="shape"/>
<feGaussianBlur stdDeviation="50" result="effect1_foregroundBlur_480_3755"/>
</filter>
<clipPath id="clip0_480_3755">
<rect width="636" height="629" fill="white"/>
</clipPath>
</defs>
</svg>
