<svg width="636" height="629" viewBox="0 0 636 629" fill="none" xmlns="http://www.w3.org/2000/svg">
<g clip-path="url(#clip0_480_3766)">
<path d="M515 79L397.908 163.261H318.072H317.928H238.092L121 79C132.508 123.651 138.693 170.463 138.693 218.572C138.693 247.379 136.536 275.754 132.22 303.409L184.005 371.25C191.917 379.172 196.808 390.263 196.808 402.362C196.808 417.486 189.184 430.738 177.532 438.66L205.583 492.241L317.784 549.856V550H317.928H318.072V549.856L430.273 492.241L458.324 438.66C446.672 430.738 439.048 417.486 439.048 402.362C439.048 390.263 443.939 379.172 451.851 371.25L503.636 303.409C499.464 275.754 497.163 247.379 497.163 218.572C497.307 170.319 503.492 123.651 515 79ZM256.936 357.567C255.642 358.431 254.347 359.007 252.909 359.151C252.046 359.439 251.326 359.583 250.319 359.728C229.893 363.328 216.084 354.542 210.186 350.509C209.754 350.221 209.179 349.789 208.747 349.501C208.604 349.357 208.46 349.213 208.316 349.213C201.986 344.892 184.725 322.278 184.725 322.278C184.581 321.99 184.293 321.846 184.149 321.558C182.855 319.685 182.279 317.525 182.423 315.508C182.567 312.195 184.149 308.883 187.17 306.866C187.889 306.434 188.609 306.002 189.472 305.714C189.759 305.57 189.903 305.57 190.191 305.426C190.335 305.426 190.622 305.282 190.766 305.282C190.91 305.282 191.198 305.138 191.342 305.138H191.486H191.629C191.773 305.138 192.061 305.138 192.205 305.138C214.789 302.689 226.872 307.01 226.872 307.01C227.016 307.01 227.16 307.01 227.16 307.154C229.03 307.442 230.9 308.018 232.626 308.739C247.73 314.788 256.217 331.496 256.217 331.496C256.217 331.496 261.683 339.995 261.827 347.772C261.827 351.517 260.245 355.406 256.936 357.567ZM340.944 425.84C340.8 427.713 340.081 429.297 338.93 430.594L322.963 446.582C322.819 446.726 322.675 446.87 322.675 446.87L322.387 447.158V455.224C322.387 457.817 320.23 459.977 317.64 459.977C315.051 459.977 312.893 457.817 312.893 455.224V447.158L312.606 446.87C312.462 446.726 312.462 446.726 312.318 446.582L296.207 430.45C295.056 429.297 294.337 427.569 294.193 425.84V425.696C294.193 425.552 294.193 425.552 294.193 425.408C294.193 421.375 297.502 418.062 301.529 418.062H301.961H317.784H333.608H334.039C338.067 418.062 341.375 421.375 341.375 425.408C341.088 425.552 340.944 425.696 340.944 425.84Z" fill="white"/>
</g>
<defs>
<clipPath id="clip0_480_3766">
<rect width="636" height="629" fill="white"/>
</clipPath>
</defs>
</svg>
