<svg width="636" height="629" viewBox="0 0 636 629" fill="none" xmlns="http://www.w3.org/2000/svg">
<g clip-path="url(#clip0_207_4142)">
<path d="M458 81L375.679 140.216H319.551H319.449H263.321L181 81C189.091 112.379 193.439 145.277 193.439 179.085C193.439 199.33 191.922 219.271 188.888 238.706L225.296 286.382C230.858 291.949 234.296 299.743 234.296 308.246C234.296 318.875 228.936 328.187 220.745 333.754L240.465 371.41L319.348 411.899V412H319.449H319.551V411.899L398.433 371.41L418.154 333.754C409.962 328.187 404.602 318.875 404.602 308.246C404.602 299.743 408.041 291.949 413.603 286.382L450.011 238.706C447.078 219.271 445.46 199.33 445.46 179.085C445.561 145.176 449.909 112.379 458 81ZM276.57 276.766C275.659 277.373 274.749 277.778 273.738 277.879C273.131 278.082 272.625 278.183 271.917 278.284C257.557 280.815 247.848 274.64 243.702 271.806C243.398 271.603 242.994 271.3 242.69 271.097C242.589 270.996 242.488 270.895 242.387 270.895C237.937 267.858 225.801 251.966 225.801 251.966C225.7 251.764 225.498 251.662 225.397 251.46C224.487 250.144 224.082 248.626 224.183 247.209C224.284 244.88 225.397 242.552 227.521 241.135C228.026 240.832 228.532 240.528 229.139 240.325C229.341 240.224 229.442 240.224 229.644 240.123C229.746 240.123 229.948 240.022 230.049 240.022C230.15 240.022 230.352 239.92 230.453 239.92H230.555H230.656C230.757 239.92 230.959 239.92 231.06 239.92C246.938 238.2 255.433 241.236 255.433 241.236C255.534 241.236 255.635 241.236 255.635 241.338C256.95 241.54 258.265 241.945 259.478 242.451C270.097 246.702 276.064 258.444 276.064 258.444C276.064 258.444 279.907 264.417 280.008 269.883C280.008 272.514 278.896 275.247 276.57 276.766ZM335.631 324.746C335.529 326.061 335.024 327.175 334.215 328.086L322.989 339.322C322.888 339.423 322.787 339.524 322.787 339.524L322.585 339.727V345.395C322.585 347.217 321.068 348.735 319.247 348.735C317.427 348.735 315.91 347.217 315.91 345.395V339.727L315.708 339.524C315.606 339.423 315.606 339.423 315.505 339.322L304.179 327.985C303.369 327.175 302.864 325.96 302.763 324.746V324.644C302.763 324.543 302.763 324.543 302.763 324.442C302.763 321.608 305.089 319.28 307.92 319.28H308.224H319.348H330.473H330.776C333.608 319.28 335.934 321.608 335.934 324.442C335.732 324.543 335.631 324.644 335.631 324.746Z" fill="#1F1F1F"/>
<path d="M83.7727 524H58.3885V449.091H84.2848C91.7221 449.091 98.1108 450.591 103.451 453.59C108.816 456.565 112.937 460.844 115.814 466.428C118.691 472.012 120.13 478.694 120.13 486.472C120.13 494.275 118.679 500.981 115.777 506.589C112.9 512.198 108.742 516.502 103.305 519.501C97.8913 522.5 91.3807 524 83.7727 524ZM71.9585 512.259H83.1143C88.3326 512.259 92.6853 511.308 96.1722 509.406C99.6592 507.48 102.281 504.614 104.036 500.81C105.792 496.982 106.67 492.203 106.67 486.472C106.67 480.742 105.792 475.987 104.036 472.207C102.281 468.403 99.6836 465.563 96.2454 463.685C92.8316 461.783 88.5887 460.832 83.5167 460.832H71.9585V512.259ZM156.944 525.097C151.458 525.097 146.703 523.89 142.68 521.476C138.656 519.062 135.535 515.685 133.316 511.344C131.121 507.004 130.024 501.932 130.024 496.129C130.024 490.325 131.121 485.241 133.316 480.876C135.535 476.511 138.656 473.122 142.68 470.708C146.703 468.294 151.458 467.087 156.944 467.087C162.431 467.087 167.186 468.294 171.209 470.708C175.233 473.122 178.342 476.511 180.536 480.876C182.755 485.241 183.865 490.325 183.865 496.129C183.865 501.932 182.755 507.004 180.536 511.344C178.342 515.685 175.233 519.062 171.209 521.476C167.186 523.89 162.431 525.097 156.944 525.097ZM157.018 514.49C159.992 514.49 162.48 513.673 164.479 512.039C166.479 510.381 167.966 508.162 168.942 505.382C169.941 502.603 170.441 499.506 170.441 496.092C170.441 492.654 169.941 489.545 168.942 486.765C167.966 483.961 166.479 481.73 164.479 480.071C162.48 478.413 159.992 477.584 157.018 477.584C153.97 477.584 151.434 478.413 149.41 480.071C147.41 481.73 145.91 483.961 144.911 486.765C143.935 489.545 143.448 492.654 143.448 496.092C143.448 499.506 143.935 502.603 144.911 505.382C145.91 508.162 147.41 510.381 149.41 512.039C151.434 513.673 153.97 514.49 157.018 514.49ZM215.952 524.988C211.538 524.988 207.588 523.854 204.101 521.586C200.614 519.318 197.859 516.026 195.835 511.71C193.811 507.394 192.799 502.152 192.799 495.982C192.799 489.74 193.823 484.473 195.871 480.181C197.944 475.865 200.736 472.61 204.247 470.415C207.759 468.196 211.672 467.087 215.988 467.087C219.28 467.087 221.987 467.647 224.108 468.769C226.23 469.866 227.912 471.195 229.156 472.756C230.4 474.292 231.363 475.743 232.046 477.109H232.594V449.091H245.872V524H232.85V515.148H232.046C231.363 516.514 230.375 517.965 229.083 519.501C227.79 521.013 226.084 522.305 223.962 523.378C221.841 524.451 219.171 524.988 215.952 524.988ZM219.646 514.124C222.45 514.124 224.84 513.368 226.815 511.857C228.79 510.32 230.29 508.187 231.314 505.456C232.338 502.725 232.85 499.542 232.85 495.909C232.85 492.276 232.338 489.118 231.314 486.436C230.314 483.753 228.827 481.669 226.852 480.181C224.901 478.694 222.499 477.95 219.646 477.95C216.696 477.95 214.233 478.718 212.258 480.254C210.282 481.79 208.795 483.912 207.795 486.619C206.795 489.325 206.296 492.422 206.296 495.909C206.296 499.42 206.795 502.554 207.795 505.309C208.819 508.04 210.319 510.198 212.294 511.783C214.294 513.344 216.744 514.124 219.646 514.124ZM276.148 525.134C272.588 525.134 269.381 524.5 266.528 523.232C263.7 521.94 261.456 520.038 259.798 517.526C258.164 515.014 257.347 511.917 257.347 508.235C257.347 505.065 257.933 502.444 259.103 500.371C260.274 498.299 261.871 496.641 263.895 495.397C265.919 494.153 268.199 493.215 270.735 492.581C273.295 491.922 275.941 491.447 278.672 491.154C281.964 490.813 284.634 490.508 286.682 490.24C288.73 489.947 290.218 489.508 291.144 488.923C292.095 488.313 292.571 487.375 292.571 486.107V485.887C292.571 483.132 291.754 480.998 290.12 479.486C288.486 477.974 286.133 477.218 283.061 477.218C279.818 477.218 277.245 477.926 275.343 479.34C273.466 480.754 272.198 482.424 271.539 484.351L259.176 482.595C260.152 479.181 261.761 476.328 264.004 474.036C266.248 471.72 268.991 469.988 272.234 468.842C275.477 467.672 279.062 467.087 282.988 467.087C285.694 467.087 288.389 467.404 291.071 468.038C293.753 468.672 296.204 469.72 298.423 471.183C300.642 472.622 302.422 474.585 303.763 477.072C305.129 479.559 305.812 482.668 305.812 486.399V524H293.083V516.282H292.644C291.839 517.843 290.705 519.306 289.242 520.672C287.804 522.013 285.987 523.098 283.792 523.927C281.622 524.732 279.074 525.134 276.148 525.134ZM279.586 515.404C282.244 515.404 284.548 514.88 286.499 513.832C288.45 512.759 289.95 511.344 290.998 509.589C292.071 507.833 292.607 505.919 292.607 503.846V497.226C292.193 497.567 291.486 497.884 290.486 498.177C289.511 498.469 288.413 498.725 287.194 498.945C285.975 499.164 284.768 499.359 283.573 499.53C282.378 499.701 281.342 499.847 280.464 499.969C278.489 500.237 276.721 500.676 275.16 501.286C273.6 501.895 272.368 502.749 271.466 503.846C270.564 504.919 270.113 506.309 270.113 508.016C270.113 510.454 271.003 512.295 272.783 513.539C274.563 514.783 276.831 515.404 279.586 515.404ZM343.632 525.097C338.145 525.097 333.39 523.89 329.367 521.476C325.344 519.062 322.222 515.685 320.003 511.344C317.809 507.004 316.711 501.932 316.711 496.129C316.711 490.325 317.809 485.241 320.003 480.876C322.222 476.511 325.344 473.122 329.367 470.708C333.39 468.294 338.145 467.087 343.632 467.087C349.118 467.087 353.873 468.294 357.897 470.708C361.92 473.122 365.029 476.511 367.224 480.876C369.443 485.241 370.552 490.325 370.552 496.129C370.552 501.932 369.443 507.004 367.224 511.344C365.029 515.685 361.92 519.062 357.897 521.476C353.873 523.89 349.118 525.097 343.632 525.097ZM343.705 514.49C346.68 514.49 349.167 513.673 351.167 512.039C353.166 510.381 354.654 508.162 355.629 505.382C356.629 502.603 357.129 499.506 357.129 496.092C357.129 492.654 356.629 489.545 355.629 486.765C354.654 483.961 353.166 481.73 351.167 480.071C349.167 478.413 346.68 477.584 343.705 477.584C340.657 477.584 338.121 478.413 336.097 480.071C334.098 481.73 332.598 483.961 331.598 486.765C330.623 489.545 330.135 492.654 330.135 496.092C330.135 499.506 330.623 502.603 331.598 505.382C332.598 508.162 334.098 510.381 336.097 512.039C338.121 513.673 340.657 514.49 343.705 514.49ZM389.947 524.805C387.728 524.805 385.826 524.024 384.241 522.464C382.656 520.903 381.876 519.001 381.9 516.758C381.876 514.563 382.656 512.686 384.241 511.125C385.826 509.564 387.728 508.784 389.947 508.784C392.093 508.784 393.958 509.564 395.543 511.125C397.153 512.686 397.97 514.563 397.994 516.758C397.97 518.245 397.58 519.599 396.824 520.818C396.092 522.037 395.117 523.012 393.897 523.744C392.703 524.451 391.386 524.805 389.947 524.805ZM432.513 524.988C428.1 524.988 424.149 523.854 420.662 521.586C417.175 519.318 414.42 516.026 412.396 511.71C410.372 507.394 409.36 502.152 409.36 495.982C409.36 489.74 410.384 484.473 412.433 480.181C414.505 475.865 417.297 472.61 420.809 470.415C424.32 468.196 428.234 467.087 432.55 467.087C435.842 467.087 438.548 467.647 440.67 468.769C442.791 469.866 444.474 471.195 445.718 472.756C446.961 474.292 447.924 475.743 448.607 477.109H449.156V449.091H462.433V524H449.412V515.148H448.607C447.924 516.514 446.937 517.965 445.644 519.501C444.352 521.013 442.645 522.305 440.524 523.378C438.402 524.451 435.732 524.988 432.513 524.988ZM436.208 514.124C439.012 514.124 441.401 513.368 443.377 511.857C445.352 510.32 446.851 508.187 447.876 505.456C448.9 502.725 449.412 499.542 449.412 495.909C449.412 492.276 448.9 489.118 447.876 486.436C446.876 483.753 445.388 481.669 443.413 480.181C441.462 478.694 439.061 477.95 436.208 477.95C433.257 477.95 430.794 478.718 428.819 480.254C426.844 481.79 425.356 483.912 424.357 486.619C423.357 489.325 422.857 492.422 422.857 495.909C422.857 499.42 423.357 502.554 424.357 505.309C425.381 508.04 426.881 510.198 428.856 511.783C430.855 513.344 433.306 514.124 436.208 514.124ZM501.415 525.097C495.782 525.097 490.917 523.927 486.821 521.586C482.748 519.221 479.615 515.88 477.42 511.564C475.226 507.223 474.128 502.115 474.128 496.238C474.128 490.459 475.226 485.387 477.42 481.022C479.639 476.633 482.736 473.219 486.711 470.781C490.686 468.318 495.355 467.087 500.72 467.087C504.182 467.087 507.45 467.647 510.522 468.769C513.619 469.866 516.35 471.573 518.715 473.89C521.105 476.206 522.983 479.157 524.348 482.741C525.714 486.302 526.397 490.545 526.397 495.47V499.53H480.347V490.605H513.704C513.68 488.069 513.131 485.814 512.059 483.839C510.986 481.839 509.486 480.266 507.56 479.12C505.658 477.974 503.439 477.401 500.903 477.401C498.196 477.401 495.818 478.06 493.77 479.376C491.722 480.669 490.125 482.376 488.979 484.497C487.857 486.594 487.284 488.899 487.259 491.41V499.201C487.259 502.469 487.857 505.273 489.052 507.614C490.247 509.93 491.917 511.71 494.063 512.954C496.209 514.173 498.72 514.783 501.598 514.783C503.524 514.783 505.267 514.514 506.828 513.978C508.389 513.417 509.742 512.6 510.888 511.527C512.034 510.454 512.9 509.125 513.485 507.54L525.848 508.93C525.068 512.198 523.58 515.051 521.386 517.489C519.215 519.903 516.436 521.781 513.046 523.122C509.657 524.439 505.78 525.097 501.415 525.097ZM586.172 467.818L566.165 524H551.534L531.526 467.818H545.645L558.557 509.552H559.142L572.09 467.818H586.172Z" fill="#1F1F1F"/>
</g>
<defs>
<clipPath id="clip0_207_4142">
<rect width="636" height="629" fill="white"/>
</clipPath>
</defs>
</svg>
