<svg width="1287" height="1279" viewBox="0 0 1287 1279" fill="none" xmlns="http://www.w3.org/2000/svg">
<path d="M233.949 568.494V1070.56L295.35 1062.94L298.487 642.907L233.949 568.494Z" fill="#70B1B4"/>
<path d="M211.988 1062.94L205.041 135.239C205.041 135.239 208.851 47.1533 284.817 37.9637C360.783 28.7741 607.728 21.6018 667.112 25.6362C760.557 32.1362 896.355 83.015 929.072 100.722C1010.64 145.325 1077.64 181.411 1175.79 312.082C1253.55 415.633 1265.65 499.011 1273.05 602.338C1274.84 628.338 1273.05 756.319 1225.09 853.146C1199.77 904.025 1178.93 942.8 1142.63 978.438C1096.24 1023.94 1036.19 1059.8 1032.15 1059.8C1021.4 1060.02 211.988 1062.94 211.988 1062.94Z" fill="url(#paint0_linear_619_4561)"/>
<path d="M665.768 305.807L836.747 312.979V297.738C836.747 297.738 886.047 277.566 912.713 279.359C939.38 281.376 971.873 281.376 1018.71 301.1C1065.54 321.048 1078.54 327.772 1078.99 331.134C1079.44 334.496 1085.04 345.927 1052.77 352.427C1020.5 358.927 903.526 359.6 897.475 359.6C891.425 359.6 786.551 343.686 781.621 340.996C776.692 338.307 767.056 326.427 752.266 323.738C737.028 321.272 665.768 305.807 665.768 305.807Z" fill="#464871"/>
<path d="M901.061 359.823C901.061 359.823 873.498 390.306 872.601 390.754C871.705 391.202 832.041 388.513 832.041 388.513L828.904 364.53L810.305 360.047V352.427L819.941 345.479L901.061 359.823Z" fill="#374761"/>
<path d="M788.12 310.961C787.896 310.961 782.069 262.996 782.069 262.996L836.523 305.358V315.22L788.12 310.961Z" fill="#B56F74"/>
<path d="M874.618 289.221V269.049L884.926 266.359L932.657 283.17L883.582 285.411L872.601 289.221L870.36 290.79" fill="#5B4844"/>
<path d="M194.285 459.787C194.285 459.787 145.882 302.444 245.826 250.893C345.769 199.341 492.547 230.048 514.06 295.944C527.057 336.512 514.06 334.495 514.06 334.495C514.06 334.495 535.572 315.892 574.564 330.909C602.127 341.443 624.984 365.202 614.676 438.494C604.368 511.787 504.872 771.56 504.872 771.56C504.872 771.56 203.025 659.492 205.042 653.665C207.058 648.061 194.285 459.787 194.285 459.787Z" fill="#FEFCED"/>
<path d="M831.369 877.129C831.369 877.129 823.974 793.302 898.371 804.957C948.567 812.802 947.447 862.336 947.447 862.336C947.447 862.336 966.718 820.871 1014.9 839.026C1063.08 857.181 1063.75 957.146 1061.96 960.732C1059.94 964.094 991.816 1080.87 991.816 1080.87L857.587 1044.33L821.061 941.232L831.369 877.129Z" fill="#FFFFFB"/>
<path d="M302.744 74.0508H343.08L407.169 150.257V1062.94H295.349L302.744 74.0508Z" fill="url(#paint1_linear_619_4561)"/>
<path d="M302.519 106.999L283.696 77.8613L267.113 109.016V568.495L302.519 619.598V106.999Z" fill="url(#paint2_linear_619_4561)"/>
<path d="M205.041 463.822L302.52 607.045L295.349 1062.94H211.988L205.041 463.822Z" fill="#B66D69"/>
<path d="M407.169 675.183H475.068V594.27H527.729V624.976H534.675V619.597H581.062V1062.94H407.169V675.183Z" fill="url(#paint3_linear_619_4561)"/>
<path d="M483.359 602.787H514.06V633.27H483.359V607.27V602.787Z" fill="white"/>
<path d="M1134.11 618.029L1156.3 606.598L1153.16 594.494H1145.09L1188.12 515.15C1188.12 515.15 1204.93 714.407 1204.93 756.993C1204.93 799.803 1192.82 932.491 1192.82 932.491L1134.11 992.784V618.029Z" fill="#F75D21"/>
<path d="M1029.69 408.908L1105.88 541.597V1018.56L1041.79 1062.94H1025.88L1029.69 408.908Z" fill="#F75D21"/>
<path d="M1134.11 678.993L1149.35 666.89L1152.26 608.615L1166.16 602.787L1180.72 655.459L1199.55 658.373L1188.12 937.422L1145.09 981.353L1134.11 678.993Z" fill="url(#paint4_linear_619_4561)"/>
<path d="M1025.88 505.062L1038.87 525.011H1054.79L1051.65 602.786C1051.65 602.786 1062.4 612.648 1058.59 626.544C1054.79 640.216 1035.74 647.165 1035.74 647.165L1034.17 656.354H1059.49V691.544H1075.4V657.923H1105.88V1018.78L1041.79 1062.94H991.368V698.94H1021.17V639.32L1022.74 602.786V505.062H1025.88Z" fill="url(#paint5_linear_619_4561)"/>
<path d="M1201.34 828.715H1220.39V784.112L1229.57 763.043H1264.53L1205.15 912.542L1192.82 932.266L1201.34 828.715Z" fill="#E0B597"/>
<line x1="441.522" y1="26.3809" x2="441.522" y2="1056.38" stroke="#2C586B" stroke-width="13" stroke-linecap="round"/>
<path d="M698.485 753.855H763.47V728.527H786.328V735.924H795.515V728.527H822.182V747.803H831.369V781.199H881.789V910.302H947.223V1070.56H626.776V840.819L690.642 763.493L698.485 753.855Z" fill="url(#paint6_linear_619_4561)"/>
<path d="M371.987 408.908V633.268" stroke="#F7B986" stroke-width="5" stroke-miterlimit="10"/>
<path d="M390.139 475.926V657.028" stroke="#F7B986" stroke-width="5" stroke-miterlimit="10"/>
<path d="M752.042 763.492H772.658V811.906H822.854V769.096H831.369V834.767H752.042V763.492Z" fill="#FBE6C1"/>
<path d="M752.041 1070.56V907.163H780.277V875.112H791.705V858.302H835.178V834.767H752.041V763.492H714.619V815.716H690.865L642.91 881.164L633.723 1070.56H752.041Z" fill="url(#paint7_linear_619_4561)"/>
<path d="M1281.12 518.736C1267.67 387.392 1165.93 255.824 1046.94 156.98C919.661 51.4124 728.289 11.9644 669.353 8.15413C583.527 2.77487 215.798 -0.587151 190.252 0.0852568C162.017 1.20594 162.017 25.4126 162.017 25.4126V1066.52H1048.74C1048.74 1066.52 1127.61 1029.09 1192.82 936.077C1268.57 828.043 1298.82 692.441 1281.12 518.736ZM1225.09 853.595C1199.77 904.474 1178.93 943.249 1142.63 978.887C1096.24 1024.39 1036.19 1060.25 1032.15 1060.25C1021.4 1060.25 211.764 1063.16 211.764 1063.16L204.818 135.463C204.818 135.463 208.627 47.3779 284.593 38.1884C360.559 28.9988 607.505 21.8264 666.888 25.8609C760.333 32.3608 896.131 83.2397 928.848 100.946C1010.42 145.549 1077.42 181.635 1175.57 312.307C1253.33 415.857 1265.43 499.236 1272.82 602.563C1274.84 628.786 1273.05 756.768 1225.09 853.595Z" fill="url(#paint8_linear_619_4561)"/>
<path d="M233.949 568.494V1070.56L295.35 1062.94L298.487 642.907L233.949 568.494Z" fill="url(#paint9_linear_619_4561)"/>
<path d="M94.3412 1066.75H1083.69C1083.69 1066.75 1109.69 1064.51 1105.88 1081.99C1102.07 1099.47 1086.83 1124.8 1079.21 1127.04C1071.59 1129.28 1006.83 1127.04 1006.83 1127.04H115.854C115.854 1127.04 96.8062 1112.02 94.5653 1097.45C92.3244 1082.89 94.5653 1069.89 94.5653 1069.89V1066.75H94.3412Z" fill="#494D66"/>
<path d="M116.526 1156.63C120.336 1164.25 127.283 1182.63 140.28 1184.2C153.277 1185.76 971.873 1184.2 971.873 1184.2C971.873 1184.2 977.251 1156.63 997.867 1148.33C1018.48 1140.04 1061.96 1127.94 1061.96 1127.94L116.078 1126.82L116.526 1156.63Z" fill="#313F62"/>
<path d="M469.69 1147.88L649.409 1144.75C649.409 1144.75 652.77 1124.13 649.409 1117.63C646.047 1111.13 622.294 1073.92 622.294 1073.92L597.196 887.439L435.852 877.801L359.214 976.869L364.144 1066.52C364.144 1066.52 393.948 1103.51 396.189 1104.63C398.429 1105.97 469.69 1147.88 469.69 1147.88Z" fill="url(#paint10_linear_619_4561)" stroke="black" stroke-miterlimit="10"/>
<path d="M650.081 494.753C650.081 494.753 678.54 487.357 704.311 467.185C730.081 447.236 738.596 435.133 740.837 434.461C743.078 433.788 741.509 444.099 740.837 460.685C740.165 477.271 736.803 528.149 738.596 533.977C740.389 539.805 740.389 539.805 740.389 539.805C740.389 539.805 694.675 513.132 673.386 508.426C650.529 503.27 650.529 503.27 650.529 503.27L650.081 494.753Z" fill="#ED6B39"/>
<line x1="208.522" y1="597.381" x2="1279.52" y2="597.381" stroke="url(#paint11_linear_619_4561)" stroke-width="13" stroke-linecap="round"/>
<mask id="mask0_619_4561" style="mask-type:alpha" maskUnits="userSpaceOnUse" x="212" y="414" width="576" height="865">
<path d="M400.447 1102.39C411.875 1111.58 446.385 1121.66 463.64 1133.09C467.898 1136.01 473.052 1140.71 477.533 1146.77C491.427 1164.92 501.287 1195.4 474.172 1226.78C438.094 1268.47 373.108 1281.92 322.464 1277.88C271.372 1273.63 240.448 1256.82 222.072 1220.73C203.697 1184.64 213.781 1156.85 228.571 1140.27C243.361 1123.68 256.806 1117.18 278.991 1115.83C301.4 1114.71 326.946 1126.82 316.19 1139.37C308.122 1148.78 284.145 1130.63 255.237 1151.25C235.742 1164.92 236.414 1208.63 264.873 1231.04C308.795 1265.78 372.884 1255.47 412.548 1235.52C451.987 1215.57 459.83 1195.18 454.228 1179.26C446.609 1157.97 422.183 1152.82 400.447 1145.42C378.71 1138.02 363.92 1117.4 362.576 1113.59C361.007 1109.78 346.217 1088.71 343.528 1058.68C340.839 1028.65 343.08 974.853 343.528 967.905C343.977 960.956 354.509 918.595 374.901 878.25C395.069 837.906 452.66 773.803 470.587 754.976C488.514 736.148 550.362 695.355 554.172 690.424C557.981 685.493 570.082 643.58 571.651 637.752C573.219 631.925 571.651 614.442 569.634 604.58C567.617 594.718 564.256 563.788 563.135 525.236C562.015 486.685 593.611 414.289 593.611 414.289C593.611 414.289 631.706 465.392 640.446 481.53C645.152 490.047 650.306 495.202 650.306 495.202C650.306 495.202 722.014 521.65 730.978 529.495C739.941 537.564 753.162 555.271 753.162 555.271C753.162 555.271 759.213 567.598 762.35 573.426C765.263 579.253 773.106 593.598 779.381 598.977C785.655 604.356 788.569 604.805 787.224 609.736C785.879 614.666 767.728 649.408 762.574 652.545C757.42 655.683 730.978 668.683 714.171 667.338C697.364 665.994 683.471 667.114 683.471 667.114L661.286 709.476C661.286 709.476 687.505 725.614 691.314 729.872C695.124 734.131 708.121 747.131 704.087 774.251C700.053 801.372 691.314 823.337 674.731 848.889C658.149 874.44 659.269 875.112 659.269 875.112C659.269 875.112 644.031 957.37 641.342 988.749C638.653 1020.13 637.981 1056.66 637.981 1056.66C637.981 1056.66 631.931 1065.4 646.272 1068.32C660.39 1071.23 673.835 1073.02 677.421 1080.42C680.782 1087.82 684.815 1100.14 680.558 1107.99C676.3 1115.61 676.3 1115.61 676.3 1115.61H648.289C648.289 1115.61 653.443 1125.47 651.874 1133.77C650.306 1142.06 649.634 1145.42 649.634 1145.42C649.634 1145.42 651.426 1139.14 651.874 1128.16C652.547 1117.18 640.894 1103.06 631.931 1099.02C622.967 1094.99 546.777 1099.02 546.777 1099.02C546.777 1099.02 554.844 1084.23 570.754 1048.15C586.665 1012.06 583.303 960.508 579.942 946.836C576.581 933.164 550.81 898.871 538.261 890.13C525.712 881.612 500.39 886.095 451.763 907.836C403.136 929.577 372.212 1033.13 372.212 1033.13" fill="url(#paint12_linear_619_4561)"/>
</mask>
<g mask="url(#mask0_619_4561)">
<g filter="url(#filter0_f_619_4561)">
<path d="M1078.02 598.881C1078.02 756.834 948.634 884.881 789.023 884.881C629.413 884.881 500.023 756.834 500.023 598.881C500.023 440.927 629.413 312.881 789.023 312.881C948.634 312.881 1078.02 440.927 1078.02 598.881Z" fill="#F75D21"/>
</g>
<g filter="url(#filter1_f_619_4561)">
<path d="M1069.02 941.881C1069.02 1099.83 939.634 1227.88 780.023 1227.88C620.413 1227.88 491.023 1099.83 491.023 941.881C491.023 783.927 620.413 655.881 780.023 655.881C939.634 655.881 1069.02 783.927 1069.02 941.881Z" fill="#F75D21"/>
</g>
<g filter="url(#filter2_f_619_4561)">
<path d="M672.023 1187.88C672.023 1345.83 542.634 1473.88 383.023 1473.88C223.413 1473.88 94.0234 1345.83 94.0234 1187.88C94.0234 1029.93 223.413 901.881 383.023 901.881C542.634 901.881 672.023 1029.93 672.023 1187.88Z" fill="#F75D21"/>
</g>
<g filter="url(#filter3_f_619_4561)">
<path d="M958.945 485.19C931.568 587.363 825.573 647.737 722.199 620.038C618.824 592.339 557.217 487.056 584.594 384.883C611.971 282.709 717.966 222.335 821.341 250.034C924.715 277.733 986.323 383.016 958.945 485.19Z" fill="#F96A89"/>
</g>
<g filter="url(#filter4_f_619_4561)">
<path d="M562.945 852.19C535.568 954.363 429.573 1014.74 326.199 987.038C222.824 959.339 161.217 854.056 188.594 751.883C215.971 649.709 321.966 589.335 425.341 617.034C528.715 644.733 590.323 750.016 562.945 852.19Z" fill="#F96A89"/>
</g>
<g filter="url(#filter5_f_619_4561)">
<path d="M450.945 1441.19C423.568 1543.36 317.573 1603.74 214.199 1576.04C110.824 1548.34 49.2166 1443.06 76.594 1340.88C103.971 1238.71 209.966 1178.34 313.341 1206.03C416.715 1233.73 478.323 1339.02 450.945 1441.19Z" fill="#F96A89"/>
</g>
<g filter="url(#filter6_f_619_4561)">
<path d="M1193.02 830.381C1193.02 963.758 1083.56 1071.88 948.523 1071.88C813.49 1071.88 704.023 963.758 704.023 830.381C704.023 697.004 813.49 588.881 948.523 588.881C1083.56 588.881 1193.02 697.004 1193.02 830.381Z" fill="#FFD848"/>
</g>
<g filter="url(#filter7_f_619_4561)">
<path d="M600.023 494.381C600.023 541.049 561.744 578.881 514.523 578.881C467.303 578.881 429.023 541.049 429.023 494.381C429.023 447.713 467.303 409.881 514.523 409.881C561.744 409.881 600.023 447.713 600.023 494.381Z" fill="#FFD848"/>
</g>
<g filter="url(#filter8_f_619_4561)">
<path d="M781.023 981.881C781.023 1067.48 742.744 1136.88 695.523 1136.88C648.303 1136.88 610.023 1067.48 610.023 981.881C610.023 896.277 648.303 826.881 695.523 826.881C742.744 826.881 781.023 896.277 781.023 981.881Z" fill="#FFD848"/>
</g>
<g filter="url(#filter9_f_619_4561)">
<path d="M443.093 730.099C478.858 762.251 430.326 874.55 334.695 980.924C239.063 1087.3 132.545 1147.47 96.7809 1115.32C61.0163 1083.16 109.548 970.864 205.18 864.489C300.811 758.115 407.329 697.946 443.093 730.099Z" fill="#60C6FF"/>
</g>
<g filter="url(#filter10_f_619_4561)">
<path d="M240.976 866.354C323.484 928.472 320.626 1071.47 234.591 1185.74C148.557 1300.02 11.9259 1342.3 -70.5823 1280.18C-153.09 1218.07 -150.232 1075.07 -64.1974 960.796C21.837 846.52 158.468 804.237 240.976 866.354Z" fill="#60C6FF"/>
</g>
<g filter="url(#filter11_f_619_4561)">
<path d="M785.023 683.381C785.023 715.137 749.43 740.881 705.523 740.881C661.617 740.881 626.023 715.137 626.023 683.381C626.023 651.624 661.617 625.881 705.523 625.881C749.43 625.881 785.023 651.624 785.023 683.381Z" fill="#60C6FF"/>
</g>
<g filter="url(#filter12_f_619_4561)">
<path d="M1205.02 500.881C1205.02 604.158 1089.07 687.881 946.023 687.881C802.982 687.881 687.023 604.158 687.023 500.881C687.023 397.604 802.982 313.881 946.023 313.881C1089.07 313.881 1205.02 397.604 1205.02 500.881Z" fill="#60C6FF"/>
</g>
</g>
<path d="M691.089 581.942C691.089 581.942 683.022 567.597 693.106 562.218C702.966 556.839 712.154 558.183 717.084 562.218C722.013 566.252 736.579 581.269 738.82 587.769C741.061 594.269 742.181 600.321 742.181 600.321C742.181 600.321 727.84 602.338 721.341 600.321C714.843 598.304 697.14 588.442 696.019 587.321C694.899 586.2 691.089 581.942 691.089 581.942Z" fill="white"/>
<path d="M631.93 561.322C641.117 564.46 650.081 568.719 658.596 573.426C667.112 578.357 675.403 583.96 682.574 590.908C686.159 594.494 689.52 598.305 692.21 602.787C693.554 605.029 694.674 607.494 695.347 609.96C696.019 612.201 696.915 614.667 697.588 616.908C698.932 621.615 700.053 626.546 700.949 631.253C701.397 633.718 701.621 636.184 701.845 638.649C702.069 641.115 702.069 643.58 701.621 646.494L700.501 644.701L743.974 660.39L699.604 647.615L698.708 647.39V646.046C698.708 645.149 698.708 643.804 698.484 642.684C698.26 641.563 698.26 640.442 698.036 639.097C697.588 636.856 697.139 634.391 696.467 632.149C695.347 627.442 694.002 622.96 692.434 618.253L690.193 611.305C689.52 609.063 688.624 607.046 687.504 605.253C685.263 601.218 682.35 597.632 678.988 594.27C672.49 587.546 664.871 581.494 656.803 576.115C648.736 571.184 640.445 566.029 631.93 561.322Z" fill="url(#paint13_linear_619_4561)"/>
<path d="M755.162 658.028C755.162 658.028 779.367 623.174 778.022 614.881C776.678 606.588 772.226 612.887 765.022 602.881C756.022 590.381 762.03 553.847 721.022 538.382C679.79 522.917 640.417 516.088 633.022 504.881C625.627 493.674 660.111 504.641 669.522 506.883C678.934 509.124 717.067 517.719 730.512 528.254C743.958 538.788 761.885 571.512 769.056 585.184C776.227 598.857 789.224 606.925 789.224 606.925C789.224 606.925 766.591 651.977 765.022 652.425C763.454 652.873 761.661 654.666 761.661 654.666L755.162 658.028Z" fill="url(#paint14_linear_619_4561)"/>
<path d="M662.406 705.889C661.958 707.009 646.496 706.561 644.479 707.682C642.462 708.802 638.428 711.716 644.479 720.906C650.529 730.095 660.837 734.13 662.406 760.578C663.974 787.026 654.563 858.749 653.89 861.663C653.218 864.577 648.961 894.835 648.961 894.835L685.935 830.732C685.935 830.732 708.344 780.75 705.431 761.026C702.518 741.302 698.26 732.113 682.35 722.251C666.439 712.389 661.061 709.027 661.061 709.027L662.406 705.889Z" fill="url(#paint15_linear_619_4561)"/>
<path d="M537.813 889.457C537.813 889.457 527.108 884.243 523.522 893.881C519.937 903.519 536.917 905.053 548.121 917.381C559.326 929.484 581.985 963.812 566.522 1030.38C551.06 1096.95 537.522 1099.38 537.522 1099.38C537.522 1099.38 605.664 1098.97 622.022 1101.88C638.381 1104.79 643.85 1110.33 644.522 1122.88C645.195 1135.43 641.342 1144.97 641.342 1144.97H651.65C651.65 1144.97 659.045 1118.97 651.65 1110.46C644.255 1102.16 631.93 1093.2 619.381 1093.2C606.832 1093.2 548.121 1094.77 548.121 1094.77C548.121 1094.77 584.47 1036.73 584.022 989.881C583.798 943.036 577.433 912.543 561.522 903.578C548.121 892.381 537.813 889.457 537.813 889.457Z" fill="url(#paint16_linear_619_4561)"/>
<path d="M537.813 889.457C537.813 889.457 527.108 884.243 523.522 893.881C519.937 903.519 536.917 905.053 548.121 917.381C559.326 929.484 581.985 963.812 566.522 1030.38C551.06 1096.95 537.522 1099.38 537.522 1099.38C537.522 1099.38 605.664 1098.97 622.022 1101.88C638.381 1104.79 643.85 1110.33 644.522 1122.88C645.195 1135.43 641.342 1144.97 641.342 1144.97H651.65C651.65 1144.97 659.045 1118.97 651.65 1110.46C644.255 1102.16 631.93 1093.2 619.381 1093.2C606.832 1093.2 548.121 1094.77 548.121 1094.77C548.121 1094.77 584.47 1036.73 584.022 989.881C583.798 943.036 577.433 912.543 561.522 903.578C548.121 892.381 537.813 889.457 537.813 889.457Z" fill="url(#paint17_linear_619_4561)" fill-opacity="0.2"/>
<path d="M657.924 873.767L655.011 854.268L641.341 900.215C641.341 900.215 628.568 1012.06 626.327 1035.37C624.087 1058.68 628.344 1071.68 628.344 1071.68C628.344 1071.68 639.773 1073.92 645.151 1079.97C650.529 1086.02 651.874 1093.64 651.874 1102.16C651.874 1110.68 650.529 1115.16 650.529 1115.16H675.522L681.022 1091.38L666.522 1072.88L636.522 1063.83C636.522 1063.83 656.131 913.888 656.355 910.75C656.579 907.612 659.941 876.681 659.941 876.681L657.924 873.767Z" fill="url(#paint18_linear_619_4561)"/>
<path d="M764.522 603.881C764.522 603.881 765.591 600.881 766.935 600.881C768.28 600.881 780.829 605.476 784.862 606.148C788.896 606.82 789.522 606.881 789.522 606.881L785.534 615.562C785.759 615.562 785.534 615.562 783.522 616.881C782.178 616.881 779.708 623.182 779.036 623.855C778.364 624.527 775.899 613.993 775.226 612.424C774.554 611.079 768.728 607.269 766.935 605.924C765.142 604.579 764.522 603.881 764.522 603.881Z" fill="#BC3400"/>
<path d="M593.835 427.064C593.835 427.064 627 468.754 635.068 486.685C643.135 504.391 649.858 522.098 649.858 535.994C649.858 549.891 650.978 557.063 643.583 560.649C639.773 562.443 636.188 563.115 631.706 561.546C627.449 559.753 622.295 555.494 616.02 546.977C603.471 529.719 594.956 494.305 593.611 463.374C592.715 432.22 593.835 427.064 593.835 427.064Z" fill="#BC3400"/>
<path d="M245.825 1016.09L233.725 1097.23H185.994L175.686 1016.09H245.825Z" fill="url(#paint19_linear_619_4561)"/>
<path d="M162.016 994.559H259.27C259.27 994.559 256.694 1005.99 256.022 1009.35C255.35 1012.71 250.383 1017.42 247.022 1017.64C243.661 1017.87 173.892 1017.64 173.892 1017.64C173.892 1017.64 166.721 1014.51 165.153 1009.35C163.36 1004.2 162.016 994.559 162.016 994.559Z" fill="#F75D21"/>
<path d="M246.497 858.525C246.497 858.525 223.64 743.544 304.312 717.096C384.984 690.872 434.732 682.803 434.732 682.803C434.732 682.803 410.082 765.733 366.161 791.509C322.015 817.284 282.575 825.801 264.424 840.819C246.049 855.836 246.497 858.525 246.497 858.525Z" fill="url(#paint20_linear_619_4561)"/>
<path d="M233.949 822.44C233.949 822.44 211.54 715.976 187.562 695.355C163.585 674.735 152.604 675.855 147.45 675.855C142.296 675.855 134.229 652.321 119.439 646.718C104.65 641.114 88.5151 642.683 82.9129 643.804C77.0866 644.924 70.3639 650.752 72.6048 682.803C74.8457 714.855 80.672 741.751 116.75 774.923C152.829 808.095 154.621 808.095 192.268 815.492C229.915 822.888 233.949 822.44 233.949 822.44Z" fill="url(#paint21_linear_619_4561)"/>
<path d="M0 809.44C0 809.44 79.5515 804.285 106.89 816.389C134.229 828.492 212.212 903.353 212.212 903.353V912.991C212.212 912.991 146.33 850.681 144.761 849.561C142.969 848.44 138.935 844.406 96.134 839.251C53.3331 834.095 0 809.44 0 809.44Z" fill="url(#paint22_radial_619_4561)"/>
<path d="M7.39453 871.543C7.39453 871.543 73.7248 866.388 90.9796 871.543C108.234 876.698 161.343 916.819 173.892 933.853C186.441 951.111 212.212 994.594 212.212 994.594H204.144C204.144 994.594 180.167 955.594 137.814 944.836C95.4614 933.853 50.1955 915.698 32.0443 900.232C13.8931 884.767 7.39453 871.543 7.39453 871.543Z" fill="url(#paint23_linear_619_4561)"/>
<line x1="188.515" y1="164.373" x2="1035.52" y2="163.396" stroke="url(#paint24_linear_619_4561)" stroke-width="13" stroke-linecap="round"/>
<line x1="900.522" y1="80.3809" x2="900.523" y2="1060.38" stroke="#2C586B" stroke-width="13" stroke-linecap="round"/>
<circle cx="930.522" cy="524.381" r="16.5" fill="white"/>
<circle cx="655.522" cy="250.381" r="12.5" fill="white"/>
<circle cx="496.022" cy="83.8809" r="6" fill="white"/>
<circle cx="477.022" cy="95.8809" r="6" fill="white"/>
<circle cx="1128.02" cy="543.881" r="6" fill="white"/>
<line x1="1145.52" y1="673.381" x2="1145.52" y2="979.381" stroke="white" stroke-width="3" stroke-linecap="round"/>
<line x1="1153.52" y1="664.381" x2="1153.52" y2="970.381" stroke="white" stroke-width="3" stroke-linecap="round"/>
<line x1="1160.52" y1="655.381" x2="1160.52" y2="961.381" stroke="white" stroke-width="3" stroke-linecap="round"/>
<line x1="1033.46" y1="411.63" x2="1106.46" y2="537.63" stroke="white"/>
<path d="M229.022 816.881L244.022 856.881C234.856 867.548 217.923 891.981 213.523 906.381C209.123 920.781 209.023 970.381 209.523 993.381" stroke="#2F4263" stroke-width="5" stroke-linecap="round"/>
<path d="M577.023 455.881C571.523 469.548 560.823 500.181 562.023 513.381C563.523 529.881 566.023 589.881 568.023 601.881C569.623 611.481 571.357 625.214 572.023 630.881C571.856 642.548 562.623 676.681 555.023 687.881C545.523 701.881 547.023 695.381 523.523 713.381C500.023 731.381 437.023 779.881 399.523 837.381C362.023 894.881 347.023 943.381 344.523 959.881C342.023 976.381 344.523 1044.38 344.523 1056.88C344.523 1066.88 353.523 1093.05 358.023 1104.88" stroke="url(#paint25_linear_619_4561)" stroke-width="9" stroke-linecap="round"/>
<defs>
<filter id="filter0_f_619_4561" x="437.523" y="250.381" width="703" height="697" filterUnits="userSpaceOnUse" color-interpolation-filters="sRGB">
<feFlood flood-opacity="0" result="BackgroundImageFix"/>
<feBlend mode="normal" in="SourceGraphic" in2="BackgroundImageFix" result="shape"/>
<feGaussianBlur stdDeviation="31.25" result="effect1_foregroundBlur_619_4561"/>
</filter>
<filter id="filter1_f_619_4561" x="428.523" y="593.381" width="703" height="697" filterUnits="userSpaceOnUse" color-interpolation-filters="sRGB">
<feFlood flood-opacity="0" result="BackgroundImageFix"/>
<feBlend mode="normal" in="SourceGraphic" in2="BackgroundImageFix" result="shape"/>
<feGaussianBlur stdDeviation="31.25" result="effect1_foregroundBlur_619_4561"/>
</filter>
<filter id="filter2_f_619_4561" x="31.5235" y="839.381" width="703" height="697" filterUnits="userSpaceOnUse" color-interpolation-filters="sRGB">
<feFlood flood-opacity="0" result="BackgroundImageFix"/>
<feBlend mode="normal" in="SourceGraphic" in2="BackgroundImageFix" result="shape"/>
<feGaussianBlur stdDeviation="31.25" result="effect1_foregroundBlur_619_4561"/>
</filter>
<filter id="filter3_f_619_4561" x="515.594" y="180.809" width="512.353" height="508.455" filterUnits="userSpaceOnUse" color-interpolation-filters="sRGB">
<feFlood flood-opacity="0" result="BackgroundImageFix"/>
<feBlend mode="normal" in="SourceGraphic" in2="BackgroundImageFix" result="shape"/>
<feGaussianBlur stdDeviation="31.25" result="effect1_foregroundBlur_619_4561"/>
</filter>
<filter id="filter4_f_619_4561" x="119.594" y="547.809" width="512.353" height="508.455" filterUnits="userSpaceOnUse" color-interpolation-filters="sRGB">
<feFlood flood-opacity="0" result="BackgroundImageFix"/>
<feBlend mode="normal" in="SourceGraphic" in2="BackgroundImageFix" result="shape"/>
<feGaussianBlur stdDeviation="31.25" result="effect1_foregroundBlur_619_4561"/>
</filter>
<filter id="filter5_f_619_4561" x="7.59377" y="1136.81" width="512.353" height="508.455" filterUnits="userSpaceOnUse" color-interpolation-filters="sRGB">
<feFlood flood-opacity="0" result="BackgroundImageFix"/>
<feBlend mode="normal" in="SourceGraphic" in2="BackgroundImageFix" result="shape"/>
<feGaussianBlur stdDeviation="31.25" result="effect1_foregroundBlur_619_4561"/>
</filter>
<filter id="filter6_f_619_4561" x="641.523" y="526.381" width="614" height="608" filterUnits="userSpaceOnUse" color-interpolation-filters="sRGB">
<feFlood flood-opacity="0" result="BackgroundImageFix"/>
<feBlend mode="normal" in="SourceGraphic" in2="BackgroundImageFix" result="shape"/>
<feGaussianBlur stdDeviation="31.25" result="effect1_foregroundBlur_619_4561"/>
</filter>
<filter id="filter7_f_619_4561" x="366.523" y="347.381" width="296" height="294" filterUnits="userSpaceOnUse" color-interpolation-filters="sRGB">
<feFlood flood-opacity="0" result="BackgroundImageFix"/>
<feBlend mode="normal" in="SourceGraphic" in2="BackgroundImageFix" result="shape"/>
<feGaussianBlur stdDeviation="31.25" result="effect1_foregroundBlur_619_4561"/>
</filter>
<filter id="filter8_f_619_4561" x="547.523" y="764.381" width="296" height="435" filterUnits="userSpaceOnUse" color-interpolation-filters="sRGB">
<feFlood flood-opacity="0" result="BackgroundImageFix"/>
<feBlend mode="normal" in="SourceGraphic" in2="BackgroundImageFix" result="shape"/>
<feGaussianBlur stdDeviation="31.25" result="effect1_foregroundBlur_619_4561"/>
</filter>
<filter id="filter9_f_619_4561" x="22.5176" y="658.939" width="494.839" height="527.535" filterUnits="userSpaceOnUse" color-interpolation-filters="sRGB">
<feFlood flood-opacity="0" result="BackgroundImageFix"/>
<feBlend mode="normal" in="SourceGraphic" in2="BackgroundImageFix" result="shape"/>
<feGaussianBlur stdDeviation="31.25" result="effect1_foregroundBlur_619_4561"/>
</filter>
<filter id="filter10_f_619_4561" x="-193.141" y="775.217" width="556.675" height="596.105" filterUnits="userSpaceOnUse" color-interpolation-filters="sRGB">
<feFlood flood-opacity="0" result="BackgroundImageFix"/>
<feBlend mode="normal" in="SourceGraphic" in2="BackgroundImageFix" result="shape"/>
<feGaussianBlur stdDeviation="31.25" result="effect1_foregroundBlur_619_4561"/>
</filter>
<filter id="filter11_f_619_4561" x="563.523" y="563.381" width="284" height="240" filterUnits="userSpaceOnUse" color-interpolation-filters="sRGB">
<feFlood flood-opacity="0" result="BackgroundImageFix"/>
<feBlend mode="normal" in="SourceGraphic" in2="BackgroundImageFix" result="shape"/>
<feGaussianBlur stdDeviation="31.25" result="effect1_foregroundBlur_619_4561"/>
</filter>
<filter id="filter12_f_619_4561" x="624.523" y="251.381" width="643" height="499" filterUnits="userSpaceOnUse" color-interpolation-filters="sRGB">
<feFlood flood-opacity="0" result="BackgroundImageFix"/>
<feBlend mode="normal" in="SourceGraphic" in2="BackgroundImageFix" result="shape"/>
<feGaussianBlur stdDeviation="31.25" result="effect1_foregroundBlur_619_4561"/>
</filter>
<linearGradient id="paint0_linear_619_4561" x1="191.976" y1="245.712" x2="1006.28" y2="939.91" gradientUnits="userSpaceOnUse">
<stop stop-color="#B7D0D4"/>
<stop offset="0.2695" stop-color="#BAD0D2"/>
<stop offset="0.4735" stop-color="#C4D2CC"/>
<stop offset="0.656" stop-color="#D2D4C2"/>
<stop offset="0.8258" stop-color="#E5D6B4"/>
<stop offset="0.9855" stop-color="#FCD8A1"/>
<stop offset="1" stop-color="#FED89E"/>
</linearGradient>
<linearGradient id="paint1_linear_619_4561" x1="351.259" y1="74.0508" x2="351.259" y2="1062.94" gradientUnits="userSpaceOnUse">
<stop stop-color="#FF5506"/>
<stop offset="1" stop-color="#AA72A7"/>
</linearGradient>
<linearGradient id="paint2_linear_619_4561" x1="284.816" y1="77.8613" x2="284.816" y2="619.598" gradientUnits="userSpaceOnUse">
<stop stop-color="#6AC0F7"/>
<stop offset="1" stop-color="#5E9CA7" stop-opacity="0"/>
</linearGradient>
<linearGradient id="paint3_linear_619_4561" x1="494.115" y1="594.27" x2="494.115" y2="1062.94" gradientUnits="userSpaceOnUse">
<stop stop-color="#7D3278"/>
<stop offset="1" stop-color="#7D3278" stop-opacity="0"/>
</linearGradient>
<linearGradient id="paint4_linear_619_4561" x1="1166.83" y1="602.787" x2="1166.83" y2="981.353" gradientUnits="userSpaceOnUse">
<stop stop-color="#65C3FB"/>
<stop offset="1" stop-color="#528E99" stop-opacity="0"/>
</linearGradient>
<linearGradient id="paint5_linear_619_4561" x1="1049.02" y1="479.881" x2="1048.62" y2="1062.94" gradientUnits="userSpaceOnUse">
<stop stop-color="#E8B5E2"/>
<stop offset="1" stop-color="#742A71" stop-opacity="0.72"/>
</linearGradient>
<linearGradient id="paint6_linear_619_4561" x1="902.023" y1="949.881" x2="533.023" y2="1070.88" gradientUnits="userSpaceOnUse">
<stop stop-color="#FF6C52"/>
<stop offset="1" stop-color="#FF6C52" stop-opacity="0"/>
</linearGradient>
<linearGradient id="paint7_linear_619_4561" x1="794.022" y1="815.381" x2="764.522" y2="1056.88" gradientUnits="userSpaceOnUse">
<stop stop-color="#914F8C"/>
<stop offset="1" stop-color="#914F8C" stop-opacity="0"/>
</linearGradient>
<linearGradient id="paint8_linear_619_4561" x1="414.523" y1="-121.119" x2="321.023" y2="1234.38" gradientUnits="userSpaceOnUse">
<stop stop-color="#2C586B"/>
<stop offset="1" stop-color="#2C586B" stop-opacity="0"/>
</linearGradient>
<linearGradient id="paint9_linear_619_4561" x1="266.218" y1="568.494" x2="266.218" y2="1070.56" gradientUnits="userSpaceOnUse">
<stop stop-color="#7EB1D3"/>
<stop offset="1" stop-color="#70B1B4" stop-opacity="0"/>
</linearGradient>
<linearGradient id="paint10_linear_619_4561" x1="359.153" y1="1012.81" x2="651.022" y2="1012.88" gradientUnits="userSpaceOnUse">
<stop offset="0.175" stop-color="#F75D21"/>
<stop offset="1" stop-color="#6CBFF6"/>
</linearGradient>
<linearGradient id="paint11_linear_619_4561" x1="1286.02" y1="543.394" x2="150.523" y2="622.895" gradientUnits="userSpaceOnUse">
<stop stop-color="#2C586B" stop-opacity="0"/>
<stop offset="0.444037" stop-color="#2C586B"/>
<stop offset="1" stop-color="#2C586B" stop-opacity="0"/>
</linearGradient>
<linearGradient id="paint12_linear_619_4561" x1="212.327" y1="846.028" x2="787.346" y2="846.028" gradientUnits="userSpaceOnUse">
<stop stop-color="#B7D0D4"/>
<stop offset="0.2695" stop-color="#BAD0D2"/>
<stop offset="0.4735" stop-color="#C4D2CC"/>
<stop offset="0.656" stop-color="#D2D4C2"/>
<stop offset="0.8258" stop-color="#E5D6B4"/>
<stop offset="0.9855" stop-color="#FCD8A1"/>
<stop offset="1" stop-color="#FED89E"/>
</linearGradient>
<linearGradient id="paint13_linear_619_4561" x1="773.522" y1="628.881" x2="651.022" y2="649.881" gradientUnits="userSpaceOnUse">
<stop stop-color="white"/>
<stop offset="1" stop-color="#F5F5F5" stop-opacity="0"/>
</linearGradient>
<linearGradient id="paint14_linear_619_4561" x1="797.022" y1="598.381" x2="618.522" y2="578.881" gradientUnits="userSpaceOnUse">
<stop stop-color="white"/>
<stop offset="1" stop-color="white" stop-opacity="0"/>
</linearGradient>
<linearGradient id="paint15_linear_619_4561" x1="706.022" y1="770.381" x2="494.522" y2="777.381" gradientUnits="userSpaceOnUse">
<stop stop-color="white"/>
<stop offset="1" stop-color="white" stop-opacity="0"/>
</linearGradient>
<linearGradient id="paint16_linear_619_4561" x1="624.022" y1="1016.88" x2="475.522" y2="1067.38" gradientUnits="userSpaceOnUse">
<stop stop-color="#FFFCEA"/>
<stop offset="1" stop-color="#FFFCEA" stop-opacity="0"/>
</linearGradient>
<linearGradient id="paint17_linear_619_4561" x1="695.522" y1="945.381" x2="560.022" y2="908.381" gradientUnits="userSpaceOnUse">
<stop stop-color="white"/>
<stop offset="1" stop-color="white" stop-opacity="0"/>
</linearGradient>
<linearGradient id="paint18_linear_619_4561" x1="666.522" y1="847.381" x2="646.522" y2="1127.88" gradientUnits="userSpaceOnUse">
<stop stop-color="#FFFCEA"/>
<stop offset="1" stop-color="#FFFCEA" stop-opacity="0"/>
</linearGradient>
<linearGradient id="paint19_linear_619_4561" x1="210.755" y1="1016.09" x2="210.755" y2="1097.23" gradientUnits="userSpaceOnUse">
<stop stop-color="#DD3E00"/>
<stop offset="1" stop-color="#F75D21"/>
</linearGradient>
<linearGradient id="paint20_linear_619_4561" x1="288.522" y1="812.381" x2="447.022" y2="682.881" gradientUnits="userSpaceOnUse">
<stop stop-color="#2F4263"/>
<stop offset="1" stop-color="#2F4263" stop-opacity="0"/>
</linearGradient>
<linearGradient id="paint21_linear_619_4561" x1="214.022" y1="811.381" x2="24.5225" y2="630.881" gradientUnits="userSpaceOnUse">
<stop stop-color="#324168"/>
<stop offset="1" stop-color="#324168" stop-opacity="0"/>
</linearGradient>
<radialGradient id="paint22_radial_619_4561" cx="0" cy="0" r="1" gradientUnits="userSpaceOnUse" gradientTransform="translate(212.022 912.881) rotate(-160.299) scale(286.256 580.524)">
<stop stop-color="#CA6559"/>
<stop offset="1" stop-color="#CA6559" stop-opacity="0"/>
</radialGradient>
<linearGradient id="paint23_linear_619_4561" x1="212.022" y1="994.881" x2="-58.978" y2="836.881" gradientUnits="userSpaceOnUse">
<stop stop-color="#29395A"/>
<stop offset="1" stop-color="#29395A" stop-opacity="0"/>
</linearGradient>
<linearGradient id="paint24_linear_619_4561" x1="1080.02" y1="169.894" x2="219.522" y2="169.889" gradientUnits="userSpaceOnUse">
<stop stop-color="#2C586B" stop-opacity="0"/>
<stop offset="0.383333" stop-color="#2C586B"/>
<stop offset="1" stop-color="#2C586B" stop-opacity="0"/>
</linearGradient>
<linearGradient id="paint25_linear_619_4561" x1="343.023" y1="1104.88" x2="629.023" y2="499.881" gradientUnits="userSpaceOnUse">
<stop stop-color="#2F4263" stop-opacity="0"/>
<stop offset="0.451042" stop-color="#2F4263" stop-opacity="0.934375"/>
<stop offset="1" stop-color="#2F4263" stop-opacity="0"/>
</linearGradient>
</defs>
</svg>
