<svg width="392" height="434" viewBox="0 0 392 434" fill="none" xmlns="http://www.w3.org/2000/svg">
<mask id="mask0_619_5162" style="mask-type:luminance" maskUnits="userSpaceOnUse" x="213" y="75" width="97" height="97">
<path d="M213 101.59L284.213 75.3685L309.968 145.315L238.755 171.536L213 101.59Z" fill="white"/>
</mask>
<g mask="url(#mask0_619_5162)">
<path d="M269.401 144.642C257.9 148.877 245.133 142.96 240.886 131.425C236.639 119.891 242.52 107.108 254.021 102.873C265.522 98.638 278.286 104.556 282.533 116.09C286.78 127.625 280.902 140.407 269.401 144.642ZM289.311 116.579L296.175 108.913C295.152 106.526 293.902 104.293 292.468 102.231L282.655 104.374C281.209 102.807 279.603 101.418 277.87 100.224L278.201 89.991C275.999 88.9089 273.695 88.0418 271.32 87.405L265.18 95.3791C262.958 95.0996 260.689 95.0828 258.414 95.3459L252.157 87.3535C251.003 87.6585 249.851 88.0202 248.707 88.4414C247.563 88.8625 246.452 89.3345 245.373 89.8515L245.796 99.9922C243.893 101.267 242.177 102.752 240.665 104.406L230.822 102.317C229.427 104.342 228.235 106.496 227.261 108.748L234.149 116.323C233.604 118.356 233.282 120.454 233.198 122.585L224.339 127.317C224.584 129.817 225.081 132.327 225.85 134.808L236.044 136.193C236.879 137.922 237.87 139.535 238.994 141.019L235.238 150.394C237.13 152.279 239.21 153.948 241.431 155.38L250.132 149.864C251.667 150.551 253.263 151.105 254.9 151.512L258.068 161.203C260.745 161.47 263.47 161.452 266.2 161.125L269.305 151.333C270.07 151.119 270.833 150.876 271.593 150.597C272.351 150.317 273.092 150.007 273.813 149.673L282.526 155.114C284.817 153.592 286.903 151.838 288.768 149.899L284.895 140.468C285.876 139.096 286.732 137.64 287.455 136.121L297.655 134.677C298.418 132.147 298.916 129.529 299.134 126.867L290.197 122.165C290.09 120.306 289.799 118.437 289.311 116.579Z" fill="url(#paint0_linear_619_5162)"/>
</g>
<mask id="mask1_619_5162" style="mask-type:luminance" maskUnits="userSpaceOnUse" x="267" y="137" width="68" height="68">
<path d="M267.385 155.949L316.581 137.835L334.504 186.51L285.308 204.625L267.385 155.949Z" fill="white"/>
</mask>
<g mask="url(#mask1_619_5162)">
<path d="M306.393 186.187C298.367 189.142 289.458 185.01 286.494 176.962C283.53 168.912 287.633 159.992 295.66 157.036C303.684 154.082 312.595 158.21 315.559 166.261C318.522 174.308 314.417 183.232 306.393 186.187ZM320.287 166.603L325.076 161.253C324.361 159.585 323.491 158.029 322.49 156.59L315.642 158.085C314.632 156.992 313.512 156.021 312.302 155.189L312.534 148.048C310.998 147.293 309.389 146.687 307.731 146.244L303.448 151.807C301.898 151.613 300.311 151.601 298.723 151.785L294.36 146.208C293.553 146.418 292.75 146.67 291.951 146.964C291.153 147.258 290.375 147.588 289.624 147.952L289.92 155.027C288.592 155.916 287.392 156.954 286.338 158.108L279.47 156.65C278.495 158.063 277.663 159.567 276.986 161.137L281.791 166.424C281.412 167.84 281.186 169.307 281.129 170.793L274.944 174.097C275.116 175.842 275.463 177.591 276 179.323L283.115 180.29C283.696 181.498 284.387 182.621 285.172 183.658L282.551 190.2C283.872 191.517 285.322 192.682 286.874 193.679L292.946 189.831C294.017 190.308 295.13 190.697 296.272 190.981L298.481 197.744C300.351 197.932 302.254 197.917 304.159 197.69L306.326 190.855C306.86 190.707 307.394 190.538 307.924 190.343C308.451 190.148 308.968 189.931 309.47 189.697L315.552 193.495C317.151 192.432 318.607 191.21 319.908 189.854L317.205 183.274C317.89 182.316 318.487 181.298 318.991 180.241L326.108 179.233C326.643 177.467 326.991 175.64 327.143 173.781L320.905 170.501C320.83 169.202 320.628 167.899 320.287 166.603Z" fill="url(#paint1_linear_619_5162)"/>
</g>
<mask id="mask2_619_5162" style="mask-type:luminance" maskUnits="userSpaceOnUse" x="309" y="122" width="38" height="39">
<path d="M309.092 133.189L336.804 122.986L346.944 150.525L319.232 160.729L309.092 133.189Z" fill="white"/>
</mask>
<g mask="url(#mask2_619_5162)">
<path d="M331.132 150.298C326.602 151.966 321.572 149.636 319.899 145.094C318.226 140.55 320.544 135.513 325.074 133.845C329.604 132.177 334.631 134.509 336.305 139.053C337.977 143.595 335.662 148.63 331.132 150.298ZM338.974 139.247L341.679 136.225C341.275 135.284 340.783 134.406 340.217 133.593L336.353 134.436C335.783 133.821 335.151 133.272 334.468 132.802L334.599 128.772C333.732 128.345 332.824 128.004 331.888 127.753L329.469 130.895C328.595 130.784 327.7 130.779 326.803 130.88L324.34 127.733C323.886 127.853 323.431 127.994 322.98 128.16C322.529 128.326 322.092 128.514 321.668 128.716L321.834 132.71C321.084 133.215 320.408 133.799 319.812 134.451L315.936 133.626C315.386 134.425 314.916 135.273 314.532 136.161L317.245 139.143C317.031 139.944 316.906 140.772 316.871 141.61L313.383 143.474C313.479 144.46 313.674 145.447 313.977 146.425L317.993 146.972C318.322 147.652 318.712 148.287 319.156 148.872L317.675 152.566C318.422 153.306 319.239 153.964 320.114 154.53L323.543 152.355C324.146 152.626 324.774 152.844 325.418 153.004L326.666 156.823C327.721 156.927 328.796 156.921 329.871 156.792L331.095 152.934C331.396 152.851 331.696 152.754 331.995 152.644C332.295 152.533 332.586 152.413 332.869 152.281L336.303 154.424C337.204 153.825 338.025 153.133 338.76 152.37L337.233 148.654C337.62 148.114 337.959 147.54 338.243 146.942L342.26 146.375C342.562 145.376 342.757 144.346 342.843 143.298L339.323 141.446C339.28 140.714 339.166 139.977 338.974 139.247Z" fill="url(#paint2_linear_619_5162)"/>
</g>
<path d="M332.612 191.816L313.09 237.104L350.129 269.664L301.025 265.093L281.504 310.381L270.678 262.268L221.574 257.697L263.986 232.533L253.16 184.42L290.199 216.98L332.612 191.816Z" fill="url(#paint3_linear_619_5162)"/>
<path d="M101.821 27.2836L143.533 91.5147L217.51 71.6926L169.312 131.212L211.025 195.443L139.525 167.996L91.3271 227.516L95.3353 151.034L23.8354 123.588L97.8125 103.765L101.821 27.2836Z" fill="url(#paint4_linear_619_5162)"/>
<path d="M141.36 277.206L144.035 328.245L193.402 341.472L145.688 359.788L148.363 410.826L116.2 371.108L68.486 389.423L96.3215 346.56L64.1581 306.842L113.525 320.069L141.36 277.206Z" fill="url(#paint5_linear_619_5162)"/>
<mask id="mask3_619_5162" style="mask-type:alpha" maskUnits="userSpaceOnUse" x="98" y="168" width="194" height="263">
<path d="M168.793 204.5V175L236.293 168C236.126 179.667 236.293 196.5 236.293 202.5C240.793 209 263.293 242.5 263.793 246.5C264.293 250.5 264.793 288.5 264.793 294C269 294 291.5 294.695 291.5 318.5C291.5 333.5 288.5 334.5 277 367.5C267.891 393.639 257.959 420.5 252.793 430.5H170.004C158 430.5 149.759 430.662 143 429C119.05 423.113 121.5 415.5 114.293 417C112.334 417.408 111.293 414.5 107.793 410.5C104.292 406.5 102.793 406 99.2925 402C95.7925 398 100.293 390.5 102.293 386C104.293 381.5 103.503 371 105.003 367.5C106.503 364 136.293 309.5 138.793 304C141.293 298.5 145.793 283 144.793 267.5C144.32 260.174 145.959 238.333 144.793 229.5C146.626 226.667 150.303 222.8 153.503 220C156.703 217.2 165.293 206.667 168.793 204.5Z" fill="#D9D9D9"/>
</mask>
<g mask="url(#mask3_619_5162)">
<g filter="url(#filter0_f_619_5162)">
<path d="M289 290.5C289 339.929 248.929 380 199.5 380C150.071 380 110 339.929 110 290.5C110 241.071 150.071 201 199.5 201C248.929 201 289 241.071 289 290.5Z" fill="#F75D21"/>
</g>
<g filter="url(#filter1_f_619_5162)">
<path d="M374 172.5C374 221.929 333.929 262 284.5 262C235.071 262 195 221.929 195 172.5C195 123.071 235.071 83 284.5 83C333.929 83 374 123.071 374 172.5Z" fill="#F96A89"/>
</g>
<g filter="url(#filter2_f_619_5162)">
<path d="M374 396.5C374 445.929 333.929 486 284.5 486C235.071 486 195 445.929 195 396.5C195 347.071 235.071 307 284.5 307C333.929 307 374 347.071 374 396.5Z" fill="#F96A89"/>
</g>
<g filter="url(#filter3_f_619_5162)">
<path d="M195 255.5C195 304.929 154.929 345 105.5 345C56.0705 345 16 304.929 16 255.5C16 206.071 56.0705 166 105.5 166C154.929 166 195 206.071 195 255.5Z" fill="#FFD848"/>
</g>
<g filter="url(#filter4_f_619_5162)">
<path d="M174 375C174 424.706 133.929 465 84.5 465C35.0705 465 -5 424.706 -5 375C-5 325.294 35.0705 285 84.5 285C133.929 285 174 325.294 174 375Z" fill="#60C6FF"/>
</g>
</g>
<path d="M168.809 176.203V204.303L181.809 235.303L187.109 272.703L202.509 307.403L216.609 274.503L224.209 235.303L236.209 204.303V168" fill="url(#paint6_linear_619_5162)"/>
<mask id="mask4_619_5162" style="mask-type:alpha" maskUnits="userSpaceOnUse" x="124" y="48" width="153" height="151">
<path fill-rule="evenodd" clip-rule="evenodd" d="M190.695 83.7855C185.959 84.1565 181.499 84.5059 179.036 84.5059C176.362 84.5059 173.593 83.1598 170.666 81.7366C168.547 80.7065 166.345 79.636 164.036 79.0062C160.694 78.0946 147.563 66.6567 137.552 57.9359C131.091 52.307 125.928 47.81 125.536 48.0062C124.536 48.5062 122.647 58.2517 125.536 70.5059C126.45 74.3827 127.273 79.1722 128.137 84.2038C130.06 95.3957 132.189 107.785 135.983 113.994C139.829 120.288 144.37 127.506 146.536 130.506C146.536 130.506 149.483 142.994 151.483 147.494C152.752 150.35 155.432 154.576 157.732 158.203C159.055 160.29 160.252 162.179 160.983 163.494C161.692 164.77 162.566 166.65 163.545 168.757C166.02 174.081 169.17 180.856 172.036 183.006C174.566 184.903 186.036 192.506 188.036 193.506C189.527 194.251 196.921 197.514 199.946 197.956L199.947 198.011C200.046 198.011 200.155 198.006 200.273 197.994C200.367 198.002 200.455 198.006 200.536 198.006L200.537 197.962C203.561 197.52 210.956 194.257 212.447 193.511C214.447 192.511 225.917 184.909 228.447 183.011C231.313 180.862 234.463 174.087 236.938 168.762C237.917 166.655 238.791 164.776 239.5 163.5C240.23 162.185 241.428 160.296 242.751 158.209C245.051 154.582 247.73 150.356 249 147.5C251 143 253.947 130.511 253.947 130.511C256.113 127.511 260.654 120.293 264.5 114C268.294 107.791 270.423 95.4013 272.346 84.2094C273.21 79.1778 274.033 74.3883 274.947 70.5114C277.835 58.2573 275.947 48.5118 274.947 48.0118C274.555 47.8156 269.392 52.3126 262.93 57.9415C252.919 66.6623 239.789 78.1002 236.447 79.0118C234.137 79.6416 231.936 80.7121 229.817 81.7421C226.89 83.1654 224.121 84.5114 221.447 84.5114C218.984 84.5114 214.524 84.1621 209.788 83.7911C207.192 83.5877 204.512 83.3777 202.033 83.2154L202.036 83.0062C201.445 83.0331 200.828 83.0654 200.193 83.102C199.591 83.0677 199.008 83.0373 198.447 83.0118L198.449 83.2098C195.971 83.3722 193.291 83.5821 190.695 83.7855Z" fill="#D9D9D9"/>
</mask>
<g mask="url(#mask4_619_5162)">
<g filter="url(#filter5_f_619_5162)">
<path d="M313.014 118.905C344.401 178.838 335.141 245.599 292.332 268.018C249.522 290.438 189.374 260.027 157.986 200.093C126.599 140.16 135.859 73.3996 178.668 50.98C221.478 28.5605 281.626 58.9715 313.014 118.905Z" fill="#F75D21"/>
</g>
<g filter="url(#filter6_f_619_5162)">
<path d="M290 71C290 93.6437 271.42 112 248.5 112C225.58 112 207 93.6437 207 71C207 48.3563 225.58 30 248.5 30C271.42 30 290 48.3563 290 71Z" fill="#F96A89"/>
</g>
<g filter="url(#filter7_f_619_5162)">
<path d="M196 79C196 132.572 160.63 176 117 176C73.3695 176 38 132.572 38 79C38 25.4284 73.3695 -18 117 -18C160.63 -18 196 25.4284 196 79Z" fill="#FFD848"/>
</g>
<g filter="url(#filter8_f_619_5162)">
<path d="M218.177 248.028C206.654 262.503 172.618 254.578 142.156 230.328C111.694 206.077 96.3416 174.684 107.865 160.209C119.388 145.734 153.424 153.659 183.886 177.91C214.348 202.161 229.7 233.554 218.177 248.028Z" fill="#60C6FF"/>
</g>
</g>
<path d="M156.009 138.603C156.009 138.603 163.5 134.357 169.109 136.603C175.999 139.361 180.609 146.003 183.509 150.503C186.409 155.003 186.909 157.003 186.909 157.003C186.909 157.003 177.809 157.603 173.209 156.003C166.5 153.669 161.1 147.5 159 145.5C157.2 143.3 156.009 138.603 156.009 138.603Z" fill="white" stroke="url(#paint7_linear_619_5162)" stroke-miterlimit="10"/>
<path d="M192.5 167.803H208.609C208.609 167.803 204.809 170.403 203.609 172.003C202.509 173.703 200.6 176.5 200.5 177.5C200.4 178.5 200 174.5 197 172.003C196 170 192.5 167.803 192.5 167.803Z" fill="url(#paint8_linear_619_5162)"/>
<path d="M253.109 271.402L247.709 304.302L231.409 404.102C231.409 404.102 230.109 410.502 230.109 411.502C230.109 412.502 239.809 409.502 243.409 410.202C247.009 411.002 250.909 413.302 250.909 417.902C250.909 422.502 248.309 431.202 248.309 431.202C248.309 431.202 246.509 431.102 243.709 430.902C235.209 430.402 217.2 431.302 215 430.902C212.2 430.402 210.209 423.302 208.909 416.402C207.609 409.502 212.509 325.502 212.509 325.502" fill="url(#paint9_linear_619_5162)"/>
<path d="M253.109 271.402L247.709 304.302L231.409 404.102C231.409 404.102 230.109 410.502 230.109 411.502C230.109 412.502 239.809 409.502 243.409 410.202C247.009 411.002 250.909 413.302 250.909 417.902C250.909 422.502 248.309 431.202 248.309 431.202C248.309 431.202 246.509 431.102 243.709 430.902C235.209 430.402 217.2 431.302 215 430.902C212.2 430.402 210.209 423.302 208.909 416.402C207.609 409.502 212.509 325.502 212.509 325.502" stroke="url(#paint10_linear_619_5162)" stroke-miterlimit="10"/>
<path d="M248.8 305.22C248.8 305.22 250.8 304.32 257.9 297.92C265 291.52 276.3 293.12 285.2 301.52C294.1 310.02 291.3 319.72 291.3 323.52C291.3 327.42 253 431 253 431H248" stroke="url(#paint11_linear_619_5162)" stroke-miterlimit="10"/>
<path d="M168.809 204.303C168.809 204.303 146.009 227.003 144.809 229.603C143.609 232.203 144.009 268.903 144.809 273.803C145.609 278.703 142.509 299.603 133.609 313.603C124.709 327.603 105.809 364.703 104.209 371.603C102.709 378.503 104.709 380.503 100.909 388.703C97.1089 396.903 98.8 399.002 99 400.502C99.3 402.002 100.409 404.503 106.309 409.403C112.209 414.303 109.609 417.103 116.309 417.103C122.909 417.103 126.509 411.003 126.509 411.003L137.509 373.503C137.509 373.503 130.609 368.403 133.709 360.203C136.809 352.003 157.709 330.603 160.809 328.303C163.909 326.003 178.209 289.003 178.209 289.003" stroke="url(#paint12_linear_619_5162)" stroke-miterlimit="10"/>
<path d="M157.523 95.5961C163.523 107.596 156.356 121.263 152.023 126.596C150.856 126.596 148.123 126.096 146.523 124.096C144.523 121.595 141.023 114.096 139.023 110.096C137.023 106.096 131.023 74.5961 128.523 66.0961C126.023 57.5961 127.023 54.5961 128.523 56.5961C130.023 58.5961 150.023 80.5961 157.523 95.5961Z" fill="url(#paint13_linear_619_5162)"/>
<path d="M244.296 95.5961C238.296 107.596 245.462 121.263 249.796 126.596C250.962 126.596 253.696 126.096 255.296 124.096C257.296 121.595 260.796 114.096 262.796 110.096C264.796 106.096 270.796 74.5961 273.296 66.0961C275.796 57.5961 274.796 54.5961 273.296 56.5961C271.796 58.5961 251.796 80.5961 244.296 95.5961Z" fill="url(#paint14_linear_619_5162)"/>
<circle cx="143" cy="402" r="31" transform="rotate(-12.086 143 402)" fill="url(#paint15_angular_619_5162)"/>
<g clip-path="url(#clip0_619_5162)">
<path d="M141.752 137.977C141.752 138.958 141.843 139.675 142.025 140.136C142.207 140.597 142.489 140.826 142.872 140.826C143.239 140.826 143.508 140.609 143.681 140.177C143.859 139.744 143.947 139.077 143.947 138.171C143.947 137.479 143.903 136.918 143.812 136.491C143.722 136.059 143.596 135.752 143.436 135.564C143.273 135.382 143.079 135.285 142.85 135.285C142.643 135.285 142.47 135.347 142.329 135.473C142.188 135.595 142.075 135.774 141.991 136.002C141.903 136.234 141.843 136.516 141.806 136.849C141.768 137.184 141.752 137.56 141.752 137.977ZM142.8 141.208C142.147 141.208 141.668 140.954 141.351 140.44C141.031 139.929 140.871 139.152 140.871 138.112C140.871 137.56 140.922 137.081 141.019 136.679C141.116 136.272 141.254 135.94 141.433 135.676C141.605 135.41 141.818 135.216 142.063 135.09C142.314 134.965 142.58 134.902 142.872 134.902C143.53 134.902 144.023 135.156 144.345 135.664C144.665 136.172 144.828 136.943 144.828 137.974C144.828 139.036 144.656 139.842 144.311 140.39C143.966 140.935 143.464 141.208 142.8 141.208Z" fill="#B5B1B4"/>
<path d="M143.54 155.604C143.54 155.805 143.552 155.962 143.574 156.062C143.596 156.165 143.637 156.25 143.696 156.316C143.75 156.382 143.834 156.429 143.941 156.466C144.051 156.504 144.189 156.529 144.352 156.551C144.515 156.567 144.731 156.582 145.001 156.588V156.971H141.135V156.588C141.52 156.573 141.796 156.548 141.966 156.516C142.129 156.488 142.254 156.444 142.342 156.385C142.43 156.325 142.492 156.241 142.533 156.134C142.571 156.024 142.593 155.852 142.593 155.604V151.364C142.593 151.226 142.568 151.126 142.521 151.06C142.471 150.997 142.402 150.963 142.304 150.963C142.195 150.963 142.035 151.019 141.831 151.135C141.627 151.251 141.37 151.408 141.066 151.612L140.837 151.207L143.283 149.75H143.574C143.549 150.085 143.54 150.549 143.54 151.142V155.604Z" fill="#B5B1B4"/>
<path d="M141.63 168.699C141.63 169.793 141.727 170.595 141.934 171.106C142.135 171.614 142.448 171.871 142.875 171.871C143.282 171.871 143.584 171.632 143.778 171.15C143.975 170.67 144.073 169.924 144.073 168.915C144.073 168.147 144.022 167.521 143.922 167.044C143.822 166.565 143.681 166.223 143.502 166.016C143.323 165.806 143.104 165.703 142.85 165.703C142.621 165.703 142.427 165.772 142.267 165.91C142.113 166.048 141.988 166.245 141.893 166.505C141.796 166.759 141.727 167.072 141.687 167.445C141.646 167.815 141.63 168.235 141.63 168.699ZM142.793 172.297C142.069 172.297 141.53 172.015 141.179 171.444C140.824 170.874 140.649 170.009 140.649 168.849C140.649 168.235 140.702 167.702 140.809 167.251C140.918 166.8 141.072 166.433 141.266 166.138C141.467 165.844 141.702 165.628 141.975 165.487C142.251 165.346 142.552 165.273 142.875 165.273C143.609 165.273 144.157 165.559 144.515 166.126C144.872 166.69 145.051 167.549 145.051 168.696C145.051 169.88 144.86 170.777 144.477 171.385C144.091 171.993 143.53 172.297 142.793 172.297Z" fill="#B5B1B4"/>
<path d="M141.229 184.037C141.229 185.482 141.367 186.547 141.633 187.224C141.903 187.904 142.32 188.243 142.884 188.243C143.424 188.243 143.819 187.92 144.082 187.287C144.342 186.648 144.471 185.66 144.471 184.322C144.471 183.3 144.402 182.476 144.27 181.84C144.135 181.21 143.95 180.756 143.712 180.477C143.477 180.204 143.185 180.066 142.85 180.066C142.546 180.066 142.289 180.157 142.082 180.339C141.872 180.524 141.709 180.781 141.583 181.125C141.455 181.467 141.364 181.884 141.313 182.376C141.257 182.865 141.229 183.416 141.229 184.037ZM142.778 188.804C141.818 188.804 141.103 188.431 140.636 187.676C140.166 186.92 139.934 185.773 139.934 184.237C139.934 183.416 140.003 182.714 140.147 182.116C140.291 181.523 140.495 181.031 140.755 180.643C141.016 180.254 141.326 179.966 141.69 179.778C142.057 179.593 142.452 179.502 142.884 179.502C143.856 179.502 144.581 179.875 145.054 180.624C145.531 181.376 145.769 182.511 145.769 184.028C145.769 185.604 145.515 186.792 145.007 187.597C144.499 188.403 143.753 188.804 142.778 188.804Z" fill="#B5B1B4"/>
<path d="M141.627 199.431C141.627 200.524 141.727 201.327 141.931 201.841C142.135 202.352 142.448 202.609 142.875 202.609C143.282 202.609 143.583 202.364 143.778 201.885C143.975 201.402 144.076 200.659 144.076 199.647C144.076 198.876 144.022 198.252 143.922 197.773C143.822 197.293 143.681 196.952 143.502 196.742C143.323 196.535 143.104 196.431 142.85 196.431C142.621 196.431 142.426 196.5 142.267 196.635C142.11 196.773 141.987 196.974 141.893 197.23C141.796 197.491 141.727 197.804 141.686 198.177C141.646 198.544 141.627 198.964 141.627 199.431ZM142.793 203.035C142.069 203.035 141.53 202.75 141.175 202.179C140.821 201.609 140.646 200.744 140.646 199.584C140.646 198.964 140.702 198.434 140.809 197.983C140.918 197.531 141.069 197.158 141.266 196.864C141.461 196.572 141.699 196.356 141.975 196.212C142.248 196.074 142.552 196.002 142.875 196.002C143.609 196.002 144.157 196.287 144.515 196.854C144.878 197.422 145.054 198.277 145.054 199.427C145.054 200.615 144.863 201.512 144.477 202.12C144.095 202.731 143.53 203.035 142.793 203.035Z" fill="#B5B1B4"/>
<path d="M140.903 214.747C140.903 216.487 141.066 217.765 141.389 218.577C141.712 219.392 142.213 219.799 142.891 219.799C143.537 219.799 144.016 219.417 144.327 218.649C144.64 217.885 144.794 216.697 144.794 215.092C144.794 213.86 144.716 212.867 144.556 212.109C144.396 211.347 144.173 210.798 143.888 210.469C143.599 210.137 143.254 209.974 142.85 209.974C142.483 209.974 142.173 210.084 141.922 210.3C141.677 210.52 141.477 210.833 141.326 211.247C141.172 211.657 141.063 212.159 141 212.748C140.937 213.337 140.903 214.001 140.903 214.747ZM142.762 220.48C141.608 220.48 140.752 220.028 140.188 219.119C139.62 218.211 139.341 216.832 139.341 214.986C139.341 214.001 139.426 213.155 139.602 212.438C139.774 211.726 140.019 211.131 140.332 210.667C140.643 210.2 141.019 209.855 141.455 209.629C141.897 209.404 142.373 209.291 142.891 209.291C144.06 209.291 144.929 209.745 145.503 210.645C146.073 211.548 146.359 212.914 146.359 214.735C146.359 216.628 146.051 218.057 145.44 219.028C144.828 219.997 143.938 220.48 142.762 220.48Z" fill="#B5B1B4"/>
<path d="M143.678 232.94C143.678 233.191 143.696 233.376 143.721 233.504C143.75 233.63 143.797 233.733 143.869 233.811C143.938 233.89 144.041 233.949 144.173 233.996C144.308 234.04 144.471 234.075 144.672 234.097C144.872 234.122 145.136 234.137 145.468 234.147V234.614H140.733V234.147C141.207 234.125 141.545 234.094 141.749 234.059C141.95 234.021 142.107 233.968 142.213 233.896C142.32 233.824 142.398 233.721 142.445 233.589C142.495 233.454 142.521 233.241 142.521 232.94V227.75C142.521 227.581 142.489 227.453 142.433 227.374C142.37 227.296 142.285 227.255 142.169 227.255C142.031 227.255 141.837 227.327 141.586 227.468C141.332 227.606 141.022 227.8 140.649 228.051L140.37 227.556L143.367 225.77H143.718C143.693 226.18 143.678 226.747 143.678 227.474V232.94Z" fill="#B5B1B4"/>
<path d="M122.902 306.973C122.902 308.32 123.03 309.304 123.278 309.934C123.529 310.561 123.915 310.875 124.438 310.875C124.937 310.875 125.307 310.583 125.548 309.991C125.79 309.398 125.912 308.483 125.912 307.239C125.912 306.289 125.849 305.522 125.727 304.936C125.601 304.349 125.429 303.93 125.206 303.673C124.99 303.416 124.72 303.29 124.41 303.29C124.121 303.29 123.883 303.372 123.692 303.541C123.501 303.713 123.347 303.955 123.228 304.274C123.112 304.591 123.03 304.976 122.977 305.431C122.93 305.888 122.902 306.399 122.902 306.973ZM124.341 311.404C123.45 311.404 122.786 311.053 122.35 310.354C121.917 309.649 121.698 308.59 121.698 307.161C121.698 306.399 121.767 305.744 121.898 305.196C122.033 304.641 122.221 304.183 122.463 303.823C122.704 303.459 122.993 303.193 123.328 303.024C123.667 302.848 124.04 302.764 124.438 302.764C125.341 302.764 126.012 303.112 126.454 303.807C126.893 304.506 127.116 305.556 127.116 306.97C127.116 308.427 126.881 309.53 126.41 310.282C125.934 311.031 125.244 311.404 124.341 311.404Z" fill="#B5B1B4"/>
<path d="M125.253 325.191C125.253 325.445 125.266 325.636 125.294 325.762C125.322 325.893 125.373 325.997 125.445 326.075C125.514 326.16 125.62 326.219 125.755 326.266C125.89 326.313 126.059 326.348 126.263 326.37C126.467 326.395 126.737 326.411 127.072 326.42V326.896H122.246V326.42C122.732 326.398 123.077 326.37 123.281 326.332C123.491 326.295 123.648 326.241 123.758 326.166C123.864 326.091 123.943 325.987 123.996 325.853C124.043 325.718 124.071 325.495 124.071 325.191V319.901C124.071 319.726 124.04 319.6 123.977 319.519C123.918 319.44 123.827 319.4 123.711 319.4C123.573 319.4 123.375 319.469 123.118 319.613C122.861 319.757 122.544 319.954 122.165 320.208L121.88 319.707L124.93 317.883H125.291C125.266 318.303 125.253 318.879 125.253 319.619V325.191Z" fill="#B5B1B4"/>
<path d="M106.905 141.148C106.905 141.43 106.92 141.647 106.952 141.788C106.986 141.932 107.043 142.048 107.124 142.142C107.202 142.23 107.318 142.302 107.472 142.352C107.623 142.405 107.814 142.446 108.043 142.471C108.275 142.499 108.579 142.515 108.952 142.527V143.063H103.531V142.527C104.073 142.502 104.459 142.468 104.691 142.427C104.923 142.386 105.102 142.32 105.224 142.239C105.346 142.157 105.437 142.038 105.494 141.888C105.55 141.738 105.575 141.49 105.575 141.148V135.197C105.575 135.002 105.541 134.858 105.475 134.767C105.406 134.677 105.305 134.633 105.174 134.633C105.017 134.633 104.794 134.711 104.506 134.871C104.217 135.037 103.863 135.256 103.434 135.542L103.111 134.974L106.547 132.928H106.948C106.92 133.398 106.905 134.05 106.905 134.883V141.148Z" fill="#B5B1B4"/>
<path d="M104.917 153.345C104.917 154.282 105.005 154.971 105.177 155.407C105.349 155.843 105.619 156.065 105.986 156.065C106.334 156.065 106.594 155.858 106.76 155.445C106.93 155.034 107.014 154.398 107.014 153.53C107.014 152.872 106.97 152.336 106.883 151.925C106.795 151.515 106.676 151.22 106.522 151.044C106.368 150.866 106.183 150.778 105.964 150.778C105.766 150.778 105.6 150.834 105.465 150.95C105.334 151.073 105.224 151.242 105.142 151.461C105.061 151.684 105.001 151.953 104.967 152.27C104.936 152.586 104.917 152.947 104.917 153.345ZM105.917 156.432C105.296 156.432 104.835 156.187 104.531 155.698C104.227 155.21 104.076 154.467 104.076 153.473C104.076 152.947 104.12 152.489 104.218 152.107C104.308 151.718 104.44 151.399 104.609 151.151C104.776 150.897 104.979 150.712 105.215 150.59C105.45 150.471 105.707 150.408 105.986 150.408C106.613 150.408 107.086 150.653 107.394 151.138C107.701 151.624 107.855 152.358 107.855 153.342C107.855 154.36 107.689 155.128 107.359 155.648C107.03 156.172 106.55 156.432 105.917 156.432Z" fill="#B5B1B4"/>
<path d="M106.509 170.444C106.509 170.598 106.516 170.717 106.534 170.795C106.553 170.874 106.585 170.936 106.625 170.986C106.669 171.033 106.735 171.071 106.817 171.102C106.898 171.131 107.005 171.149 107.127 171.168C107.253 171.181 107.419 171.19 107.626 171.193V171.488H104.669V171.193C104.964 171.181 105.177 171.165 105.302 171.14C105.428 171.118 105.525 171.087 105.594 171.037C105.657 170.993 105.71 170.927 105.741 170.845C105.769 170.764 105.785 170.632 105.785 170.444V167.204C105.785 167.094 105.766 167.016 105.729 166.969C105.691 166.918 105.638 166.893 105.566 166.893C105.481 166.893 105.359 166.937 105.202 167.025C105.042 167.116 104.848 167.235 104.616 167.392L104.443 167.081L106.315 165.969H106.531C106.516 166.223 106.509 166.58 106.509 167.028V170.444Z" fill="#B5B1B4"/>
<path d="M104.004 184.012C104.004 185.767 104.167 187.049 104.493 187.87C104.819 188.688 105.324 189.099 106.008 189.099C106.654 189.099 107.14 188.717 107.453 187.946C107.77 187.175 107.927 185.977 107.927 184.36C107.927 183.125 107.842 182.119 107.682 181.355C107.522 180.59 107.296 180.041 107.011 179.706C106.72 179.371 106.375 179.208 105.964 179.208C105.594 179.208 105.283 179.318 105.033 179.537C104.785 179.759 104.581 180.076 104.427 180.49C104.274 180.903 104.167 181.408 104.101 182C104.036 182.596 104.004 183.263 104.004 184.012ZM105.876 189.785C104.716 189.785 103.851 189.328 103.28 188.416C102.716 187.501 102.43 186.115 102.43 184.254C102.43 183.263 102.521 182.411 102.694 181.69C102.869 180.969 103.114 180.377 103.427 179.904C103.741 179.433 104.12 179.086 104.562 178.86C105.001 178.634 105.484 178.521 106.008 178.521C107.18 178.521 108.058 178.976 108.635 179.885C109.209 180.794 109.498 182.166 109.498 184.006C109.498 185.908 109.19 187.347 108.576 188.325C107.961 189.296 107.058 189.785 105.876 189.785Z" fill="#B5B1B4"/>
<path d="M106.723 201.951C106.723 202.174 106.735 202.346 106.76 202.459C106.785 202.575 106.829 202.666 106.895 202.738C106.958 202.81 107.052 202.866 107.171 202.907C107.29 202.948 107.441 202.976 107.622 202.998C107.804 203.023 108.046 203.036 108.341 203.042V203.465H104.054V203.042C104.484 203.023 104.791 202.998 104.973 202.963C105.155 202.929 105.296 202.882 105.396 202.816C105.49 202.75 105.562 202.656 105.606 202.537C105.65 202.418 105.672 202.224 105.672 201.951V197.244C105.672 197.09 105.644 196.977 105.591 196.909C105.537 196.836 105.456 196.799 105.356 196.799C105.23 196.799 105.055 196.861 104.826 196.99C104.597 197.118 104.315 197.294 103.979 197.52L103.722 197.071L106.44 195.451H106.757C106.735 195.824 106.723 196.341 106.723 196.996V201.951Z" fill="#B5B1B4"/>
<path d="M105.18 214.828C105.18 215.53 105.246 216.047 105.374 216.376C105.503 216.706 105.707 216.868 105.983 216.868C106.243 216.868 106.437 216.715 106.563 216.405C106.688 216.098 106.751 215.615 106.751 214.966C106.751 214.471 106.72 214.07 106.654 213.763C106.591 213.456 106.497 213.236 106.384 213.101C106.268 212.967 106.13 212.901 105.964 212.901C105.817 212.901 105.691 212.948 105.591 213.036C105.49 213.12 105.409 213.249 105.346 213.415C105.287 213.581 105.246 213.781 105.218 214.023C105.189 214.261 105.18 214.53 105.18 214.828ZM105.929 217.144C105.462 217.144 105.117 216.963 104.888 216.593C104.66 216.226 104.55 215.671 104.55 214.925C104.55 214.53 104.581 214.186 104.653 213.894C104.722 213.609 104.823 213.371 104.948 213.183C105.073 212.992 105.224 212.854 105.403 212.763C105.578 212.672 105.77 212.625 105.983 212.625C106.453 212.625 106.804 212.807 107.033 213.17C107.265 213.537 107.381 214.089 107.381 214.825C107.381 215.59 107.259 216.166 107.011 216.558C106.763 216.947 106.403 217.144 105.929 217.144Z" fill="#B5B1B4"/>
<path d="M106.967 233.561C106.967 233.865 106.983 234.094 107.017 234.248C107.052 234.401 107.111 234.53 107.199 234.624C107.284 234.724 107.409 234.799 107.569 234.853C107.735 234.906 107.936 234.95 108.181 234.978C108.428 235.006 108.751 235.028 109.156 235.037V235.611H103.355V235.037C103.938 235.009 104.349 234.975 104.6 234.931C104.848 234.887 105.036 234.821 105.171 234.73C105.299 234.639 105.396 234.517 105.456 234.354C105.516 234.194 105.547 233.928 105.547 233.561V227.199C105.547 226.989 105.509 226.836 105.437 226.742C105.362 226.641 105.255 226.594 105.114 226.594C104.948 226.594 104.71 226.682 104.402 226.854C104.092 227.027 103.709 227.262 103.255 227.566L102.91 226.961L106.582 224.773H107.014C106.983 225.275 106.967 225.974 106.967 226.861V233.561Z" fill="#B5B1B4"/>
<path d="M104.87 245.54C104.87 246.518 104.961 247.239 105.142 247.696C105.324 248.157 105.606 248.386 105.986 248.386C106.353 248.386 106.622 248.17 106.795 247.737C106.974 247.308 107.061 246.64 107.061 245.734C107.061 245.045 107.017 244.481 106.926 244.055C106.836 243.628 106.71 243.318 106.55 243.133C106.39 242.945 106.193 242.851 105.964 242.851C105.757 242.851 105.584 242.914 105.443 243.036C105.302 243.161 105.189 243.337 105.105 243.569C105.02 243.801 104.957 244.083 104.923 244.415C104.885 244.747 104.87 245.123 104.87 245.54ZM105.914 248.768C105.265 248.768 104.785 248.514 104.465 248C104.148 247.493 103.989 246.715 103.989 245.675C103.989 245.123 104.039 244.644 104.136 244.243C104.233 243.838 104.371 243.506 104.544 243.243C104.722 242.98 104.935 242.785 105.18 242.657C105.425 242.531 105.694 242.469 105.986 242.469C106.644 242.469 107.137 242.723 107.456 243.23C107.779 243.741 107.939 244.509 107.939 245.537C107.939 246.603 107.77 247.405 107.425 247.95C107.08 248.496 106.575 248.768 105.914 248.768Z" fill="#B5B1B4"/>
<path d="M106.638 263.113C106.638 263.31 106.647 263.458 106.672 263.558C106.691 263.658 106.735 263.74 106.788 263.802C106.842 263.865 106.926 263.915 107.03 263.95C107.137 263.987 107.265 264.009 107.428 264.031C107.588 264.047 107.798 264.063 108.058 264.069V264.442H104.296V264.069C104.675 264.053 104.942 264.031 105.102 264C105.265 263.972 105.387 263.928 105.475 263.871C105.556 263.812 105.619 263.73 105.657 263.627C105.694 263.523 105.716 263.348 105.716 263.113V258.982C105.716 258.848 105.691 258.75 105.644 258.685C105.597 258.622 105.528 258.594 105.437 258.594C105.327 258.594 105.174 258.647 104.973 258.76C104.772 258.873 104.525 259.026 104.23 259.224L104.004 258.832L106.39 257.412H106.669C106.647 257.735 106.638 258.186 106.638 258.763V263.113Z" fill="#B5B1B4"/>
<mask id="mask5_619_5162" style="mask-type:luminance" maskUnits="userSpaceOnUse" x="84" y="163" width="7" height="12">
<path d="M84.4011 163.785H90.7129V174.215H84.4011V163.785Z" fill="white"/>
</mask>
<g mask="url(#mask5_619_5162)">
<path d="M85.7901 168.662C85.7901 170.213 85.9344 171.348 86.2197 172.072C86.5082 172.796 86.9566 173.159 87.5554 173.159C88.1324 173.159 88.5557 172.818 88.8378 172.138C89.1138 171.454 89.2549 170.401 89.2549 168.969C89.2549 167.875 89.1828 166.992 89.0385 166.318C88.8974 165.641 88.6999 165.152 88.4428 164.857C88.1919 164.566 87.8847 164.419 87.5209 164.419C87.1948 164.419 86.9221 164.513 86.6994 164.71C86.4768 164.904 86.2981 165.186 86.1633 165.553C86.0284 165.917 85.9344 166.362 85.8748 166.888C85.8184 167.412 85.7901 168.004 85.7901 168.662ZM87.4426 173.764C86.4172 173.764 85.6553 173.36 85.1536 172.555C84.6488 171.746 84.4011 170.521 84.4011 168.878C84.4011 168.004 84.4795 167.249 84.6331 166.609C84.7868 165.976 85.0031 165.45 85.2822 165.033C85.5581 164.619 85.8936 164.312 86.2824 164.111C86.6712 163.914 87.0945 163.811 87.5554 163.811C88.5964 163.811 89.374 164.215 89.882 165.017C90.3868 165.819 90.6439 167.029 90.6439 168.656C90.6439 170.339 90.3711 171.608 89.8255 172.473C89.28 173.332 88.4898 173.764 87.4426 173.764Z" fill="#B5B1B4"/>
</g>
<path d="M88.1322 186.061C88.1322 186.237 88.1448 186.375 88.1636 186.462C88.1855 186.55 88.22 186.625 88.2702 186.682C88.3204 186.738 88.3925 186.785 88.4897 186.813C88.5806 186.848 88.6998 186.873 88.844 186.889C88.9882 186.904 89.1795 186.917 89.4146 186.923V187.259H86.0252V186.923C86.3638 186.907 86.6052 186.886 86.7526 186.864C86.8968 186.835 87.0097 186.795 87.085 186.741C87.1602 186.691 87.2167 186.619 87.2512 186.525C87.2856 186.428 87.3045 186.274 87.3045 186.061V182.344C87.3045 182.222 87.2825 182.134 87.2417 182.078C87.1979 182.022 87.1351 181.993 87.0536 181.993C86.9564 181.993 86.8153 182.04 86.6335 182.144C86.4579 182.244 86.2321 182.382 85.9687 182.561L85.7681 182.21L87.9127 180.928H88.1604C88.1448 181.222 88.1322 181.63 88.1322 182.147V186.061Z" fill="#B5B1B4"/>
<path d="M86.5019 199.447C86.5019 200.359 86.5866 201.027 86.7528 201.459C86.9252 201.886 87.1886 202.096 87.5429 202.096C87.8815 202.096 88.1324 201.895 88.2986 201.497C88.4616 201.093 88.5431 200.472 88.5431 199.626C88.5431 198.983 88.5024 198.46 88.4177 198.062C88.3299 197.661 88.2139 197.379 88.0665 197.203C87.916 197.031 87.7342 196.94 87.521 196.94C87.3266 196.94 87.1666 197 87.0381 197.116C86.9064 197.228 86.8029 197.395 86.7183 197.611C86.6399 197.827 86.5834 198.087 86.5521 198.401C86.5176 198.708 86.5019 199.059 86.5019 199.447ZM87.4739 202.456C86.8688 202.456 86.4204 202.218 86.1257 201.738C85.8278 201.265 85.6804 200.544 85.6804 199.573C85.6804 199.059 85.7275 198.611 85.8184 198.234C85.9093 197.858 86.0379 197.548 86.2009 197.307C86.364 197.062 86.5584 196.881 86.7904 196.761C87.0193 196.645 87.2701 196.586 87.5429 196.586C88.1575 196.586 88.6121 196.821 88.9131 197.297C89.211 197.767 89.3615 198.485 89.3615 199.441C89.3615 200.435 89.2016 201.18 88.8818 201.691C88.5588 202.199 88.0916 202.456 87.4739 202.456Z" fill="#B5B1B4"/>
<path d="M86.3701 214.805C86.3701 215.829 86.4673 216.585 86.6585 217.064C86.8498 217.547 87.1477 217.785 87.5459 217.785C87.9253 217.785 88.2075 217.559 88.3925 217.105C88.5775 216.657 88.6684 215.955 88.6684 215.005C88.6684 214.281 88.6214 213.695 88.5304 213.244C88.4332 212.799 88.3015 212.476 88.1322 212.279C87.966 212.084 87.7622 211.987 87.5208 211.987C87.3045 211.987 87.1226 212.053 86.9752 212.178C86.8279 212.31 86.7087 212.498 86.6209 212.739C86.5331 212.981 86.4673 213.275 86.4297 213.623C86.392 213.971 86.3701 214.366 86.3701 214.805ZM87.4706 218.189C86.7871 218.189 86.2823 217.923 85.9468 217.387C85.6176 216.851 85.4482 216.036 85.4482 214.946C85.4482 214.366 85.5047 213.868 85.6019 213.441C85.7054 213.018 85.8496 212.67 86.0346 212.395C86.2164 212.119 86.4391 211.918 86.6993 211.783C86.9596 211.652 87.2386 211.586 87.5459 211.586C88.2357 211.586 88.7468 211.852 89.0854 212.385C89.4241 212.918 89.5902 213.723 89.5902 214.798C89.5902 215.914 89.4115 216.757 89.0509 217.331C88.6903 217.901 88.1636 218.189 87.4706 218.189Z" fill="#B5B1B4"/>
<mask id="mask6_619_5162" style="mask-type:luminance" maskUnits="userSpaceOnUse" x="84" y="224" width="7" height="12">
<path d="M84.4011 224.762H90.7129V235.192H84.4011V224.762Z" fill="white"/>
</mask>
<g mask="url(#mask6_619_5162)">
<path d="M85.8341 230.131C85.8341 231.642 85.9752 232.748 86.2542 233.45C86.5364 234.158 86.9691 234.509 87.5555 234.509C88.1167 234.509 88.5337 234.177 88.8034 233.516C89.073 232.852 89.2079 231.824 89.2079 230.429C89.2079 229.367 89.1389 228.505 89.0009 227.846C88.8598 227.185 88.6686 226.715 88.4208 226.427C88.17 226.142 87.8753 225.997 87.521 225.997C87.2011 225.997 86.9346 226.095 86.7183 226.283C86.5051 226.474 86.3295 226.746 86.2009 227.101C86.0661 227.455 85.9752 227.89 85.9187 228.401C85.8623 228.915 85.8341 229.492 85.8341 230.131ZM87.4426 235.099C86.4455 235.099 85.7024 234.707 85.2132 233.923C84.7241 233.134 84.4827 231.943 84.4827 230.341C84.4827 229.492 84.5579 228.752 84.7084 228.135C84.8589 227.514 85.0659 227 85.3387 226.599C85.6083 226.192 85.9344 225.891 86.3138 225.697C86.6932 225.505 87.1102 225.408 87.5555 225.408C88.5714 225.408 89.3239 225.8 89.8193 226.58C90.3116 227.361 90.5624 228.545 90.5624 230.125C90.5624 231.764 90.2959 233.002 89.766 233.839C89.2361 234.679 88.4647 235.099 87.4426 235.099Z" fill="#B5B1B4"/>
</g>
<path d="M86.3232 245.533C86.3232 246.602 86.4236 247.388 86.6242 247.887C86.8218 248.388 87.1291 248.639 87.5461 248.639C87.9411 248.639 88.239 248.404 88.4303 247.931C88.6215 247.461 88.7187 246.733 88.7187 245.743C88.7187 244.988 88.6686 244.377 88.5714 243.91C88.471 243.443 88.3362 243.104 88.1606 242.904C87.9819 242.697 87.7718 242.597 87.521 242.597C87.2952 242.597 87.1071 242.665 86.9503 242.8C86.7967 242.935 86.6775 243.129 86.5835 243.38C86.4894 243.634 86.4236 243.941 86.3859 244.301C86.3452 244.665 86.3232 245.076 86.3232 245.533ZM87.4677 249.059C86.7559 249.059 86.2323 248.78 85.8843 248.222C85.5394 247.661 85.3638 246.815 85.3638 245.677C85.3638 245.076 85.4171 244.552 85.5237 244.117C85.6303 243.675 85.7808 243.308 85.9721 243.023C86.1665 242.734 86.3953 242.524 86.665 242.383C86.9347 242.249 87.2294 242.18 87.5461 242.18C88.2672 242.18 88.8003 242.455 89.1514 243.013C89.5026 243.565 89.6813 244.405 89.6813 245.53C89.6813 246.69 89.4932 247.57 89.117 248.166C88.7376 248.761 88.1889 249.059 87.4677 249.059Z" fill="#B5B1B4"/>
<path d="M88.2798 263.413C88.2798 263.639 88.2892 263.805 88.3174 263.921C88.3425 264.034 88.3864 264.125 88.4522 264.197C88.5118 264.269 88.6059 264.325 88.725 264.366C88.8441 264.407 88.9947 264.438 89.1734 264.457C89.3584 264.479 89.5998 264.495 89.8945 264.501V264.924H85.6146V264.501C86.0442 264.482 86.3483 264.457 86.5333 264.422C86.7151 264.391 86.8562 264.341 86.9503 264.275C87.0475 264.212 87.1196 264.115 87.1635 263.996C87.2074 263.877 87.2294 263.683 87.2294 263.413V258.715C87.2294 258.562 87.2043 258.449 87.151 258.377C87.0945 258.305 87.0162 258.27 86.9095 258.27C86.7873 258.27 86.6148 258.333 86.3859 258.461C86.157 258.587 85.8748 258.762 85.5393 258.988L85.2822 258.54L87.9944 256.926H88.3143C88.2892 257.299 88.2798 257.81 88.2798 258.465V263.413Z" fill="#B5B1B4"/>
<path d="M86.5739 276.284C86.5739 277.13 86.6523 277.754 86.8091 278.152C86.9659 278.547 87.2104 278.744 87.5428 278.744C87.8564 278.744 88.0884 278.559 88.242 278.186C88.3957 277.813 88.4709 277.233 88.4709 276.45C88.4709 275.854 88.4302 275.366 88.3518 274.996C88.2765 274.623 88.1668 274.356 88.0288 274.197C87.8877 274.037 87.7215 273.955 87.5209 273.955C87.3421 273.955 87.1916 274.009 87.0725 274.115C86.9471 274.222 86.853 274.375 86.7777 274.576C86.7025 274.776 86.6523 275.021 86.621 275.306C86.5865 275.594 86.5739 275.92 86.5739 276.284ZM87.477 279.079C86.9188 279.079 86.4987 278.857 86.2259 278.415C85.9468 277.973 85.812 277.299 85.812 276.4C85.812 275.92 85.8528 275.503 85.9374 275.156C86.0221 274.808 86.1381 274.523 86.2917 274.294C86.4454 274.065 86.6272 273.896 86.8436 273.786C87.0537 273.679 87.2888 273.623 87.5428 273.623C88.1135 273.623 88.5368 273.842 88.8127 274.281C89.0917 274.723 89.2328 275.388 89.2328 276.278C89.2328 277.202 89.0823 277.895 88.7845 278.368C88.4897 278.841 88.0508 279.079 87.477 279.079Z" fill="#B5B1B4"/>
<mask id="mask7_619_5162" style="mask-type:luminance" maskUnits="userSpaceOnUse" x="84" y="285" width="8" height="13">
<path d="M84.4011 285.736H91.5156V297.771H84.4011V285.736Z" fill="white"/>
</mask>
<g mask="url(#mask7_619_5162)">
<path d="M88.5399 295.082C88.5399 295.393 88.5556 295.625 88.5901 295.781C88.6245 295.938 88.6873 296.067 88.775 296.164C88.8597 296.264 88.9883 296.339 89.1544 296.396C89.3175 296.452 89.5276 296.496 89.7753 296.524C90.0261 296.549 90.3553 296.571 90.763 296.58V297.163H84.8682V296.58C85.4608 296.559 85.881 296.521 86.1318 296.474C86.3858 296.43 86.5802 296.361 86.7119 296.27C86.8467 296.182 86.9408 296.051 87.0035 295.888C87.0631 295.725 87.0944 295.455 87.0944 295.082V288.617C87.0944 288.401 87.0568 288.247 86.9815 288.147C86.9063 288.05 86.7966 288.003 86.6555 288.003C86.483 288.003 86.2447 288.087 85.9312 288.263C85.6176 288.438 85.2288 288.68 84.7647 288.987L84.4136 288.372L88.1479 286.15H88.5869C88.5524 286.658 88.5399 287.366 88.5399 288.272V295.082Z" fill="#B5B1B4"/>
</g>
<mask id="mask8_619_5162" style="mask-type:luminance" maskUnits="userSpaceOnUse" x="84" y="301" width="7" height="12">
<path d="M84.4011 301.783H90.7129V312.213H84.4011V301.783Z" fill="white"/>
</mask>
<g mask="url(#mask8_619_5162)">
<path d="M85.8373 306.964C85.8373 308.465 85.9784 309.568 86.2574 310.276C86.5396 310.978 86.9692 311.326 87.5555 311.326C88.1168 311.326 88.5307 311 88.8003 310.336C89.07 309.675 89.2017 308.647 89.2017 307.261C89.2017 306.199 89.1327 305.337 88.9979 304.682C88.8568 304.024 88.6655 303.554 88.4178 303.265C88.1701 302.98 87.8753 302.839 87.521 302.839C87.2044 302.839 86.9378 302.93 86.7246 303.121C86.5083 303.309 86.3327 303.585 86.2041 303.939C86.0724 304.293 85.9784 304.723 85.9251 305.237C85.8655 305.744 85.8373 306.321 85.8373 306.964ZM87.4458 311.919C86.4487 311.919 85.7056 311.524 85.2196 310.74C84.7336 309.957 84.489 308.766 84.489 307.167C84.489 306.321 84.5643 305.588 84.7148 304.97C84.8653 304.353 85.0722 303.839 85.345 303.438C85.6147 303.034 85.9376 302.733 86.317 302.538C86.6964 302.347 87.1103 302.25 87.5555 302.25C88.5683 302.25 89.3177 302.639 89.8131 303.419C90.3054 304.199 90.5531 305.375 90.5531 306.954C90.5531 308.59 90.2897 309.825 89.7629 310.662C89.233 311.499 88.4617 311.919 87.4458 311.919Z" fill="#B5B1B4"/>
</g>
<path d="M124.887 139.483C124.887 139.617 124.893 139.715 124.912 139.784C124.924 139.853 124.952 139.909 124.99 139.95C125.028 139.997 125.081 140.025 125.153 140.053C125.225 140.078 125.316 140.094 125.423 140.106C125.532 140.119 125.677 140.128 125.852 140.131V140.385H123.291V140.131C123.548 140.122 123.733 140.103 123.842 140.088C123.952 140.066 124.037 140.037 124.093 140C124.153 139.959 124.194 139.903 124.222 139.831C124.247 139.758 124.259 139.643 124.259 139.483V136.675C124.259 136.581 124.244 136.512 124.209 136.468C124.181 136.427 124.131 136.408 124.071 136.408C123.996 136.408 123.889 136.446 123.752 136.521C123.617 136.599 123.451 136.7 123.247 136.834L123.096 136.568L124.717 135.6H124.909C124.893 135.822 124.887 136.129 124.887 136.524V139.483Z" fill="#B5B1B4"/>
<path d="M124.918 154.963C124.918 155.107 124.927 155.217 124.946 155.292C124.959 155.364 124.99 155.424 125.031 155.471C125.072 155.514 125.128 155.552 125.207 155.577C125.282 155.602 125.382 155.624 125.498 155.637C125.614 155.649 125.768 155.662 125.959 155.665V155.938H123.203V155.665C123.479 155.652 123.673 155.637 123.796 155.615C123.915 155.593 124.003 155.561 124.065 155.521C124.125 155.477 124.172 155.417 124.2 155.339C124.228 155.264 124.244 155.138 124.244 154.963V151.938C124.244 151.838 124.225 151.766 124.191 151.719C124.156 151.672 124.106 151.65 124.04 151.65C123.959 151.65 123.846 151.691 123.698 151.772C123.551 151.857 123.372 151.97 123.156 152.114L122.99 151.826L124.736 150.785H124.94C124.927 151.023 124.918 151.356 124.918 151.779V154.963Z" fill="#B5B1B4"/>
<path d="M122.952 168.683C122.952 169.987 123.074 170.939 123.316 171.547C123.554 172.159 123.93 172.463 124.435 172.463C124.921 172.463 125.279 172.174 125.511 171.601C125.749 171.027 125.865 170.143 125.865 168.94C125.865 168.022 125.802 167.279 125.683 166.708C125.564 166.138 125.395 165.731 125.184 165.483C124.968 165.235 124.708 165.113 124.41 165.113C124.131 165.113 123.899 165.195 123.717 165.358C123.532 165.521 123.382 165.756 123.269 166.066C123.153 166.373 123.071 166.746 123.021 167.191C122.974 167.63 122.952 168.128 122.952 168.683ZM124.341 172.97C123.479 172.97 122.839 172.632 122.416 171.952C121.996 171.272 121.782 170.24 121.782 168.862C121.782 168.128 121.848 167.492 121.977 166.956C122.109 166.42 122.29 165.981 122.522 165.63C122.754 165.282 123.04 165.022 123.363 164.853C123.692 164.687 124.049 164.605 124.435 164.605C125.31 164.605 125.962 164.941 126.389 165.615C126.815 166.292 127.031 167.31 127.031 168.673C127.031 170.087 126.802 171.159 126.345 171.883C125.887 172.607 125.222 172.97 124.341 172.97Z" fill="#B5B1B4"/>
<path d="M123.096 184.06C123.096 185.232 123.206 186.091 123.422 186.642C123.642 187.191 123.977 187.463 124.432 187.463C124.871 187.463 125.191 187.206 125.404 186.689C125.614 186.175 125.721 185.376 125.721 184.292C125.721 183.467 125.664 182.794 125.558 182.283C125.451 181.769 125.301 181.402 125.106 181.18C124.915 180.957 124.683 180.844 124.41 180.844C124.159 180.844 123.952 180.92 123.783 181.067C123.617 181.214 123.482 181.424 123.382 181.7C123.278 181.982 123.203 182.317 123.162 182.715C123.118 183.11 123.096 183.558 123.096 184.06ZM124.347 187.921C123.573 187.921 122.993 187.617 122.613 187.006C122.234 186.392 122.046 185.467 122.046 184.22C122.046 183.558 122.102 182.988 122.221 182.508C122.338 182.026 122.501 181.625 122.711 181.311C122.921 180.998 123.172 180.763 123.469 180.612C123.764 180.462 124.084 180.387 124.432 180.387C125.222 180.387 125.808 180.691 126.194 181.299C126.577 181.907 126.771 182.825 126.771 184.054C126.771 185.326 126.564 186.291 126.153 186.943C125.74 187.598 125.141 187.921 124.347 187.921Z" fill="#B5B1B4"/>
<path d="M124.921 201.071C124.921 201.213 124.927 201.322 124.946 201.397C124.962 201.47 124.99 201.532 125.031 201.576C125.072 201.623 125.131 201.658 125.206 201.686C125.285 201.711 125.385 201.73 125.501 201.745C125.617 201.761 125.774 201.767 125.965 201.774V202.046H123.2V201.774C123.476 201.761 123.67 201.742 123.789 201.723C123.912 201.701 123.999 201.67 124.065 201.626C124.125 201.585 124.169 201.523 124.2 201.444C124.228 201.369 124.241 201.244 124.241 201.071V198.031C124.241 197.931 124.225 197.859 124.191 197.812C124.156 197.768 124.106 197.743 124.037 197.743C123.959 197.743 123.843 197.787 123.695 197.868C123.548 197.95 123.366 198.066 123.15 198.21L122.983 197.922L124.736 196.875H124.946C124.927 197.116 124.921 197.449 124.921 197.872V201.071Z" fill="#B5B1B4"/>
<path d="M123.473 214.819C123.473 215.653 123.551 216.267 123.705 216.659C123.861 217.051 124.103 217.245 124.426 217.245C124.736 217.245 124.968 217.06 125.119 216.693C125.266 216.327 125.341 215.756 125.341 214.985C125.341 214.393 125.304 213.917 125.228 213.55C125.15 213.186 125.043 212.923 124.909 212.766C124.767 212.607 124.604 212.528 124.41 212.528C124.231 212.528 124.081 212.578 123.965 212.685C123.846 212.788 123.745 212.939 123.673 213.139C123.604 213.337 123.548 213.575 123.516 213.857C123.488 214.142 123.473 214.462 123.473 214.819ZM124.363 217.574C123.811 217.574 123.397 217.355 123.128 216.916C122.858 216.48 122.723 215.822 122.723 214.935C122.723 214.462 122.767 214.058 122.849 213.713C122.93 213.368 123.046 213.083 123.197 212.857C123.347 212.635 123.529 212.469 123.739 212.359C123.949 212.252 124.178 212.199 124.426 212.199C124.99 212.199 125.407 212.419 125.68 212.851C125.956 213.28 126.094 213.935 126.094 214.813C126.094 215.722 125.946 216.408 125.652 216.872C125.357 217.342 124.927 217.574 124.363 217.574Z" fill="#B5B1B4"/>
<path d="M122.77 230.135C122.77 231.599 122.905 232.671 123.181 233.357C123.451 234.04 123.874 234.385 124.438 234.385C124.987 234.385 125.388 234.059 125.652 233.416C125.912 232.774 126.044 231.774 126.044 230.423C126.044 229.392 125.975 228.556 125.843 227.913C125.705 227.277 125.52 226.816 125.279 226.537C125.04 226.258 124.752 226.117 124.41 226.117C124.096 226.117 123.839 226.211 123.629 226.396C123.422 226.578 123.25 226.844 123.124 227.189C122.996 227.534 122.905 227.96 122.852 228.455C122.798 228.947 122.77 229.508 122.77 230.135ZM124.335 234.958C123.363 234.958 122.638 234.576 122.168 233.811C121.695 233.05 121.459 231.887 121.459 230.336C121.459 229.508 121.532 228.794 121.676 228.195C121.82 227.593 122.024 227.095 122.287 226.703C122.551 226.308 122.867 226.02 123.234 225.832C123.604 225.641 124.005 225.547 124.438 225.547C125.423 225.547 126.156 225.926 126.639 226.685C127.116 227.443 127.36 228.59 127.36 230.126C127.36 231.718 127.1 232.918 126.586 233.733C126.072 234.548 125.319 234.958 124.335 234.958Z" fill="#B5B1B4"/>
<path d="M125.379 248.825C125.379 249.119 125.395 249.339 125.429 249.489C125.46 249.636 125.52 249.759 125.605 249.853C125.686 249.947 125.809 250.019 125.965 250.075C126.122 250.125 126.32 250.166 126.558 250.197C126.796 250.222 127.11 250.241 127.499 250.251V250.808H121.883V250.251C122.444 250.229 122.849 250.194 123.087 250.15C123.328 250.106 123.51 250.044 123.642 249.953C123.767 249.868 123.858 249.749 123.918 249.589C123.974 249.436 124.002 249.179 124.002 248.825V242.66C124.002 242.456 123.968 242.309 123.896 242.215C123.824 242.121 123.723 242.074 123.585 242.074C123.426 242.074 123.194 242.158 122.893 242.328C122.595 242.491 122.228 242.723 121.783 243.017L121.45 242.431L125.006 240.312H125.426C125.395 240.798 125.379 241.469 125.379 242.334V248.825Z" fill="#B5B1B4"/>
<path d="M125.313 263.956C125.313 264.228 125.332 264.435 125.36 264.573C125.391 264.711 125.448 264.824 125.523 264.911C125.602 264.996 125.714 265.065 125.856 265.115C126.003 265.165 126.188 265.203 126.407 265.228C126.63 265.253 126.922 265.269 127.285 265.281V265.795H122.071V265.281C122.591 265.256 122.965 265.225 123.187 265.184C123.413 265.147 123.582 265.087 123.698 265.009C123.817 264.924 123.902 264.811 123.955 264.667C124.009 264.523 124.037 264.285 124.037 263.956V258.233C124.037 258.045 124.006 257.91 123.937 257.819C123.874 257.735 123.777 257.691 123.651 257.691C123.501 257.691 123.284 257.769 123.008 257.923C122.729 258.079 122.388 258.292 121.977 258.565L121.667 258.023L124.968 256.055H125.357C125.329 256.506 125.313 257.13 125.313 257.929V263.956Z" fill="#B5B1B4"/>
<path d="M124.987 278.131C124.987 278.294 124.993 278.422 125.012 278.504C125.031 278.589 125.065 278.658 125.112 278.711C125.156 278.764 125.225 278.805 125.313 278.836C125.404 278.864 125.514 278.889 125.649 278.902C125.78 278.921 125.959 278.93 126.179 278.933V279.247H123.015V278.933C123.335 278.921 123.557 278.902 123.695 278.877C123.827 278.852 123.934 278.817 124.003 278.767C124.075 278.72 124.128 278.651 124.159 278.56C124.194 278.476 124.209 278.328 124.209 278.131V274.659C124.209 274.543 124.191 274.461 124.15 274.408C124.109 274.355 124.05 274.329 123.974 274.329C123.883 274.329 123.752 274.376 123.585 274.47C123.416 274.564 123.206 274.693 122.958 274.862L122.77 274.53L124.774 273.336H125.009C124.993 273.609 124.987 273.991 124.987 274.474V278.131Z" fill="#B5B1B4"/>
<path d="M122.601 291.585C122.601 293.205 122.748 294.39 123.049 295.145C123.35 295.897 123.814 296.277 124.441 296.277C125.043 296.277 125.489 295.922 125.777 295.211C126.069 294.5 126.216 293.4 126.216 291.908C126.216 290.767 126.141 289.846 125.99 289.137C125.843 288.432 125.636 287.927 125.373 287.614C125.106 287.313 124.783 287.157 124.41 287.157C124.065 287.157 123.78 287.257 123.548 287.461C123.319 287.664 123.131 287.956 122.993 288.338C122.849 288.72 122.748 289.187 122.692 289.733C122.629 290.281 122.601 290.895 122.601 291.585ZM124.325 296.91C123.253 296.91 122.46 296.49 121.936 295.647C121.413 294.804 121.152 293.525 121.152 291.811C121.152 290.895 121.234 290.112 121.394 289.444C121.554 288.783 121.779 288.235 122.071 287.799C122.36 287.366 122.708 287.047 123.115 286.837C123.52 286.63 123.965 286.523 124.441 286.523C125.529 286.523 126.338 286.943 126.868 287.78C127.401 288.62 127.662 289.886 127.662 291.579C127.662 293.334 127.379 294.663 126.812 295.559C126.248 296.458 125.417 296.91 124.325 296.91Z" fill="#B5B1B4"/>
<path d="M86.5332 137.986C86.5332 138.87 86.6148 139.518 86.7778 139.932C86.9408 140.349 87.198 140.553 87.5429 140.553C87.869 140.553 88.1135 140.358 88.2734 139.97C88.4302 139.581 88.5117 138.976 88.5117 138.158C88.5117 137.534 88.471 137.03 88.3894 136.644C88.3079 136.256 88.195 135.977 88.0477 135.811C87.9034 135.638 87.7279 135.557 87.5209 135.557C87.3328 135.557 87.176 135.613 87.0506 135.726C86.9252 135.836 86.8217 135.996 86.7464 136.202C86.6681 136.416 86.6148 136.666 86.5803 136.967C86.5489 137.268 86.5332 137.607 86.5332 137.986ZM87.477 140.9C86.8907 140.9 86.4517 140.668 86.1664 140.208C85.881 139.747 85.7368 139.045 85.7368 138.105C85.7368 137.607 85.7807 137.177 85.8685 136.81C85.9594 136.45 86.0817 136.146 86.2416 135.911C86.3984 135.67 86.5897 135.497 86.8123 135.381C87.0349 135.269 87.2795 135.209 87.5429 135.209C88.1355 135.209 88.5807 135.441 88.8723 135.898C89.1608 136.356 89.305 137.049 89.305 137.979C89.305 138.942 89.1514 139.669 88.841 140.161C88.5305 140.653 88.0759 140.9 87.477 140.9Z" fill="#B5B1B4"/>
<path d="M86.5804 153.351C86.5804 154.194 86.6587 154.808 86.8155 155.206C86.9723 155.598 87.2137 155.795 87.543 155.795C87.8534 155.795 88.0854 155.607 88.2359 155.24C88.3864 154.867 88.4617 154.297 88.4617 153.52C88.4617 152.924 88.424 152.448 88.3456 152.078C88.2704 151.708 88.1607 151.445 88.0227 151.285C87.8847 151.125 87.7154 151.047 87.521 151.047C87.3454 151.047 87.1949 151.097 87.0758 151.204C86.9566 151.31 86.8594 151.464 86.7842 151.661C86.7089 151.859 86.6587 152.1 86.6274 152.385C86.596 152.67 86.5804 152.993 86.5804 153.351ZM87.4771 156.124C86.9221 156.124 86.5082 155.905 86.2355 155.466C85.9627 155.027 85.8247 154.363 85.8247 153.467C85.8247 152.993 85.8686 152.583 85.9501 152.238C86.0379 151.893 86.1539 151.608 86.3044 151.382C86.4581 151.157 86.6368 150.988 86.85 150.878C87.0601 150.771 87.289 150.715 87.543 150.715C88.1073 150.715 88.5275 150.934 88.8034 151.37C89.0794 151.809 89.2173 152.467 89.2173 153.347C89.2173 154.263 89.0699 154.952 88.7721 155.419C88.4773 155.889 88.0478 156.124 87.4771 156.124Z" fill="#B5B1B4"/>
</g>
<path d="M253 422.001C275 424.501 323.6 417.201 342 368.001C355.838 331 342 296 315 261C296.423 236.919 250.5 193 277.5 144.5C304.5 96.0004 367.5 130.001 357 157.001" stroke="url(#paint16_linear_619_5162)" stroke-width="16" stroke-linecap="round"/>
<defs>
<filter id="filter0_f_619_5162" x="47.5" y="138.5" width="304" height="304" filterUnits="userSpaceOnUse" color-interpolation-filters="sRGB">
<feFlood flood-opacity="0" result="BackgroundImageFix"/>
<feBlend mode="normal" in="SourceGraphic" in2="BackgroundImageFix" result="shape"/>
<feGaussianBlur stdDeviation="31.25" result="effect1_foregroundBlur_619_5162"/>
</filter>
<filter id="filter1_f_619_5162" x="132.5" y="20.5" width="304" height="304" filterUnits="userSpaceOnUse" color-interpolation-filters="sRGB">
<feFlood flood-opacity="0" result="BackgroundImageFix"/>
<feBlend mode="normal" in="SourceGraphic" in2="BackgroundImageFix" result="shape"/>
<feGaussianBlur stdDeviation="31.25" result="effect1_foregroundBlur_619_5162"/>
</filter>
<filter id="filter2_f_619_5162" x="132.5" y="244.5" width="304" height="304" filterUnits="userSpaceOnUse" color-interpolation-filters="sRGB">
<feFlood flood-opacity="0" result="BackgroundImageFix"/>
<feBlend mode="normal" in="SourceGraphic" in2="BackgroundImageFix" result="shape"/>
<feGaussianBlur stdDeviation="31.25" result="effect1_foregroundBlur_619_5162"/>
</filter>
<filter id="filter3_f_619_5162" x="-46.5" y="103.5" width="304" height="304" filterUnits="userSpaceOnUse" color-interpolation-filters="sRGB">
<feFlood flood-opacity="0" result="BackgroundImageFix"/>
<feBlend mode="normal" in="SourceGraphic" in2="BackgroundImageFix" result="shape"/>
<feGaussianBlur stdDeviation="31.25" result="effect1_foregroundBlur_619_5162"/>
</filter>
<filter id="filter4_f_619_5162" x="-67.5" y="222.5" width="304" height="305" filterUnits="userSpaceOnUse" color-interpolation-filters="sRGB">
<feFlood flood-opacity="0" result="BackgroundImageFix"/>
<feBlend mode="normal" in="SourceGraphic" in2="BackgroundImageFix" result="shape"/>
<feGaussianBlur stdDeviation="31.25" result="effect1_foregroundBlur_619_5162"/>
</filter>
<filter id="filter5_f_619_5162" x="76.8779" y="-18.8945" width="317.244" height="356.789" filterUnits="userSpaceOnUse" color-interpolation-filters="sRGB">
<feFlood flood-opacity="0" result="BackgroundImageFix"/>
<feBlend mode="normal" in="SourceGraphic" in2="BackgroundImageFix" result="shape"/>
<feGaussianBlur stdDeviation="31.25" result="effect1_foregroundBlur_619_5162"/>
</filter>
<filter id="filter6_f_619_5162" x="144.5" y="-32.5" width="208" height="207" filterUnits="userSpaceOnUse" color-interpolation-filters="sRGB">
<feFlood flood-opacity="0" result="BackgroundImageFix"/>
<feBlend mode="normal" in="SourceGraphic" in2="BackgroundImageFix" result="shape"/>
<feGaussianBlur stdDeviation="31.25" result="effect1_foregroundBlur_619_5162"/>
</filter>
<filter id="filter7_f_619_5162" x="-24.5" y="-80.5" width="283" height="319" filterUnits="userSpaceOnUse" color-interpolation-filters="sRGB">
<feFlood flood-opacity="0" result="BackgroundImageFix"/>
<feBlend mode="normal" in="SourceGraphic" in2="BackgroundImageFix" result="shape"/>
<feGaussianBlur stdDeviation="31.25" result="effect1_foregroundBlur_619_5162"/>
</filter>
<filter id="filter8_f_619_5162" x="41.5344" y="90.4746" width="242.973" height="227.289" filterUnits="userSpaceOnUse" color-interpolation-filters="sRGB">
<feFlood flood-opacity="0" result="BackgroundImageFix"/>
<feBlend mode="normal" in="SourceGraphic" in2="BackgroundImageFix" result="shape"/>
<feGaussianBlur stdDeviation="31.25" result="effect1_foregroundBlur_619_5162"/>
</filter>
<linearGradient id="paint0_linear_619_5162" x1="248.707" y1="88.4414" x2="274.363" y2="158.119" gradientUnits="userSpaceOnUse">
<stop stop-color="#60C6FF"/>
<stop offset="1" stop-color="#4F4C4C" stop-opacity="0"/>
</linearGradient>
<linearGradient id="paint1_linear_619_5162" x1="291.95" y1="146.965" x2="309.855" y2="195.593" gradientUnits="userSpaceOnUse">
<stop stop-color="#60C6FF"/>
<stop offset="1" stop-color="#4F4C4C" stop-opacity="0"/>
</linearGradient>
<linearGradient id="paint2_linear_619_5162" x1="322.98" y1="128.16" x2="333.087" y2="155.608" gradientUnits="userSpaceOnUse">
<stop stop-color="#60C6FF"/>
<stop offset="1" stop-color="#4F4C4C" stop-opacity="0"/>
</linearGradient>
<linearGradient id="paint3_linear_619_5162" x1="332.612" y1="191.816" x2="241.5" y2="322.5" gradientUnits="userSpaceOnUse">
<stop stop-color="#FF72CF"/>
<stop offset="1" stop-color="#D9D9D9" stop-opacity="0"/>
<stop offset="1" stop-color="#CC00FF"/>
</linearGradient>
<linearGradient id="paint4_linear_619_5162" x1="89.5" y1="-15.5" x2="167" y2="193" gradientUnits="userSpaceOnUse">
<stop stop-color="#60C6FF"/>
<stop offset="1" stop-color="#60C6FF" stop-opacity="0"/>
</linearGradient>
<linearGradient id="paint5_linear_619_5162" x1="141.36" y1="277.206" x2="104.947" y2="413.101" gradientUnits="userSpaceOnUse">
<stop stop-color="#FFC700"/>
<stop offset="1" stop-color="#FFC700" stop-opacity="0"/>
</linearGradient>
<linearGradient id="paint6_linear_619_5162" x1="203" y1="307" x2="203" y2="152" gradientUnits="userSpaceOnUse">
<stop offset="0.463161" stop-color="white"/>
<stop offset="1" stop-color="white" stop-opacity="0"/>
</linearGradient>
<linearGradient id="paint7_linear_619_5162" x1="144.5" y1="130.5" x2="193" y2="164.5" gradientUnits="userSpaceOnUse">
<stop stop-color="#541800"/>
<stop offset="1" stop-color="#D83C00" stop-opacity="0"/>
</linearGradient>
<linearGradient id="paint8_linear_619_5162" x1="201" y1="168" x2="200.554" y2="177.657" gradientUnits="userSpaceOnUse">
<stop stop-color="#C34214"/>
<stop offset="1" stop-color="#C34214" stop-opacity="0"/>
</linearGradient>
<linearGradient id="paint9_linear_619_5162" x1="257" y1="453.5" x2="226.5" y2="330" gradientUnits="userSpaceOnUse">
<stop stop-color="#64C6FB"/>
<stop offset="1" stop-color="#D9D9D9" stop-opacity="0"/>
</linearGradient>
<linearGradient id="paint10_linear_619_5162" x1="242" y1="454.5" x2="201" y2="381.5" gradientUnits="userSpaceOnUse">
<stop stop-color="white"/>
<stop offset="1" stop-color="white" stop-opacity="0"/>
</linearGradient>
<linearGradient id="paint11_linear_619_5162" x1="270.5" y1="430" x2="292" y2="302" gradientUnits="userSpaceOnUse">
<stop stop-color="white"/>
<stop offset="1" stop-color="white" stop-opacity="0"/>
</linearGradient>
<linearGradient id="paint12_linear_619_5162" x1="116" y1="433" x2="178" y2="280" gradientUnits="userSpaceOnUse">
<stop stop-color="white"/>
<stop offset="1" stop-color="white" stop-opacity="0"/>
</linearGradient>
<linearGradient id="paint13_linear_619_5162" x1="143.409" y1="56" x2="157" y2="134.5" gradientUnits="userSpaceOnUse">
<stop stop-color="#C23E12"/>
<stop offset="1" stop-color="#C23E12" stop-opacity="0"/>
</linearGradient>
<linearGradient id="paint14_linear_619_5162" x1="263" y1="60.5" x2="258" y2="136.5" gradientUnits="userSpaceOnUse">
<stop stop-color="#BC3400"/>
<stop offset="1" stop-color="#CA6559" stop-opacity="0"/>
</linearGradient>
<radialGradient id="paint15_angular_619_5162" cx="0" cy="0" r="1" gradientUnits="userSpaceOnUse" gradientTransform="translate(143 402) rotate(90) scale(54 45.1585)">
<stop stop-color="white"/>
<stop offset="0.263542" stop-color="white"/>
<stop offset="0.475581" stop-color="white"/>
<stop offset="1" stop-color="white" stop-opacity="0"/>
</radialGradient>
<linearGradient id="paint16_linear_619_5162" x1="305.584" y1="120.014" x2="305.584" y2="422.428" gradientUnits="userSpaceOnUse">
<stop stop-color="#FFC700"/>
<stop offset="0.555208" stop-color="#FF5C00"/>
<stop offset="1" stop-color="#FA6C8B"/>
</linearGradient>
<clipPath id="clip0_619_5162">
<rect width="72" height="206" fill="white" transform="translate(84 129)"/>
</clipPath>
</defs>
</svg>
