<svg width="1005" height="1112" viewBox="0 0 1005 1112" fill="none" xmlns="http://www.w3.org/2000/svg">
<g clip-path="url(#clip0_708_4659)">
<path d="M691.404 371.216C661.887 382.085 629.123 366.899 618.223 337.296C607.322 307.693 622.415 274.886 651.932 264.017C681.449 253.149 714.207 268.337 725.108 297.94C736.008 327.543 720.921 360.348 691.404 371.216ZM742.504 299.194L760.119 279.52C757.493 273.393 754.285 267.662 750.604 262.371L725.421 267.87C721.71 263.848 717.588 260.284 713.14 257.219L713.988 230.957C708.339 228.179 702.425 225.954 696.329 224.32L680.571 244.785C674.87 244.068 669.046 244.024 663.207 244.7L647.149 224.188C644.187 224.97 641.23 225.899 638.294 226.979C635.359 228.06 632.506 229.272 629.738 230.598L630.822 256.624C625.94 259.897 621.535 263.706 617.654 267.952L592.392 262.59C588.813 267.787 585.754 273.317 583.255 279.094L600.931 298.535C599.533 303.754 598.706 309.139 598.49 314.607L575.755 326.753C576.383 333.168 577.658 339.61 579.632 345.977L605.794 349.532C607.938 353.97 610.482 358.108 613.366 361.917L603.727 385.979C608.583 390.816 613.92 395.099 619.62 398.773L641.951 384.617C645.892 386.381 649.986 387.801 654.188 388.847L662.318 413.719C669.189 414.404 676.182 414.358 683.19 413.518L691.157 388.388C693.122 387.839 695.08 387.216 697.031 386.498C698.976 385.782 700.877 384.984 702.728 384.127L725.09 398.09C730.969 394.185 736.322 389.684 741.108 384.707L731.168 360.502C733.687 356.982 735.883 353.245 737.739 349.347L763.918 345.641C765.874 339.148 767.153 332.429 767.713 325.597L744.777 313.53C744.502 308.76 743.756 303.961 742.504 299.194Z" fill="url(#paint0_linear_708_4659)"/>
<path d="M786.344 477.838C765.745 485.423 742.879 474.819 735.274 454.164C727.666 433.504 738.197 410.609 758.796 403.025C779.389 395.442 802.259 406.038 809.866 426.699C817.471 447.353 806.937 470.256 786.344 477.838ZM822.001 427.577L834.292 413.847C832.457 409.567 830.225 405.574 827.656 401.879L810.08 405.716C807.488 402.91 804.613 400.418 801.507 398.284L802.104 379.956C798.162 378.018 794.032 376.464 789.776 375.326L778.785 389.605C774.806 389.106 770.734 389.075 766.659 389.548L755.462 375.234C753.389 375.774 751.328 376.421 749.278 377.176C747.229 377.93 745.234 378.777 743.307 379.71L744.066 397.867C740.657 400.15 737.577 402.814 734.872 405.774L717.245 402.033C714.744 405.659 712.608 409.52 710.87 413.55L723.204 427.117C722.229 430.753 721.651 434.516 721.504 438.331L705.631 446.81C706.071 451.289 706.961 455.776 708.34 460.224L726.6 462.705C728.091 465.804 729.865 468.687 731.88 471.349L725.153 488.139C728.543 491.517 732.265 494.508 736.248 497.067L751.831 487.192C754.581 488.416 757.436 489.412 760.368 490.143L766.038 507.498C770.836 507.982 775.721 507.944 780.608 507.361L786.17 489.818C787.54 489.44 788.911 489.005 790.271 488.504C791.625 488.006 792.95 487.448 794.239 486.848L809.848 496.594C813.953 493.867 817.69 490.73 821.029 487.25L814.09 470.362C815.848 467.904 817.381 465.292 818.675 462.579L836.941 459.991C838.313 455.46 839.207 450.77 839.596 446L823.588 437.581C823.395 434.248 822.876 430.903 822.001 427.577Z" fill="url(#paint1_linear_708_4659)"/>
<path d="M849.834 385.733C838.208 390.013 825.298 384.032 821.006 372.375C816.712 360.713 822.66 347.787 834.286 343.507C845.911 339.226 858.815 345.21 863.109 356.873C867.401 368.529 861.459 381.452 849.834 385.733ZM869.959 357.369L876.902 349.613C875.866 347.199 874.603 344.945 873.15 342.86L863.233 345.023C861.771 343.443 860.148 342.035 858.396 340.828L858.733 330.486C856.506 329.391 854.177 328.516 851.773 327.87L845.566 335.935C843.323 335.65 841.025 335.637 838.724 335.897L832.402 327.818C831.237 328.128 830.07 328.488 828.912 328.914C827.755 329.34 826.633 329.824 825.546 330.343L825.972 340.592C824.045 341.889 822.311 343.387 820.782 345.061L810.833 342.945C809.422 344.995 808.217 347.172 807.232 349.449L814.195 357.104C813.644 359.158 813.322 361.283 813.234 363.433L804.281 368.218C804.528 370.748 805.028 373.283 805.805 375.792L816.114 377.196C816.959 378.94 817.957 380.571 819.098 382.073L815.298 391.551C817.214 393.452 819.311 395.141 821.557 396.592L830.356 391.011C831.905 391.705 833.516 392.265 835.17 392.677L838.373 402.477C841.079 402.745 843.84 402.728 846.598 402.398L849.739 392.498C850.512 392.283 851.281 392.035 852.05 391.752C852.819 391.468 853.565 391.159 854.293 390.821L863.104 396.32C865.418 394.783 867.525 393.008 869.41 391.049L865.493 381.511C866.485 380.125 867.355 378.652 868.083 377.119L878.394 375.664C879.169 373.1 879.67 370.455 879.89 367.768L870.857 363.014C870.745 361.134 870.453 359.242 869.959 357.369Z" fill="url(#paint2_linear_708_4659)"/>
<path d="M853.631 492.285L803.531 608.514L898.589 692.08L772.567 680.348L722.466 796.577L694.681 673.097L568.658 661.366L677.508 596.783L649.722 473.303L744.781 556.868L853.631 492.285Z" fill="url(#paint3_linear_708_4659)"/>
<path d="M649.312 1083.04C705.774 1089.46 830.503 1070.73 877.726 944.456C913.241 849.494 877.726 759.668 808.432 669.842C760.755 608.039 642.896 495.325 712.19 370.852C781.484 246.379 943.171 333.641 916.223 402.935" stroke="url(#paint4_linear_708_4659)" stroke-width="41.0632" stroke-linecap="round"/>
<path d="M261.318 70.0211L368.37 234.867L558.229 183.994L434.532 336.747L541.584 501.593L358.083 431.154L234.386 583.906L244.673 387.62L61.1724 317.18L251.031 266.308L261.318 70.0211Z" fill="url(#paint5_linear_708_4659)"/>
<path d="M362.794 711.437L369.659 842.424L496.356 876.372L373.902 923.378L380.766 1054.37L298.221 952.43L175.766 999.436L247.204 889.43L164.658 787.494L291.356 821.443L362.794 711.437Z" fill="url(#paint6_linear_708_4659)"/>
<path d="M433.198 524.838V449.127L606.434 431.162C606.006 461.104 606.434 504.306 606.434 519.705C617.983 536.387 675.728 622.363 677.011 632.628C678.294 642.894 679.577 740.419 679.577 754.535C690.375 754.535 748.12 756.319 748.12 817.413C748.12 855.91 740.421 858.476 710.907 943.169C687.529 1010.25 662.04 1079.19 648.78 1104.86H436.306C405.499 1104.86 384.35 1105.27 367.002 1101.01C305.537 1085.9 311.824 1066.36 293.326 1070.21C288.301 1071.25 285.627 1063.79 276.644 1053.53C267.661 1043.26 263.812 1041.98 254.829 1031.71C245.847 1021.45 257.396 1002.2 262.529 990.648C267.662 979.099 265.637 952.152 269.486 943.169C273.336 934.186 349.788 794.315 356.205 780.199C362.621 766.084 374.17 726.304 371.603 686.524C370.39 667.723 374.597 611.669 371.603 588.999C376.308 581.727 385.746 571.804 393.959 564.618C402.172 557.431 424.216 530.398 433.198 524.838Z" fill="url(#paint7_linear_708_4659)"/>
<path d="M433.24 452.217V524.334L466.603 603.894L480.206 699.879L519.729 788.935L555.916 704.499L575.421 603.894L606.218 524.334V431.164" fill="url(#paint8_linear_708_4659)"/>
<path d="M489.408 215.029C477.255 215.981 465.808 216.878 459.487 216.878C452.624 216.878 445.518 213.423 438.006 209.771C432.568 207.127 426.917 204.38 420.991 202.763C412.412 200.424 378.714 171.069 353.021 148.687C336.438 134.241 323.189 122.7 322.182 123.203C319.616 124.487 314.768 149.498 322.182 180.948C324.528 190.897 326.639 203.189 328.858 216.103C333.793 244.826 339.256 276.624 348.993 292.558C358.864 308.71 370.517 327.235 376.078 334.935C376.078 334.935 383.641 366.985 388.773 378.534C392.031 385.865 398.908 396.711 404.81 406.019C408.206 411.375 411.28 416.223 413.155 419.598C414.974 422.872 417.217 427.696 419.73 433.103C426.083 446.768 434.167 464.157 441.522 469.673C448.015 474.543 477.453 494.055 482.586 496.621C486.412 498.534 505.388 506.909 513.151 508.043L513.153 508.185C513.409 508.185 513.689 508.17 513.991 508.14C514.231 508.16 514.457 508.17 514.666 508.17L514.668 508.057C522.43 506.923 541.407 498.549 545.234 496.636C550.367 494.069 579.804 474.557 586.297 469.688C593.652 464.171 601.736 446.782 608.089 433.118C610.603 427.711 612.845 422.886 614.664 419.612C616.539 416.237 619.613 411.39 623.009 406.033C628.911 396.725 635.788 385.879 639.046 378.549C644.179 367 651.741 334.949 651.741 334.949C657.302 327.25 668.955 308.725 678.826 292.573C688.564 276.638 694.026 244.841 698.961 216.117C701.18 203.204 703.292 190.912 705.637 180.962C713.051 149.513 708.203 124.501 705.637 123.218C704.63 122.714 691.382 134.256 674.798 148.702C649.105 171.084 615.407 200.438 606.829 202.778C600.902 204.394 595.251 207.142 589.814 209.785C582.301 213.438 575.195 216.892 568.332 216.892C562.011 216.892 550.564 215.996 538.411 215.044C531.747 214.522 524.87 213.983 518.509 213.566L518.516 213.029C516.998 213.098 515.416 213.181 513.784 213.275C512.241 213.187 510.743 213.109 509.303 213.044L509.31 213.552C502.949 213.968 496.072 214.507 489.408 215.029Z" fill="url(#paint9_linear_708_4659)"/>
<path d="M400.39 355.715C400.39 355.715 419.615 344.819 434.01 350.583C451.693 357.662 463.524 374.707 470.967 386.256C478.41 397.805 479.693 402.938 479.693 402.938C479.693 402.938 456.338 404.478 444.533 400.372C427.314 394.383 413.455 378.55 408.066 373.417C403.446 367.771 400.39 355.715 400.39 355.715Z" fill="white" stroke="url(#paint10_linear_708_4659)" stroke-width="2.56645" stroke-miterlimit="10"/>
<path d="M494.042 430.656H535.384C535.384 430.656 525.632 437.329 522.552 441.435C519.729 445.798 514.83 452.977 514.573 455.544C514.317 458.11 513.29 447.844 505.591 441.435C503.024 436.295 494.042 430.656 494.042 430.656Z" fill="url(#paint11_linear_708_4659)"/>
<path d="M649.592 696.539L635.733 780.975L593.9 1037.11C593.9 1037.11 590.563 1053.53 590.563 1056.1C590.563 1058.67 615.458 1050.97 624.697 1052.76C633.936 1054.82 643.945 1060.72 643.945 1072.52C643.945 1084.33 637.273 1106.66 637.273 1106.66C637.273 1106.66 632.653 1106.4 625.467 1105.89C603.652 1104.6 557.433 1106.91 551.787 1105.89C544.601 1104.6 539.491 1086.38 536.155 1068.67C532.818 1050.97 545.394 835.384 545.394 835.384" fill="url(#paint12_linear_708_4659)"/>
<path d="M649.592 696.539L635.733 780.975L593.9 1037.11C593.9 1037.11 590.563 1053.53 590.563 1056.1C590.563 1058.67 615.458 1050.97 624.697 1052.76C633.936 1054.82 643.945 1060.72 643.945 1072.52C643.945 1084.33 637.273 1106.66 637.273 1106.66C637.273 1106.66 632.653 1106.4 625.467 1105.89C603.652 1104.6 557.433 1106.91 551.787 1105.89C544.601 1104.6 539.491 1086.38 536.155 1068.67C532.818 1050.97 545.394 835.384 545.394 835.384" stroke="url(#paint13_linear_708_4659)" stroke-width="2.56645" stroke-miterlimit="10"/>
<path d="M638.533 783.332C638.533 783.332 643.666 781.022 661.888 764.597C680.11 748.172 709.111 752.278 731.952 773.836C754.794 795.651 747.607 820.546 747.607 830.298C747.607 840.307 649.312 1106.14 649.312 1106.14H636.48" stroke="url(#paint14_linear_708_4659)" stroke-width="2.56645" stroke-miterlimit="10"/>
<path d="M433.24 524.332C433.24 524.332 374.725 582.59 371.645 589.263C368.565 595.936 369.592 690.125 371.645 702.7C373.698 715.276 365.742 768.915 342.901 804.845C320.059 840.775 271.553 935.991 267.447 953.699C263.597 971.408 268.73 976.541 258.978 997.586C249.225 1018.63 253.565 1024.02 254.079 1027.87C254.849 1031.72 257.695 1038.14 272.837 1050.71C287.979 1063.29 281.306 1070.47 298.501 1070.47C315.44 1070.47 324.679 1054.82 324.679 1054.82L352.91 958.575C352.91 958.575 335.201 945.487 343.157 924.442C351.113 903.397 404.752 848.475 412.708 842.572C420.664 836.669 457.364 741.71 457.364 741.71" fill="url(#paint15_linear_708_4659)"/>
<path d="M433.24 524.332C433.24 524.332 374.725 582.59 371.645 589.263C368.565 595.936 369.592 690.125 371.645 702.7C373.698 715.276 365.742 768.915 342.901 804.845C320.059 840.775 271.553 935.991 267.447 953.699C263.597 971.408 268.73 976.541 258.978 997.586C249.225 1018.63 253.565 1024.02 254.079 1027.87C254.849 1031.72 257.695 1038.14 272.837 1050.71C287.979 1063.29 281.306 1070.47 298.501 1070.47C315.44 1070.47 324.679 1054.82 324.679 1054.82L352.91 958.575C352.91 958.575 335.201 945.487 343.157 924.442C351.113 903.397 404.752 848.475 412.708 842.572C420.664 836.669 457.364 741.71 457.364 741.71" stroke="url(#paint16_linear_708_4659)" stroke-width="3" stroke-miterlimit="10"/>
<path d="M404.274 245.342C419.673 276.139 401.28 311.214 390.159 324.902C387.165 324.902 380.15 323.619 376.043 318.485C370.91 312.068 361.928 292.82 356.795 282.555C351.662 272.289 336.263 191.447 329.847 169.632C323.431 147.817 325.998 140.118 329.847 145.25C333.697 150.383 385.026 206.845 404.274 245.342Z" fill="url(#paint17_linear_708_4659)"/>
<path d="M626.973 245.342C611.574 276.139 629.967 311.214 641.088 324.902C644.082 324.902 651.097 323.619 655.204 318.485C660.337 312.068 669.319 292.82 674.452 282.555C679.585 272.289 694.984 191.447 701.4 169.632C707.816 147.817 705.249 140.118 701.4 145.25C697.55 150.383 646.221 206.845 626.973 245.342Z" fill="url(#paint18_linear_708_4659)"/>
<g clip-path="url(#clip1_708_4659)">
<path d="M363.801 354.111C363.801 356.629 364.034 358.471 364.501 359.653C364.967 360.836 365.692 361.423 366.673 361.423C367.615 361.423 368.307 360.868 368.75 359.758C369.208 358.648 369.434 356.934 369.434 354.61C369.434 352.832 369.321 351.393 369.087 350.299C368.854 349.189 368.532 348.4 368.122 347.918C367.703 347.451 367.204 347.202 366.617 347.202C366.086 347.202 365.643 347.363 365.281 347.685C364.919 347.998 364.629 348.457 364.412 349.044C364.187 349.639 364.034 350.363 363.937 351.216C363.841 352.076 363.801 353.041 363.801 354.111ZM366.488 362.404C364.814 362.404 363.583 361.752 362.771 360.433C361.95 359.122 361.539 357.128 361.539 354.457C361.539 353.041 361.668 351.811 361.918 350.781C362.167 349.736 362.521 348.883 362.98 348.207C363.422 347.524 363.97 347.025 364.597 346.703C365.241 346.382 365.925 346.221 366.673 346.221C368.363 346.221 369.627 346.872 370.455 348.175C371.276 349.478 371.695 351.457 371.695 354.103C371.695 356.83 371.252 358.897 370.367 360.305C369.482 361.704 368.194 362.404 366.488 362.404Z" fill="#B5B1B4"/>
<path d="M368.388 399.351C368.388 399.866 368.42 400.268 368.476 400.526C368.532 400.791 368.637 401.008 368.79 401.177C368.927 401.346 369.144 401.467 369.418 401.563C369.699 401.66 370.053 401.724 370.472 401.78C370.89 401.821 371.445 401.861 372.137 401.877V402.858H362.215V401.877C363.205 401.837 363.913 401.772 364.348 401.692C364.766 401.619 365.088 401.507 365.314 401.354C365.539 401.201 365.7 400.984 365.804 400.711C365.901 400.429 365.957 399.987 365.957 399.351V388.469C365.957 388.115 365.893 387.857 365.772 387.688C365.643 387.527 365.466 387.439 365.217 387.439C364.935 387.439 364.525 387.584 364.002 387.881C363.479 388.179 362.819 388.581 362.038 389.104L361.451 388.066L367.728 384.326H368.476C368.412 385.187 368.388 386.377 368.388 387.897V399.351Z" fill="#B5B1B4"/>
<path d="M363.487 432.959C363.487 435.767 363.736 437.826 364.267 439.137C364.782 440.44 365.587 441.099 366.681 441.099C367.728 441.099 368.5 440.488 368.999 439.249C369.506 438.019 369.755 436.104 369.755 433.514C369.755 431.544 369.627 429.935 369.369 428.712C369.112 427.482 368.75 426.605 368.291 426.074C367.832 425.535 367.269 425.27 366.617 425.27C366.03 425.27 365.531 425.447 365.12 425.801C364.726 426.155 364.404 426.661 364.163 427.329C363.913 427.981 363.736 428.785 363.632 429.742C363.527 430.691 363.487 431.769 363.487 432.959ZM366.472 442.193C364.613 442.193 363.229 441.469 362.328 440.005C361.419 438.541 360.968 436.322 360.968 433.345C360.968 431.769 361.105 430.402 361.378 429.243C361.66 428.085 362.054 427.144 362.553 426.388C363.068 425.632 363.672 425.077 364.372 424.715C365.08 424.353 365.853 424.168 366.681 424.168C368.564 424.168 369.973 424.9 370.89 426.356C371.807 427.804 372.266 430.007 372.266 432.951C372.266 435.992 371.775 438.292 370.794 439.853C369.804 441.413 368.363 442.193 366.472 442.193Z" fill="#B5B1B4"/>
<path d="M362.457 472.322C362.457 476.03 362.811 478.765 363.495 480.502C364.187 482.248 365.257 483.117 366.706 483.117C368.09 483.117 369.104 482.288 369.78 480.663C370.448 479.022 370.777 476.489 370.777 473.054C370.777 470.432 370.6 468.317 370.262 466.684C369.916 465.067 369.442 463.901 368.83 463.185C368.227 462.485 367.478 462.131 366.617 462.131C365.837 462.131 365.177 462.365 364.646 462.831C364.106 463.306 363.688 463.965 363.366 464.85C363.036 465.727 362.803 466.797 362.674 468.059C362.529 469.314 362.457 470.73 362.457 472.322ZM366.432 484.556C363.97 484.556 362.135 483.599 360.936 481.661C359.729 479.722 359.133 476.778 359.133 472.837C359.133 470.73 359.31 468.928 359.681 467.392C360.051 465.872 360.574 464.609 361.242 463.611C361.91 462.614 362.706 461.874 363.64 461.391C364.581 460.917 365.595 460.684 366.706 460.684C369.2 460.684 371.059 461.641 372.274 463.563C373.497 465.494 374.109 468.405 374.109 472.298C374.109 476.344 373.457 479.392 372.153 481.46C370.85 483.527 368.935 484.556 366.432 484.556Z" fill="#B5B1B4"/>
<path d="M363.478 511.831C363.478 514.638 363.736 516.697 364.259 518.016C364.782 519.327 365.587 519.987 366.681 519.987C367.727 519.987 368.5 519.359 368.999 518.129C369.506 516.89 369.763 514.984 369.763 512.386C369.763 510.407 369.626 508.806 369.369 507.576C369.111 506.345 368.749 505.468 368.291 504.929C367.832 504.399 367.269 504.133 366.617 504.133C366.029 504.133 365.53 504.31 365.12 504.656C364.718 505.01 364.404 505.525 364.162 506.184C363.913 506.852 363.736 507.656 363.631 508.613C363.527 509.554 363.478 510.632 363.478 511.831ZM366.472 521.081C364.613 521.081 363.229 520.349 362.32 518.885C361.41 517.421 360.96 515.201 360.96 512.225C360.96 510.632 361.105 509.273 361.378 508.115C361.66 506.956 362.046 505.999 362.553 505.243C363.052 504.495 363.664 503.94 364.372 503.57C365.072 503.216 365.852 503.031 366.681 503.031C368.564 503.031 369.972 503.763 370.89 505.219C371.823 506.675 372.274 508.871 372.274 511.823C372.274 514.871 371.783 517.172 370.793 518.732C369.812 520.3 368.363 521.081 366.472 521.081Z" fill="#B5B1B4"/>
<path d="M361.62 551.14C361.62 555.604 362.038 558.886 362.867 560.969C363.696 563.061 364.984 564.106 366.722 564.106C368.38 564.106 369.611 563.125 370.407 561.154C371.212 559.192 371.606 556.143 371.606 552.025C371.606 548.864 371.405 546.314 370.995 544.368C370.584 542.413 370.013 541.006 369.281 540.161C368.541 539.308 367.655 538.89 366.617 538.89C365.676 538.89 364.879 539.172 364.235 539.727C363.608 540.29 363.093 541.094 362.706 542.156C362.312 543.209 362.03 544.496 361.869 546.009C361.709 547.521 361.62 549.226 361.62 551.14ZM366.392 565.852C363.431 565.852 361.234 564.693 359.785 562.361C358.329 560.028 357.613 556.489 357.613 551.752C357.613 549.226 357.83 547.054 358.28 545.212C358.723 543.386 359.351 541.858 360.155 540.668C360.952 539.469 361.918 538.585 363.036 538.005C364.171 537.426 365.394 537.137 366.722 537.137C369.723 537.137 371.952 538.303 373.425 540.611C374.89 542.928 375.622 546.435 375.622 551.108C375.622 555.966 374.833 559.634 373.264 562.127C371.695 564.613 369.41 565.852 366.392 565.852Z" fill="#B5B1B4"/>
<path d="M368.741 597.831C368.741 598.474 368.79 598.949 368.854 599.279C368.926 599.601 369.047 599.866 369.232 600.067C369.409 600.268 369.675 600.421 370.013 600.542C370.359 600.654 370.777 600.743 371.292 600.799C371.807 600.863 372.483 600.904 373.336 600.928V602.126H361.185V600.928C362.4 600.871 363.269 600.791 363.792 600.702C364.307 600.606 364.71 600.469 364.983 600.284C365.257 600.099 365.458 599.834 365.579 599.496C365.708 599.15 365.772 598.603 365.772 597.831V584.511C365.772 584.077 365.692 583.747 365.547 583.546C365.386 583.345 365.168 583.24 364.871 583.24C364.517 583.24 364.018 583.425 363.374 583.787C362.722 584.141 361.926 584.64 360.968 585.283L360.252 584.012L367.945 579.428H368.846C368.782 580.481 368.741 581.937 368.741 583.803V597.831Z" fill="#B5B1B4"/>
<path d="M315.421 787.832C315.421 791.29 315.751 793.816 316.387 795.433C317.031 797.041 318.021 797.846 319.364 797.846C320.644 797.846 321.594 797.098 322.213 795.577C322.833 794.057 323.147 791.708 323.147 788.515C323.147 786.078 322.986 784.107 322.672 782.603C322.35 781.099 321.907 780.021 321.336 779.362C320.781 778.702 320.089 778.381 319.292 778.381C318.552 778.381 317.94 778.59 317.449 779.024C316.958 779.466 316.564 780.086 316.258 780.906C315.961 781.719 315.751 782.708 315.615 783.874C315.494 785.049 315.421 786.36 315.421 787.832ZM319.115 799.205C316.83 799.205 315.124 798.304 314.005 796.51C312.895 794.701 312.331 791.982 312.331 788.314C312.331 786.36 312.508 784.679 312.846 783.271C313.192 781.847 313.675 780.673 314.295 779.748C314.914 778.815 315.655 778.131 316.516 777.697C317.385 777.246 318.342 777.029 319.364 777.029C321.682 777.029 323.404 777.922 324.539 779.708C325.665 781.501 326.237 784.196 326.237 787.824C326.237 791.564 325.633 794.395 324.426 796.325C323.203 798.248 321.433 799.205 319.115 799.205Z" fill="#B5B1B4"/>
<path d="M321.457 834.589C321.457 835.241 321.489 835.731 321.561 836.053C321.634 836.391 321.763 836.656 321.948 836.857C322.125 837.075 322.398 837.227 322.744 837.348C323.09 837.469 323.525 837.557 324.048 837.613C324.571 837.678 325.263 837.718 326.124 837.742V838.965H313.74V837.742C314.987 837.686 315.872 837.613 316.395 837.517C316.934 837.42 317.337 837.284 317.618 837.091C317.892 836.898 318.093 836.632 318.23 836.286C318.351 835.94 318.423 835.369 318.423 834.589V821.012C318.423 820.562 318.343 820.24 318.182 820.031C318.029 819.83 317.795 819.725 317.498 819.725C317.144 819.725 316.637 819.902 315.977 820.272C315.317 820.642 314.504 821.149 313.53 821.8L312.798 820.513L320.628 815.832H321.553C321.489 816.91 321.457 818.39 321.457 820.288V834.589Z" fill="#B5B1B4"/>
<path d="M274.365 362.252C274.365 362.976 274.405 363.531 274.486 363.893C274.574 364.263 274.719 364.561 274.928 364.802C275.13 365.027 275.427 365.212 275.822 365.341C276.208 365.477 276.699 365.582 277.286 365.646C277.882 365.719 278.662 365.759 279.62 365.791V367.167H265.706V365.791C267.099 365.727 268.088 365.638 268.684 365.534C269.279 365.429 269.738 365.26 270.052 365.051C270.366 364.842 270.599 364.536 270.744 364.15C270.889 363.764 270.953 363.129 270.953 362.252V346.978C270.953 346.479 270.865 346.109 270.696 345.876C270.519 345.643 270.261 345.53 269.923 345.53C269.521 345.53 268.949 345.731 268.209 346.141C267.469 346.567 266.559 347.131 265.457 347.862L264.628 346.407L273.448 341.154H274.478C274.405 342.361 274.365 344.034 274.365 346.173V362.252Z" fill="#B5B1B4"/>
<path d="M269.264 393.552C269.264 395.957 269.489 397.727 269.931 398.845C270.374 399.963 271.066 400.534 272.008 400.534C272.901 400.534 273.569 400.003 273.995 398.941C274.43 397.888 274.647 396.255 274.647 394.027C274.647 392.338 274.534 390.962 274.309 389.909C274.084 388.855 273.778 388.099 273.384 387.648C272.989 387.19 272.515 386.965 271.951 386.965C271.444 386.965 271.018 387.11 270.672 387.407C270.334 387.721 270.052 388.155 269.843 388.718C269.634 389.289 269.481 389.981 269.392 390.793C269.312 391.606 269.264 392.531 269.264 393.552ZM271.831 401.475C270.237 401.475 269.054 400.848 268.274 399.593C267.493 398.338 267.107 396.432 267.107 393.882C267.107 392.531 267.22 391.356 267.469 390.375C267.702 389.378 268.04 388.557 268.475 387.922C268.901 387.27 269.424 386.796 270.028 386.482C270.632 386.176 271.291 386.016 272.008 386.016C273.617 386.016 274.832 386.643 275.621 387.89C276.409 389.136 276.804 391.019 276.804 393.544C276.804 396.158 276.377 398.129 275.532 399.464C274.687 400.807 273.456 401.475 271.831 401.475Z" fill="#B5B1B4"/>
<path d="M273.351 437.437C273.351 437.831 273.367 438.137 273.416 438.338C273.464 438.539 273.544 438.7 273.649 438.829C273.762 438.949 273.931 439.046 274.14 439.126C274.349 439.199 274.623 439.247 274.936 439.295C275.258 439.327 275.685 439.351 276.216 439.359V440.116H268.627V439.359C269.384 439.327 269.931 439.287 270.253 439.223C270.575 439.166 270.824 439.086 271.001 438.957C271.162 438.845 271.299 438.676 271.38 438.467C271.452 438.258 271.492 437.92 271.492 437.437V429.12C271.492 428.839 271.444 428.638 271.347 428.517C271.251 428.388 271.114 428.324 270.929 428.324C270.712 428.324 270.398 428.437 269.995 428.662C269.585 428.895 269.086 429.201 268.491 429.603L268.048 428.807L272.852 425.951H273.407C273.367 426.603 273.351 427.52 273.351 428.67V437.437Z" fill="#B5B1B4"/>
<path d="M266.922 472.26C266.922 476.764 267.34 480.054 268.177 482.161C269.014 484.261 270.31 485.314 272.064 485.314C273.722 485.314 274.969 484.333 275.774 482.354C276.586 480.376 276.989 477.303 276.989 473.153C276.989 469.984 276.771 467.402 276.361 465.439C275.951 463.477 275.371 462.069 274.639 461.208C273.891 460.348 273.005 459.929 271.951 459.929C271.002 459.929 270.205 460.211 269.561 460.774C268.925 461.345 268.402 462.157 268.008 463.219C267.614 464.281 267.34 465.576 267.171 467.096C267.002 468.624 266.922 470.338 266.922 472.26ZM271.726 487.076C268.748 487.076 266.527 485.902 265.063 483.561C263.614 481.212 262.882 477.657 262.882 472.879C262.882 470.338 263.115 468.15 263.558 466.3C264.009 464.45 264.636 462.93 265.441 461.715C266.246 460.509 267.219 459.616 268.354 459.037C269.481 458.458 270.72 458.168 272.064 458.168C275.073 458.168 277.327 459.334 278.807 461.667C280.28 463.999 281.02 467.522 281.02 472.244C281.02 477.126 280.232 480.818 278.654 483.328C277.077 485.821 274.76 487.076 271.726 487.076Z" fill="#B5B1B4"/>
<path d="M273.898 518.299C273.898 518.87 273.931 519.313 273.995 519.602C274.059 519.9 274.172 520.133 274.341 520.318C274.502 520.503 274.743 520.648 275.049 520.752C275.355 520.857 275.741 520.929 276.208 520.986C276.675 521.05 277.294 521.082 278.051 521.098V522.184H267.05V521.098C268.153 521.05 268.941 520.986 269.408 520.897C269.875 520.809 270.237 520.688 270.494 520.519C270.736 520.35 270.921 520.109 271.034 519.803C271.146 519.498 271.203 518.999 271.203 518.299V506.218C271.203 505.824 271.13 505.534 270.993 505.357C270.857 505.172 270.647 505.076 270.39 505.076C270.068 505.076 269.617 505.237 269.03 505.566C268.442 505.896 267.718 506.347 266.857 506.926L266.197 505.776L273.174 501.617H273.987C273.931 502.574 273.898 503.902 273.898 505.583V518.299Z" fill="#B5B1B4"/>
<path d="M269.939 551.348C269.939 553.15 270.108 554.477 270.438 555.321C270.768 556.166 271.291 556.584 272 556.584C272.667 556.584 273.166 556.19 273.488 555.394C273.81 554.605 273.971 553.367 273.971 551.702C273.971 550.431 273.891 549.401 273.722 548.613C273.561 547.825 273.319 547.262 273.03 546.916C272.732 546.57 272.378 546.401 271.951 546.401C271.573 546.401 271.251 546.522 270.994 546.747C270.736 546.964 270.527 547.294 270.366 547.72C270.213 548.147 270.108 548.661 270.036 549.281C269.964 549.892 269.939 550.584 269.939 551.348ZM271.863 557.292C270.664 557.292 269.779 556.825 269.191 555.876C268.604 554.935 268.322 553.512 268.322 551.597C268.322 550.584 268.402 549.699 268.588 548.951C268.765 548.219 269.022 547.608 269.344 547.125C269.666 546.634 270.052 546.281 270.511 546.047C270.961 545.814 271.452 545.693 272 545.693C273.207 545.693 274.108 546.16 274.695 547.093C275.291 548.034 275.589 549.45 275.589 551.34C275.589 553.302 275.275 554.782 274.639 555.788C274.003 556.785 273.078 557.292 271.863 557.292Z" fill="#B5B1B4"/>
<path d="M274.526 599.425C274.526 600.205 274.566 600.792 274.655 601.186C274.743 601.58 274.896 601.91 275.122 602.151C275.339 602.409 275.661 602.602 276.071 602.739C276.498 602.875 277.013 602.988 277.64 603.06C278.276 603.133 279.105 603.189 280.143 603.213V604.685H265.256V603.213C266.753 603.141 267.807 603.052 268.451 602.94C269.086 602.827 269.569 602.658 269.915 602.425C270.245 602.192 270.495 601.878 270.648 601.46C270.8 601.049 270.881 600.366 270.881 599.425V583.097C270.881 582.558 270.784 582.164 270.599 581.922C270.406 581.665 270.133 581.544 269.77 581.544C269.344 581.544 268.732 581.77 267.944 582.212C267.147 582.654 266.165 583.258 264.998 584.038L264.113 582.485L273.536 576.871H274.647C274.566 578.158 274.526 579.952 274.526 582.228V599.425Z" fill="#B5B1B4"/>
<path d="M269.143 630.168C269.143 632.677 269.376 634.527 269.843 635.702C270.309 636.884 271.034 637.471 272.007 637.471C272.949 637.471 273.641 636.916 274.083 635.806C274.542 634.704 274.768 632.991 274.768 630.666C274.768 628.897 274.655 627.449 274.421 626.355C274.188 625.261 273.866 624.465 273.456 623.99C273.045 623.508 272.538 623.266 271.951 623.266C271.42 623.266 270.977 623.427 270.615 623.741C270.253 624.063 269.963 624.513 269.746 625.108C269.529 625.704 269.368 626.427 269.279 627.28C269.183 628.133 269.143 629.098 269.143 630.168ZM271.822 638.452C270.157 638.452 268.925 637.801 268.105 636.482C267.292 635.179 266.881 633.184 266.881 630.514C266.881 629.098 267.01 627.867 267.26 626.838C267.509 625.8 267.863 624.948 268.306 624.272C268.764 623.596 269.312 623.098 269.939 622.768C270.567 622.446 271.259 622.285 272.007 622.285C273.697 622.285 274.961 622.937 275.781 624.24C276.61 625.551 277.021 627.521 277.021 630.16C277.021 632.894 276.586 634.953 275.701 636.353C274.816 637.753 273.52 638.452 271.822 638.452Z" fill="#B5B1B4"/>
<path d="M273.681 675.268C273.681 675.774 273.705 676.152 273.77 676.41C273.818 676.667 273.931 676.876 274.067 677.037C274.204 677.198 274.422 677.327 274.687 677.415C274.961 677.512 275.291 677.568 275.709 677.624C276.119 677.665 276.659 677.705 277.327 677.721V678.678H267.67V677.721C268.644 677.681 269.328 677.624 269.738 677.544C270.157 677.471 270.47 677.359 270.696 677.214C270.905 677.061 271.066 676.852 271.162 676.587C271.259 676.321 271.315 675.871 271.315 675.268V664.666C271.315 664.321 271.251 664.071 271.13 663.902C271.01 663.741 270.833 663.669 270.599 663.669C270.318 663.669 269.923 663.806 269.408 664.095C268.893 664.385 268.257 664.779 267.501 665.286L266.922 664.28L273.045 660.637H273.762C273.705 661.465 273.681 662.623 273.681 664.103V675.268Z" fill="#B5B1B4"/>
<mask id="mask0_708_4659" style="mask-type:luminance" maskUnits="userSpaceOnUse" x="216" y="420" width="17" height="28">
<path d="M216.611 420.348H232.81V447.116H216.611V420.348Z" fill="white"/>
</mask>
<g mask="url(#mask0_708_4659)">
<path d="M220.176 432.863C220.176 436.845 220.546 439.756 221.279 441.614C222.019 443.472 223.17 444.405 224.707 444.405C226.187 444.405 227.274 443.529 227.998 441.783C228.706 440.03 229.068 437.327 229.068 433.652C229.068 430.844 228.883 428.576 228.513 426.847C228.151 425.109 227.644 423.855 226.984 423.099C226.34 422.351 225.552 421.973 224.618 421.973C223.781 421.973 223.081 422.214 222.51 422.721C221.939 423.219 221.48 423.943 221.134 424.884C220.788 425.817 220.546 426.959 220.393 428.311C220.249 429.654 220.176 431.174 220.176 432.863ZM224.417 445.958C221.786 445.958 219.83 444.92 218.543 442.853C217.247 440.778 216.611 437.633 216.611 433.418C216.611 431.174 216.813 429.236 217.207 427.595C217.601 425.97 218.156 424.619 218.873 423.549C219.581 422.487 220.442 421.699 221.44 421.184C222.437 420.678 223.524 420.412 224.707 420.412C227.378 420.412 229.374 421.45 230.678 423.509C231.973 425.568 232.633 428.673 232.633 432.847C232.633 437.166 231.933 440.424 230.533 442.644C229.133 444.848 227.105 445.958 224.417 445.958Z" fill="#B5B1B4"/>
</g>
<path d="M226.187 477.519C226.187 477.969 226.219 478.323 226.268 478.548C226.324 478.774 226.412 478.967 226.541 479.111C226.67 479.256 226.855 479.377 227.105 479.449C227.338 479.538 227.644 479.602 228.014 479.642C228.384 479.682 228.875 479.715 229.478 479.731V480.591H220.779V479.731C221.649 479.691 222.268 479.634 222.646 479.578C223.017 479.506 223.306 479.401 223.499 479.264C223.693 479.136 223.837 478.951 223.926 478.709C224.014 478.46 224.063 478.066 224.063 477.519V467.979C224.063 467.666 224.006 467.44 223.902 467.296C223.789 467.151 223.628 467.078 223.419 467.078C223.169 467.078 222.807 467.199 222.341 467.465C221.89 467.722 221.311 468.076 220.635 468.534L220.12 467.633L225.624 464.344H226.26C226.219 465.1 226.187 466.145 226.187 467.473V477.519Z" fill="#B5B1B4"/>
<path d="M222.003 511.873C222.003 514.214 222.22 515.927 222.647 517.037C223.089 518.131 223.765 518.67 224.675 518.67C225.544 518.67 226.187 518.155 226.614 517.133C227.032 516.096 227.242 514.503 227.242 512.331C227.242 510.682 227.137 509.339 226.92 508.318C226.694 507.288 226.397 506.564 226.018 506.114C225.632 505.671 225.165 505.438 224.618 505.438C224.119 505.438 223.709 505.591 223.379 505.889C223.041 506.178 222.775 506.604 222.558 507.159C222.357 507.714 222.212 508.382 222.132 509.186C222.043 509.975 222.003 510.876 222.003 511.873ZM224.497 519.595C222.944 519.595 221.794 518.983 221.037 517.753C220.273 516.538 219.895 514.688 219.895 512.195C219.895 510.876 220.015 509.725 220.249 508.76C220.482 507.795 220.812 506.999 221.23 506.379C221.649 505.752 222.148 505.285 222.743 504.98C223.331 504.682 223.974 504.529 224.675 504.529C226.252 504.529 227.419 505.133 228.191 506.355C228.956 507.562 229.342 509.404 229.342 511.857C229.342 514.407 228.931 516.321 228.111 517.632C227.282 518.935 226.083 519.595 224.497 519.595Z" fill="#B5B1B4"/>
<path d="M221.664 551.286C221.664 553.916 221.914 555.855 222.405 557.085C222.896 558.324 223.66 558.935 224.682 558.935C225.656 558.935 226.38 558.356 226.855 557.19C227.33 556.04 227.563 554.238 227.563 551.801C227.563 549.943 227.442 548.439 227.209 547.28C226.959 546.138 226.621 545.31 226.187 544.803C225.76 544.304 225.237 544.055 224.618 544.055C224.062 544.055 223.596 544.224 223.218 544.546C222.839 544.883 222.534 545.366 222.308 545.985C222.083 546.605 221.914 547.361 221.817 548.254C221.721 549.146 221.664 550.16 221.664 551.286ZM224.489 559.973C222.735 559.973 221.439 559.289 220.578 557.914C219.733 556.538 219.299 554.447 219.299 551.648C219.299 550.16 219.443 548.881 219.693 547.787C219.958 546.701 220.329 545.808 220.803 545.101C221.27 544.393 221.841 543.878 222.509 543.532C223.177 543.194 223.893 543.025 224.682 543.025C226.452 543.025 227.764 543.709 228.633 545.076C229.502 546.444 229.929 548.511 229.929 551.27C229.929 554.133 229.47 556.297 228.545 557.769C227.619 559.233 226.267 559.973 224.489 559.973Z" fill="#B5B1B4"/>
<mask id="mask1_708_4659" style="mask-type:luminance" maskUnits="userSpaceOnUse" x="216" y="576" width="17" height="28">
<path d="M216.611 576.84H232.81V603.608H216.611V576.84Z" fill="white"/>
</mask>
<g mask="url(#mask1_708_4659)">
<path d="M220.289 590.621C220.289 594.498 220.651 597.338 221.367 599.139C222.091 600.957 223.202 601.858 224.707 601.858C226.147 601.858 227.217 601.005 227.909 599.308C228.602 597.603 228.948 594.965 228.948 591.385C228.948 588.659 228.77 586.447 228.416 584.758C228.054 583.061 227.563 581.854 226.928 581.114C226.284 580.382 225.528 580.012 224.618 580.012C223.797 580.012 223.113 580.261 222.558 580.744C222.011 581.235 221.56 581.935 221.23 582.843C220.884 583.752 220.651 584.87 220.506 586.181C220.361 587.501 220.289 588.981 220.289 590.621ZM224.417 603.37C221.858 603.37 219.951 602.365 218.696 600.354C217.44 598.327 216.821 595.27 216.821 591.16C216.821 588.981 217.014 587.082 217.4 585.498C217.786 583.905 218.317 582.586 219.017 581.556C219.709 580.511 220.546 579.739 221.52 579.24C222.494 578.749 223.564 578.5 224.707 578.5C227.314 578.5 229.245 579.505 230.517 581.508C231.78 583.511 232.424 586.551 232.424 590.605C232.424 594.812 231.74 597.989 230.38 600.137C229.02 602.292 227.04 603.37 224.417 603.37Z" fill="#B5B1B4"/>
</g>
<path d="M221.544 630.149C221.544 632.892 221.802 634.911 222.317 636.19C222.824 637.477 223.612 638.12 224.683 638.12C225.696 638.12 226.461 637.517 226.952 636.303C227.443 635.096 227.692 633.23 227.692 630.688C227.692 628.75 227.563 627.181 227.314 625.983C227.056 624.784 226.71 623.916 226.26 623.401C225.801 622.87 225.262 622.613 224.618 622.613C224.039 622.613 223.556 622.79 223.154 623.136C222.759 623.481 222.454 623.98 222.212 624.624C221.971 625.275 221.802 626.063 221.705 626.988C221.601 627.921 221.544 628.975 221.544 630.149ZM224.481 639.198C222.655 639.198 221.311 638.482 220.418 637.051C219.532 635.611 219.082 633.439 219.082 630.519C219.082 628.975 219.219 627.632 219.492 626.514C219.766 625.38 220.152 624.439 220.643 623.707C221.142 622.967 221.729 622.428 222.421 622.066C223.113 621.72 223.87 621.543 224.683 621.543C226.533 621.543 227.901 622.251 228.803 623.683C229.704 625.098 230.163 627.254 230.163 630.141C230.163 633.117 229.68 635.378 228.714 636.906C227.74 638.434 226.332 639.198 224.481 639.198Z" fill="#B5B1B4"/>
<path d="M226.566 676.038C226.566 676.618 226.59 677.044 226.662 677.341C226.727 677.631 226.839 677.864 227.008 678.049C227.161 678.234 227.402 678.379 227.708 678.484C228.014 678.588 228.4 678.669 228.859 678.717C229.334 678.773 229.953 678.813 230.71 678.83V679.915H219.726V678.83C220.828 678.781 221.609 678.717 222.083 678.628C222.55 678.548 222.912 678.419 223.154 678.25C223.403 678.09 223.588 677.84 223.701 677.535C223.813 677.229 223.87 676.73 223.87 676.038V663.981C223.87 663.587 223.805 663.298 223.669 663.113C223.524 662.928 223.323 662.839 223.049 662.839C222.735 662.839 222.293 663 221.705 663.33C221.118 663.652 220.393 664.102 219.532 664.681L218.873 663.531L225.833 659.389H226.654C226.59 660.346 226.566 661.657 226.566 663.338V676.038Z" fill="#B5B1B4"/>
<path d="M222.188 709.069C222.188 711.241 222.389 712.841 222.791 713.863C223.194 714.876 223.821 715.383 224.674 715.383C225.479 715.383 226.074 714.909 226.469 713.951C226.863 712.994 227.056 711.506 227.056 709.495C227.056 707.967 226.952 706.712 226.75 705.763C226.557 704.806 226.276 704.122 225.921 703.712C225.559 703.302 225.133 703.093 224.618 703.093C224.159 703.093 223.773 703.23 223.467 703.503C223.145 703.777 222.904 704.171 222.711 704.685C222.518 705.2 222.389 705.828 222.308 706.56C222.22 707.3 222.188 708.136 222.188 709.069ZM224.505 716.244C223.073 716.244 221.994 715.673 221.294 714.539C220.578 713.404 220.232 711.675 220.232 709.367C220.232 708.136 220.337 707.066 220.554 706.173C220.771 705.281 221.069 704.549 221.463 703.962C221.858 703.374 222.324 702.94 222.88 702.658C223.419 702.385 224.022 702.24 224.674 702.24C226.139 702.24 227.225 702.803 227.933 703.929C228.649 705.063 229.012 706.769 229.012 709.053C229.012 711.426 228.625 713.203 227.861 714.418C227.104 715.632 225.978 716.244 224.505 716.244Z" fill="#B5B1B4"/>
<mask id="mask2_708_4659" style="mask-type:luminance" maskUnits="userSpaceOnUse" x="216" y="733" width="19" height="32">
<path d="M216.611 733.328H234.87V764.215H216.611V733.328Z" fill="white"/>
</mask>
<g mask="url(#mask2_708_4659)">
<path d="M227.233 757.314C227.233 758.111 227.274 758.706 227.362 759.108C227.451 759.51 227.611 759.84 227.837 760.089C228.054 760.347 228.384 760.54 228.811 760.684C229.229 760.829 229.768 760.942 230.404 761.014C231.048 761.079 231.893 761.135 232.939 761.159V762.655H217.81V761.159C219.331 761.103 220.409 761.006 221.053 760.886C221.705 760.773 222.204 760.596 222.542 760.363C222.888 760.137 223.129 759.8 223.29 759.381C223.443 758.963 223.524 758.271 223.524 757.314V740.721C223.524 740.166 223.427 739.772 223.234 739.514C223.041 739.265 222.759 739.144 222.397 739.144C221.954 739.144 221.343 739.361 220.538 739.812C219.733 740.262 218.736 740.882 217.545 741.67L216.643 740.093L226.227 734.391H227.354C227.265 735.694 227.233 737.511 227.233 739.836V757.314Z" fill="#B5B1B4"/>
</g>
<mask id="mask3_708_4659" style="mask-type:luminance" maskUnits="userSpaceOnUse" x="216" y="774" width="17" height="28">
<path d="M216.611 774.512H232.81V801.28H216.611V774.512Z" fill="white"/>
</mask>
<g mask="url(#mask3_708_4659)">
<path d="M220.297 787.808C220.297 791.661 220.659 794.492 221.375 796.31C222.1 798.112 223.202 799.005 224.707 799.005C226.147 799.005 227.21 798.168 227.902 796.463C228.594 794.766 228.932 792.127 228.932 788.572C228.932 785.846 228.755 783.634 228.409 781.953C228.047 780.263 227.556 779.057 226.92 778.317C226.284 777.585 225.528 777.223 224.618 777.223C223.806 777.223 223.122 777.456 222.574 777.947C222.019 778.43 221.569 779.137 221.239 780.046C220.901 780.955 220.659 782.057 220.522 783.376C220.37 784.679 220.297 786.159 220.297 787.808ZM224.425 800.525C221.866 800.525 219.959 799.511 218.712 797.5C217.465 795.49 216.837 792.433 216.837 788.331C216.837 786.159 217.03 784.277 217.416 782.693C217.803 781.108 218.334 779.789 219.034 778.759C219.726 777.722 220.555 776.95 221.528 776.451C222.502 775.96 223.564 775.711 224.707 775.711C227.306 775.711 229.229 776.708 230.501 778.711C231.764 780.714 232.4 783.73 232.4 787.784C232.4 791.983 231.724 795.152 230.372 797.299C229.012 799.447 227.033 800.525 224.425 800.525Z" fill="#B5B1B4"/>
</g>
<path d="M320.515 357.976C320.515 358.321 320.531 358.571 320.58 358.748C320.612 358.925 320.684 359.069 320.781 359.174C320.877 359.295 321.014 359.367 321.199 359.439C321.384 359.504 321.618 359.544 321.891 359.576C322.173 359.608 322.543 359.632 322.994 359.64V360.292H316.419V359.64C317.079 359.616 317.554 359.568 317.836 359.528C318.117 359.472 318.335 359.399 318.479 359.303C318.632 359.198 318.737 359.053 318.809 358.868C318.874 358.683 318.906 358.386 318.906 357.976V350.769C318.906 350.527 318.866 350.35 318.777 350.238C318.705 350.133 318.576 350.085 318.423 350.085C318.23 350.085 317.956 350.181 317.602 350.375C317.256 350.576 316.83 350.833 316.307 351.179L315.92 350.495L320.081 348.01H320.572C320.531 348.581 320.515 349.369 320.515 350.383V357.976Z" fill="#B5B1B4"/>
<path d="M320.596 397.706C320.596 398.076 320.62 398.358 320.669 398.551C320.701 398.736 320.781 398.889 320.886 399.009C320.99 399.122 321.135 399.218 321.337 399.283C321.53 399.347 321.787 399.403 322.085 399.436C322.383 399.468 322.777 399.5 323.268 399.508V400.208H316.194V399.508C316.903 399.476 317.401 399.436 317.715 399.379C318.021 399.323 318.246 399.242 318.407 399.138C318.56 399.025 318.681 398.872 318.753 398.671C318.826 398.478 318.866 398.157 318.866 397.706V389.944C318.866 389.687 318.818 389.502 318.729 389.381C318.641 389.261 318.512 389.204 318.343 389.204C318.134 389.204 317.844 389.309 317.466 389.518C317.088 389.735 316.629 390.025 316.074 390.395L315.647 389.655L320.129 386.984H320.653C320.62 387.596 320.596 388.448 320.596 389.534V397.706Z" fill="#B5B1B4"/>
<path d="M315.55 432.918C315.55 436.264 315.864 438.709 316.484 440.269C317.095 441.838 318.061 442.618 319.357 442.618C320.604 442.618 321.521 441.878 322.117 440.406C322.728 438.934 323.026 436.666 323.026 433.577C323.026 431.22 322.865 429.314 322.559 427.85C322.254 426.386 321.819 425.341 321.28 424.705C320.725 424.07 320.057 423.756 319.292 423.756C318.576 423.756 317.981 423.965 317.514 424.384C317.039 424.802 316.653 425.405 316.363 426.201C316.065 426.99 315.856 427.947 315.727 429.089C315.607 430.215 315.55 431.494 315.55 432.918ZM319.115 443.921C316.902 443.921 315.261 443.052 314.174 441.307C313.096 439.561 312.549 436.915 312.549 433.376C312.549 431.494 312.718 429.861 313.048 428.486C313.386 427.11 313.852 425.984 314.448 425.083C315.043 424.19 315.776 423.523 316.605 423.089C317.45 422.662 318.367 422.453 319.357 422.453C321.602 422.453 323.276 423.314 324.37 425.043C325.464 426.78 326.02 429.395 326.02 432.893C326.02 436.521 325.432 439.272 324.257 441.13C323.082 442.988 321.376 443.921 319.115 443.921Z" fill="#B5B1B4"/>
<path d="M315.921 472.382C315.921 475.39 316.202 477.594 316.758 479.01C317.321 480.417 318.182 481.117 319.349 481.117C320.475 481.117 321.296 480.457 321.843 479.13C322.382 477.811 322.656 475.76 322.656 472.977C322.656 470.862 322.511 469.132 322.238 467.821C321.964 466.502 321.578 465.561 321.079 464.99C320.588 464.419 319.992 464.129 319.292 464.129C318.649 464.129 318.117 464.322 317.683 464.7C317.256 465.079 316.91 465.617 316.653 466.325C316.387 467.049 316.194 467.91 316.09 468.931C315.977 469.945 315.921 471.095 315.921 472.382ZM319.131 482.291C317.144 482.291 315.655 481.511 314.681 479.943C313.708 478.366 313.225 475.993 313.225 472.792C313.225 471.095 313.37 469.631 313.675 468.4C313.973 467.162 314.392 466.132 314.931 465.328C315.47 464.524 316.114 463.92 316.878 463.534C317.635 463.148 318.455 462.955 319.349 462.955C321.377 462.955 322.881 463.735 323.871 465.296C324.853 466.856 325.352 469.213 325.352 472.366C325.352 475.631 324.821 478.109 323.767 479.782C322.704 481.463 321.167 482.291 319.131 482.291Z" fill="#B5B1B4"/>
<path d="M320.604 516.042C320.604 516.404 320.62 516.685 320.668 516.878C320.709 517.063 320.781 517.224 320.886 517.337C320.99 517.457 321.143 517.546 321.336 517.618C321.537 517.682 321.795 517.731 322.093 517.771C322.39 517.811 322.793 517.827 323.284 517.843V518.543H316.186V517.843C316.894 517.811 317.393 517.763 317.699 517.715C318.013 517.658 318.238 517.578 318.407 517.465C318.56 517.361 318.673 517.2 318.753 516.999C318.826 516.806 318.858 516.484 318.858 516.042V508.239C318.858 507.982 318.818 507.797 318.729 507.676C318.64 507.564 318.512 507.499 318.335 507.499C318.134 507.499 317.836 507.612 317.458 507.821C317.079 508.03 316.613 508.328 316.057 508.698L315.631 507.958L320.129 505.271H320.668C320.62 505.891 320.604 506.743 320.604 507.829V516.042Z" fill="#B5B1B4"/>
<path d="M316.886 551.324C316.886 553.463 317.087 555.04 317.482 556.045C317.884 557.051 318.504 557.549 319.332 557.549C320.129 557.549 320.725 557.075 321.111 556.134C321.489 555.193 321.682 553.729 321.682 551.75C321.682 550.23 321.586 549.007 321.393 548.066C321.191 547.133 320.918 546.458 320.572 546.055C320.21 545.645 319.791 545.444 319.292 545.444C318.834 545.444 318.447 545.573 318.15 545.846C317.844 546.112 317.586 546.498 317.401 547.013C317.224 547.519 317.079 548.131 316.999 548.855C316.926 549.587 316.886 550.407 316.886 551.324ZM319.172 558.394C317.755 558.394 316.693 557.831 316.001 556.705C315.309 555.587 314.963 553.898 314.963 551.621C314.963 550.407 315.076 549.369 315.285 548.485C315.494 547.6 315.792 546.868 316.178 546.289C316.564 545.718 317.031 545.291 317.57 545.01C318.109 544.736 318.697 544.6 319.332 544.6C320.781 544.6 321.851 545.163 322.551 546.273C323.259 547.375 323.614 549.056 323.614 551.308C323.614 553.64 323.235 555.402 322.479 556.592C321.722 557.799 320.62 558.394 319.172 558.394Z" fill="#B5B1B4"/>
<path d="M315.083 590.631C315.083 594.387 315.429 597.138 316.138 598.9C316.83 600.653 317.916 601.538 319.364 601.538C320.773 601.538 321.803 600.701 322.479 599.052C323.147 597.403 323.485 594.838 323.485 591.371C323.485 588.725 323.308 586.577 322.97 584.928C322.615 583.295 322.141 582.113 321.521 581.397C320.91 580.681 320.169 580.319 319.292 580.319C318.487 580.319 317.827 580.561 317.288 581.035C316.757 581.502 316.315 582.185 315.993 583.07C315.663 583.955 315.429 585.049 315.293 586.32C315.156 587.583 315.083 589.022 315.083 590.631ZM319.099 603.01C316.604 603.01 314.745 602.028 313.538 600.066C312.323 598.111 311.72 595.127 311.72 591.146C311.72 589.022 311.905 587.188 312.275 585.652C312.645 584.108 313.168 582.829 313.844 581.823C314.52 580.81 315.333 580.07 316.274 579.587C317.224 579.097 318.254 578.855 319.364 578.855C321.891 578.855 323.774 579.829 325.014 581.775C326.237 583.722 326.864 586.666 326.864 590.607C326.864 594.693 326.196 597.773 324.877 599.865C323.557 601.956 321.626 603.01 319.099 603.01Z" fill="#B5B1B4"/>
<path d="M321.779 638.598C321.779 639.354 321.819 639.917 321.908 640.303C321.988 640.681 322.141 640.995 322.358 641.236C322.568 641.477 322.882 641.662 323.284 641.807C323.686 641.936 324.193 642.04 324.805 642.121C325.416 642.185 326.221 642.233 327.219 642.257V643.689H312.807V642.257C314.247 642.201 315.285 642.113 315.897 642C316.516 641.887 316.983 641.727 317.321 641.493C317.643 641.276 317.876 640.971 318.029 640.56C318.174 640.166 318.246 639.507 318.246 638.598V622.776C318.246 622.254 318.158 621.876 317.973 621.634C317.788 621.393 317.53 621.272 317.176 621.272C316.766 621.272 316.17 621.49 315.398 621.924C314.633 622.342 313.692 622.937 312.549 623.693L311.696 622.189L320.821 616.752H321.9C321.819 617.999 321.779 619.72 321.779 621.94V638.598Z" fill="#B5B1B4"/>
<path d="M321.61 677.43C321.61 678.129 321.658 678.66 321.73 679.014C321.811 679.368 321.956 679.658 322.149 679.883C322.35 680.1 322.64 680.277 323.002 680.406C323.38 680.534 323.855 680.631 324.418 680.695C324.99 680.76 325.738 680.8 326.671 680.832V682.151H313.289V680.832C314.625 680.768 315.582 680.687 316.154 680.583C316.733 680.486 317.168 680.333 317.465 680.132C317.771 679.915 317.989 679.626 318.125 679.256C318.262 678.886 318.335 678.274 318.335 677.43V662.742C318.335 662.26 318.254 661.914 318.077 661.681C317.916 661.464 317.667 661.351 317.345 661.351C316.959 661.351 316.403 661.552 315.695 661.946C314.979 662.348 314.102 662.895 313.048 663.595L312.251 662.204L320.725 657.152H321.722C321.65 658.311 321.61 659.911 321.61 661.962V677.43Z" fill="#B5B1B4"/>
<path d="M320.773 713.81C320.773 714.229 320.789 714.558 320.837 714.767C320.886 714.985 320.974 715.162 321.095 715.298C321.208 715.435 321.385 715.54 321.61 715.62C321.843 715.692 322.125 715.757 322.471 715.789C322.809 715.837 323.268 715.861 323.831 715.869V716.674H315.711V715.869C316.532 715.837 317.104 715.789 317.458 715.725C317.796 715.66 318.069 715.572 318.246 715.443C318.431 715.322 318.568 715.145 318.649 714.912C318.737 714.695 318.777 714.317 318.777 713.81V704.898C318.777 704.601 318.729 704.391 318.624 704.255C318.52 704.118 318.367 704.054 318.174 704.054C317.94 704.054 317.602 704.174 317.176 704.416C316.741 704.657 316.202 704.987 315.567 705.421L315.084 704.568L320.226 701.504H320.829C320.789 702.204 320.773 703.185 320.773 704.424V713.81Z" fill="#B5B1B4"/>
<path d="M314.649 748.34C314.649 752.498 315.028 755.538 315.8 757.477C316.573 759.407 317.764 760.381 319.373 760.381C320.918 760.381 322.061 759.472 322.801 757.646C323.549 755.82 323.928 752.997 323.928 749.168C323.928 746.24 323.735 743.876 323.348 742.058C322.97 740.248 322.439 738.953 321.763 738.149C321.079 737.377 320.25 736.974 319.293 736.974C318.407 736.974 317.675 737.232 317.08 737.755C316.492 738.277 316.009 739.025 315.655 740.007C315.285 740.988 315.028 742.186 314.883 743.586C314.722 744.994 314.649 746.57 314.649 748.34ZM319.075 762.005C316.323 762.005 314.287 760.928 312.943 758.764C311.6 756.6 310.932 753.319 310.932 748.919C310.932 746.57 311.141 744.559 311.551 742.846C311.962 741.149 312.541 739.741 313.289 738.623C314.03 737.513 314.923 736.693 315.969 736.154C317.007 735.623 318.15 735.35 319.373 735.35C322.165 735.35 324.242 736.427 325.601 738.575C326.97 740.731 327.637 743.98 327.637 748.324C327.637 752.828 326.913 756.238 325.457 758.539C324.008 760.847 321.876 762.005 319.075 762.005Z" fill="#B5B1B4"/>
<path d="M222.083 354.134C222.083 356.402 222.292 358.067 222.711 359.129C223.129 360.199 223.789 360.722 224.674 360.722C225.511 360.722 226.139 360.223 226.549 359.226C226.952 358.228 227.161 356.676 227.161 354.577C227.161 352.976 227.056 351.681 226.847 350.692C226.638 349.694 226.348 348.978 225.97 348.552C225.6 348.11 225.149 347.901 224.618 347.901C224.135 347.901 223.733 348.045 223.411 348.335C223.089 348.616 222.824 349.027 222.63 349.558C222.429 350.105 222.292 350.748 222.204 351.52C222.124 352.292 222.083 353.161 222.083 354.134ZM224.505 361.615C223.001 361.615 221.874 361.019 221.142 359.837C220.409 358.655 220.039 356.853 220.039 354.44C220.039 353.161 220.152 352.059 220.377 351.118C220.611 350.193 220.924 349.413 221.335 348.81C221.737 348.19 222.228 347.748 222.799 347.45C223.371 347.161 223.998 347.008 224.674 347.008C226.195 347.008 227.338 347.603 228.086 348.777C228.827 349.952 229.197 351.729 229.197 354.118C229.197 356.587 228.803 358.454 228.006 359.716C227.209 360.979 226.042 361.615 224.505 361.615Z" fill="#B5B1B4"/>
<path d="M222.204 393.567C222.204 395.731 222.405 397.307 222.808 398.329C223.21 399.334 223.83 399.841 224.675 399.841C225.471 399.841 226.067 399.358 226.453 398.417C226.839 397.46 227.032 395.996 227.032 394.002C227.032 392.473 226.936 391.251 226.735 390.302C226.542 389.352 226.26 388.677 225.906 388.267C225.552 387.856 225.117 387.655 224.618 387.655C224.168 387.655 223.781 387.784 223.476 388.058C223.17 388.331 222.92 388.725 222.727 389.232C222.534 389.739 222.405 390.358 222.325 391.09C222.244 391.822 222.204 392.65 222.204 393.567ZM224.506 400.686C223.081 400.686 222.019 400.123 221.319 398.996C220.619 397.87 220.265 396.165 220.265 393.865C220.265 392.65 220.378 391.597 220.587 390.712C220.812 389.827 221.11 389.095 221.496 388.516C221.89 387.937 222.349 387.503 222.896 387.221C223.435 386.948 224.023 386.803 224.675 386.803C226.123 386.803 227.201 387.366 227.91 388.484C228.618 389.61 228.972 391.299 228.972 393.559C228.972 395.908 228.594 397.677 227.829 398.876C227.073 400.082 225.97 400.686 224.506 400.686Z" fill="#B5B1B4"/>
</g>
<circle cx="369.455" cy="1024.45" r="79.56" transform="rotate(-12.086 369.455 1024.45)" fill="url(#paint19_angular_708_4659)"/>
</g>
<defs>
<linearGradient id="paint0_linear_708_4659" x1="638.295" y1="226.98" x2="704.14" y2="405.805" gradientUnits="userSpaceOnUse">
<stop stop-color="#8BD3FC"/>
<stop offset="1" stop-color="#8BD3FC" stop-opacity="0"/>
</linearGradient>
<linearGradient id="paint1_linear_708_4659" x1="749.275" y1="377.177" x2="883.076" y2="513.138" gradientUnits="userSpaceOnUse">
<stop stop-color="#8CD4FC"/>
<stop offset="1" stop-color="white" stop-opacity="0"/>
</linearGradient>
<linearGradient id="paint2_linear_708_4659" x1="828.913" y1="328.915" x2="904.436" y2="405.66" gradientUnits="userSpaceOnUse">
<stop stop-color="#8CD4FC"/>
<stop offset="1" stop-color="white" stop-opacity="0"/>
</linearGradient>
<linearGradient id="paint3_linear_708_4659" x1="853.631" y1="492.285" x2="623.596" y2="753.96" gradientUnits="userSpaceOnUse">
<stop stop-color="#FF72CF"/>
<stop offset="1" stop-color="#FF72CF" stop-opacity="0"/>
</linearGradient>
<linearGradient id="paint4_linear_708_4659" x1="784.267" y1="308.008" x2="784.267" y2="1084.14" gradientUnits="userSpaceOnUse">
<stop stop-color="#FFC700"/>
<stop offset="0.555208" stop-color="#FF5C00"/>
<stop offset="1" stop-color="#FA6C8B"/>
</linearGradient>
<linearGradient id="paint5_linear_708_4659" x1="261.318" y1="70.0211" x2="401.358" y2="592.657" gradientUnits="userSpaceOnUse">
<stop stop-color="#60C6FF"/>
<stop offset="1" stop-color="#D9D9D9" stop-opacity="0"/>
</linearGradient>
<linearGradient id="paint6_linear_708_4659" x1="362.794" y1="711.437" x2="269.342" y2="1060.2" gradientUnits="userSpaceOnUse">
<stop stop-color="#FFC700"/>
<stop offset="1" stop-color="#FFC700" stop-opacity="0"/>
</linearGradient>
<linearGradient id="paint7_linear_708_4659" x1="469" y1="511.5" x2="500" y2="1175.5" gradientUnits="userSpaceOnUse">
<stop stop-color="#FDC850"/>
<stop offset="0.367708" stop-color="#F96734"/>
<stop offset="0.654167" stop-color="#F96A89"/>
<stop offset="0.919792" stop-color="#65C6FB"/>
</linearGradient>
<linearGradient id="paint8_linear_708_4659" x1="520" y1="789" x2="520" y2="402.5" gradientUnits="userSpaceOnUse">
<stop stop-color="white"/>
<stop offset="0.690625" stop-color="white"/>
<stop offset="1" stop-color="#F96A89"/>
</linearGradient>
<linearGradient id="paint9_linear_708_4659" x1="372" y1="190.5" x2="600" y2="492.5" gradientUnits="userSpaceOnUse">
<stop stop-color="#FED64D"/>
<stop offset="0.273958" stop-color="#F87433"/>
<stop offset="0.616214" stop-color="#F9726C"/>
<stop offset="1" stop-color="#94D6FB"/>
</linearGradient>
<linearGradient id="paint10_linear_708_4659" x1="370.852" y1="334.92" x2="495.325" y2="422.18" gradientUnits="userSpaceOnUse">
<stop stop-color="#541800"/>
<stop offset="1" stop-color="#D83C00" stop-opacity="0"/>
</linearGradient>
<linearGradient id="paint11_linear_708_4659" x1="515.857" y1="431.163" x2="514.713" y2="455.947" gradientUnits="userSpaceOnUse">
<stop stop-color="#C34214"/>
<stop offset="1" stop-color="#C34214" stop-opacity="0"/>
</linearGradient>
<linearGradient id="paint12_linear_708_4659" x1="593" y1="902" x2="592.591" y2="1106.66" gradientUnits="userSpaceOnUse">
<stop stop-color="#D9D9D9" stop-opacity="0"/>
<stop offset="1" stop-color="#64C7FD"/>
</linearGradient>
<linearGradient id="paint13_linear_708_4659" x1="621.081" y1="1166.45" x2="515.857" y2="979.099" gradientUnits="userSpaceOnUse">
<stop stop-color="white"/>
<stop offset="1" stop-color="white" stop-opacity="0"/>
</linearGradient>
<linearGradient id="paint14_linear_708_4659" x1="694.225" y1="1103.57" x2="766.5" y2="726.5" gradientUnits="userSpaceOnUse">
<stop stop-color="white"/>
<stop offset="1" stop-color="white" stop-opacity="0"/>
</linearGradient>
<linearGradient id="paint15_linear_708_4659" x1="443" y1="623.5" x2="355.02" y2="1070.47" gradientUnits="userSpaceOnUse">
<stop stop-color="#FF803C" stop-opacity="0"/>
<stop offset="0.414583" stop-color="#FA7D3A"/>
<stop offset="1" stop-color="#64C6FB"/>
</linearGradient>
<linearGradient id="paint16_linear_708_4659" x1="391" y1="797" x2="355.02" y2="1070.47" gradientUnits="userSpaceOnUse">
<stop stop-color="white" stop-opacity="0"/>
<stop offset="1" stop-color="white"/>
</linearGradient>
<linearGradient id="paint17_linear_708_4659" x1="368.053" y1="143.721" x2="402.933" y2="345.187" gradientUnits="userSpaceOnUse">
<stop stop-color="#C23E12"/>
<stop offset="1" stop-color="#C23E12" stop-opacity="0"/>
</linearGradient>
<linearGradient id="paint18_linear_708_4659" x1="674.977" y1="155.27" x2="662.144" y2="350.32" gradientUnits="userSpaceOnUse">
<stop stop-color="#BC3400"/>
<stop offset="1" stop-color="#CA6559" stop-opacity="0"/>
</linearGradient>
<radialGradient id="paint19_angular_708_4659" cx="0" cy="0" r="1" gradientUnits="userSpaceOnUse" gradientTransform="translate(369.455 1024.45) rotate(90) scale(138.588 115.897)">
<stop stop-color="white"/>
<stop offset="0.263542" stop-color="white"/>
<stop offset="0.475581" stop-color="white"/>
<stop offset="1" stop-color="white" stop-opacity="0"/>
</radialGradient>
<clipPath id="clip0_708_4659">
<rect width="1005" height="1111.27" fill="white"/>
</clipPath>
<clipPath id="clip1_708_4659">
<rect width="184.784" height="528.689" fill="white" transform="translate(215.582 331.072)"/>
</clipPath>
</defs>
</svg>
