<svg width="572" height="629" viewBox="0 0 572 629" fill="none" xmlns="http://www.w3.org/2000/svg">
<g clip-path="url(#clip0_480_3770)">
<path d="M490 84L372.61 168.44H292.572H292.428H212.39L95 84C106.537 128.746 112.738 175.657 112.738 223.868C112.738 252.736 110.575 281.172 106.249 308.886L158.165 376.871C166.097 384.81 171 395.924 171 408.049C171 423.205 163.357 436.484 151.676 444.423L179.797 498.119L292.284 555.856V556H292.428H292.572V555.856L405.058 498.119L433.18 444.423C421.499 436.484 413.855 423.205 413.855 408.049C413.855 395.924 418.759 384.81 426.69 376.871L478.607 308.886C474.425 281.172 472.118 252.736 472.118 223.868C472.262 175.513 478.463 128.746 490 84ZM231.281 363.158C229.984 364.024 228.686 364.602 227.243 364.746C226.378 365.035 225.657 365.179 224.648 365.324C204.169 368.932 190.325 360.127 184.412 356.086C183.98 355.797 183.403 355.364 182.97 355.075C182.826 354.931 182.682 354.787 182.537 354.787C176.192 350.456 158.886 327.794 158.886 327.794C158.742 327.506 158.454 327.361 158.31 327.073C157.012 325.196 156.435 323.031 156.579 321.01C156.723 317.691 158.31 314.371 161.338 312.35C162.059 311.917 162.78 311.484 163.646 311.195C163.934 311.051 164.078 311.051 164.367 310.906C164.511 310.906 164.799 310.762 164.943 310.762C165.088 310.762 165.376 310.618 165.52 310.618H165.664H165.809C165.953 310.618 166.241 310.618 166.386 310.618C189.027 308.164 201.141 312.494 201.141 312.494C201.285 312.494 201.429 312.494 201.429 312.639C203.304 312.927 205.179 313.505 206.909 314.226C222.052 320.289 230.56 337.032 230.56 337.032C230.56 337.032 236.041 345.549 236.185 353.343C236.185 357.096 234.598 360.993 231.281 363.158ZM315.502 431.577C315.358 433.453 314.637 435.041 313.483 436.34L297.475 452.362C297.331 452.506 297.187 452.651 297.187 452.651L296.899 452.939V461.023C296.899 463.621 294.735 465.786 292.139 465.786C289.544 465.786 287.38 463.621 287.38 461.023V452.939L287.092 452.651C286.948 452.506 286.948 452.506 286.804 452.362L270.652 436.196C269.498 435.041 268.777 433.309 268.633 431.577V431.432C268.633 431.288 268.633 431.288 268.633 431.144C268.633 427.102 271.95 423.782 275.988 423.782H276.42H292.284H308.147H308.58C312.618 423.782 315.935 427.102 315.935 431.144C315.646 431.288 315.502 431.432 315.502 431.577Z" fill="#1F1F1F"/>
</g>
<defs>
<clipPath id="clip0_480_3770">
<rect width="572" height="629" fill="white"/>
</clipPath>
</defs>
</svg>
